<?xml version="1.0" encoding="UTF-8"?>
<svg version="1.1" xmlns="http://www.w3.org/2000/svg" width="794" height="1123">
<path d="M0 0 C262.02 0 524.04 0 794 0 C794 370.59 794 741.18 794 1123 C531.98 1123 269.96 1123 0 1123 C0 752.41 0 381.82 0 0 Z " fill="#006838" transform="translate(0,0)"/>
<path d="M0 0 C4.55555556 0.55555556 4.55555556 0.55555556 6 2 C7.77971096 14.86476777 1.68485354 27.09633442 -3.765625 38.390625 C-8.00378627 47.34977604 -7.75827922 61.55076911 -5.05859375 71.0234375 C-3.8603549 74.12608732 -2.52486551 77.04557308 -1 80 C-0.09605287 81.9337278 0.80002833 83.87115571 1.6875 85.8125 C2.28111328 87.02873047 2.28111328 87.02873047 2.88671875 88.26953125 C8.27116641 101.47559762 7.50632155 116.31286674 2.51171875 129.46484375 C0.1287532 135.03741176 -2.32927869 140.55760227 -5 146 C-1.34075247 144.35904247 1.73394744 142.06145289 4.9375 139.6875 C14.26765871 132.89928445 24.12917855 126.96072847 34 121 C34.68594238 120.58459961 35.37188477 120.16919922 36.07861328 119.74121094 C45.59326129 114 45.59326129 114 48 114 C50.51572772 122.93938201 52.80378601 131.77012164 54 141 C54.1546875 141.76183594 54.309375 142.52367187 54.46875 143.30859375 C54.75 145.375 54.75 145.375 54 149 C51.01660694 151.63555351 47.54545833 153.23399421 44 155 C20.36843569 167.78620671 20.36843569 167.78620671 1 186 C1.12843585 189.29981326 2.12685731 191.28014323 3.5 194.3125 C5.17408707 198.59255511 5.50567358 202.83063834 5.8125 207.375 C5.89177734 208.44681519 5.89177734 208.44681519 5.97265625 209.5402832 C6.06982358 211.35761586 6.04371564 213.18059669 6 215 C5.34 215.66 4.68 216.32 4 217 C-0.55555556 216.44444444 -0.55555556 216.44444444 -2 215 C-2.44755772 211.88213995 -2.81954893 208.76547023 -3.16210938 205.63476562 C-3.59317833 202.04953356 -4.09514782 199.10036611 -6 196 C-6.79955001 197.51670364 -7.58921388 199.03861998 -8.375 200.5625 C-8.81585938 201.40941406 -9.25671875 202.25632812 -9.7109375 203.12890625 C-14.03567062 212.76126637 -13 218.51109918 -13 230 C23.3 230 59.6 230 97 230 C97 230.66 97 231.32 97 232 C98.010625 231.938125 99.02125 231.87625 100.0625 231.8125 C122.29135755 231.96821879 145.68536048 243.23748269 161.44921875 258.34765625 C170.09207657 267.36194267 174.40200739 277.04926066 174.27734375 289.515625 C173.55821333 298.55033399 169.36991203 305.88486656 164 313 C163.38640625 313.82113281 162.7728125 314.64226562 162.140625 315.48828125 C147.5604946 332.595989 120.09796558 341.50657396 98.40234375 343.296875 C95.99073389 343.4664608 93.57793895 343.62040744 91.1640625 343.75390625 C88.35432279 343.97244156 85.7515257 344.42080822 83 345 C82.79020508 345.67651611 82.58041016 346.35303223 82.36425781 347.05004883 C70.19859613 385.86476847 52.87241054 422.60017594 25.0859375 452.7265625 C23.1477745 454.8389424 21.28976729 456.99998072 19.4375 459.1875 C13.12748334 466.40928512 5.47939065 472.01648748 -2 478 C9.22 478.33 20.44 478.66 32 479 C32 488.85233028 30.0774954 495.18875185 23.66015625 502.625 C19.20413556 506.31563361 14.28735162 506.29153887 8.74589539 506.27415466 C7.91830666 506.27939134 7.09071793 506.28462802 6.23805076 506.29002339 C3.46683836 506.30501688 0.69581071 506.3057284 -2.07543945 506.30639648 C-4.06317455 506.31401839 -6.05090671 506.32244595 -8.03863525 506.33161926 C-13.43747016 506.35356775 -18.83624843 506.36236363 -24.23512292 506.36744571 C-27.60869726 506.3710888 -30.98225675 506.37732862 -34.35582542 506.3844471 C-46.12679064 506.40894262 -57.89771177 506.42199376 -69.66870117 506.42553711 C-80.63813506 506.42917265 -91.60728919 506.45906925 -102.57663757 506.50094169 C-111.99675274 506.53563886 -121.41677517 506.55108545 -130.83695382 506.55178314 C-136.46215739 506.55257614 -142.087076 506.56132533 -147.71221352 506.58978081 C-153.00400858 506.61595144 -158.2952822 506.61817202 -163.58711243 506.60212517 C-165.52689946 506.60030991 -167.4667164 506.60700832 -169.40643883 506.62294388 C-172.05988931 506.64341021 -174.71151625 506.63285012 -177.36494446 506.61473083 C-178.12809363 506.6279308 -178.89124281 506.64113077 -179.67751771 506.65473074 C-185.48414225 506.56449385 -189.50145641 504.66044023 -194 501 C-195.83984375 498.4296875 -195.83984375 498.4296875 -196.9375 495.875 C-197.31777344 495.02679687 -197.69804687 494.17859375 -198.08984375 493.3046875 C-200.28173391 487.7544077 -200 485.99050356 -200 479 C-188.78 478.67 -177.56 478.34 -166 478 C-169.3 475.36 -172.6 472.72 -176 470 C-224.51754035 428.33690331 -251.04833483 365.06349389 -261 303 C-261.15162598 302.07348633 -261.30325195 301.14697266 -261.45947266 300.19238281 C-263.22116147 289.19517387 -264.33759262 278.16541559 -265.1875 267.0625 C-265.27153076 266.00498535 -265.35556152 264.9474707 -265.44213867 263.85791016 C-266.22758486 252.51861463 -266 241.45590686 -266 230 C-193.07 230 -120.14 230 -45 230 C-45.99 227.03 -46.98 224.06 -48 221 C-49.99967516 203.63615406 -44.60541368 188.69732432 -34 175 C-29.37116561 169.38869222 -24.36529683 164.21600798 -18.9375 159.375 C-15.63223644 156.13239546 -15.08459013 153.16331461 -14.4453125 148.66796875 C-13.15862909 140.95915497 -9.51477174 133.69309292 -6.1484375 126.703125 C-3.57658193 120.64964183 -2.63611666 115.1852901 -2.6875 108.6875 C-2.69313965 107.93694336 -2.6987793 107.18638672 -2.70458984 106.41308594 C-2.89245727 97.80094549 -5.34764178 91.31240438 -9 83.5625 C-16.06700097 68.3913014 -18.11867898 51.04511719 -12.28125 34.9921875 C-10.38802285 30.57080947 -8.38936078 26.20684195 -6.32421875 21.86328125 C-3.60666905 15.98728146 -2.73505835 10.52482757 -2.34375 4.13671875 C-2 2 -2 2 0 0 Z " fill="#BF9E8C" transform="translate(485,127)"/>
<path d="M0 0 C60.72 0 121.44 0 184 0 C184 90.42 184 180.84 184 274 C77 274 77 274 71 270 C69.35546875 267.52734375 69.35546875 267.52734375 68.1875 264.9375 C67.78917969 264.08027344 67.39085937 263.22304688 66.98046875 262.33984375 C64.66263391 256.80843711 65 254.99408457 65 248 C76.22 247.67 87.44 247.34 99 247 C95.7 244.36 92.4 241.72 89 239 C34.55298194 192.24512822 8.6486166 119.66442685 1 50 C-0.1876883 33.37236381 0 16.66999967 0 0 Z " fill="#D3AD99" transform="translate(220,358)"/>
<path d="M0 0 C4.55555556 0.55555556 4.55555556 0.55555556 6 2 C7.77971096 14.86476777 1.68485354 27.09633442 -3.765625 38.390625 C-8.00378627 47.34977604 -7.75827922 61.55076911 -5.05859375 71.0234375 C-3.8603549 74.12608732 -2.52486551 77.04557308 -1 80 C-0.09605287 81.9337278 0.80002833 83.87115571 1.6875 85.8125 C2.28111328 87.02873047 2.28111328 87.02873047 2.88671875 88.26953125 C8.27116641 101.47559762 7.50632155 116.31286674 2.51171875 129.46484375 C0.1287532 135.03741176 -2.32927869 140.55760227 -5 146 C-1.34075247 144.35904247 1.73394744 142.06145289 4.9375 139.6875 C14.26765871 132.89928445 24.12917855 126.96072847 34 121 C34.68594238 120.58459961 35.37188477 120.16919922 36.07861328 119.74121094 C45.59326129 114 45.59326129 114 48 114 C50.51572772 122.93938201 52.80378601 131.77012164 54 141 C54.1546875 141.76183594 54.309375 142.52367187 54.46875 143.30859375 C54.75 145.375 54.75 145.375 54 149 C51.01660694 151.63555351 47.54545833 153.23399421 44 155 C20.36843569 167.78620671 20.36843569 167.78620671 1 186 C1.12843585 189.29981326 2.12685731 191.28014323 3.5 194.3125 C5.17408707 198.59255511 5.50567358 202.83063834 5.8125 207.375 C5.89177734 208.44681519 5.89177734 208.44681519 5.97265625 209.5402832 C6.06982358 211.35761586 6.04371564 213.18059669 6 215 C5.34 215.66 4.68 216.32 4 217 C-0.55555556 216.44444444 -0.55555556 216.44444444 -2 215 C-2.44755772 211.88213995 -2.81954893 208.76547023 -3.16210938 205.63476562 C-3.59317833 202.04953356 -4.09514782 199.10036611 -6 196 C-6.79955001 197.51670364 -7.58921388 199.03861998 -8.375 200.5625 C-8.81585938 201.40941406 -9.25671875 202.25632812 -9.7109375 203.12890625 C-14.03567062 212.76126637 -13 218.51109918 -13 230 C23.3 230 59.6 230 97 230 C97 230.33 97 230.66 97 231 C-22.46 231 -141.92 231 -265 231 C-265 238.26 -265 245.52 -265 253 C-265.33 253 -265.66 253 -266 253 C-266 245.41 -266 237.82 -266 230 C-193.07 230 -120.14 230 -45 230 C-45.99 227.03 -46.98 224.06 -48 221 C-49.99967516 203.63615406 -44.60541368 188.69732432 -34 175 C-29.37116561 169.38869222 -24.36529683 164.21600798 -18.9375 159.375 C-15.63223644 156.13239546 -15.08459013 153.16331461 -14.4453125 148.66796875 C-13.15862909 140.95915497 -9.51477174 133.69309292 -6.1484375 126.703125 C-3.57658193 120.64964183 -2.63611666 115.1852901 -2.6875 108.6875 C-2.69313965 107.93694336 -2.6987793 107.18638672 -2.70458984 106.41308594 C-2.89245727 97.80094549 -5.34764178 91.31240438 -9 83.5625 C-16.06700097 68.3913014 -18.11867898 51.04511719 -12.28125 34.9921875 C-10.38802285 30.57080947 -8.38936078 26.20684195 -6.32421875 21.86328125 C-3.60666905 15.98728146 -2.73505835 10.52482757 -2.34375 4.13671875 C-2 2 -2 2 0 0 Z " fill="#3FAE4E" transform="translate(485,127)"/>
<path d="M0 0 C1.59106713 11.33145807 2.34618967 22.45905628 2.31567383 33.90136719 C2.31251028 36.36698601 2.33611529 38.83140254 2.36132812 41.296875 C2.39704871 49.49388447 2.03079297 57.54586313 0.85546875 65.6640625 C0.71846306 66.69592178 0.71846306 66.69592178 0.57868958 67.74862671 C-0.82339551 76.32244505 -4.02369037 83.5671227 -7 92 C-34.72 92 -62.44 92 -91 92 C-94.18698961 82.43903118 -92.01799007 71.95903191 -88 63 C-86.78682964 60.8195722 -85.53580474 58.97460609 -84 57 C-79.04198789 61.95801211 -79.4538242 70.39566355 -79 77 C-77.34385343 77.38218767 -75.67542976 77.71395102 -74 78 C-72.61885542 76.85313525 -72.61885542 76.85313525 -72.98046875 73.75390625 C-73.0387873 72.35628371 -73.1085121 70.95910686 -73.1875 69.5625 C-73.22794434 68.83836914 -73.26838867 68.11423828 -73.31005859 67.36816406 C-73.70198674 62.08360743 -74.84359377 57.77746333 -77.2578125 53.015625 C-78 51 -78 51 -77.9765625 49.08984375 C-76.45183941 45.82693634 -73.88774962 43.6789058 -71.25 41.3125 C-70.66653809 40.78358154 -70.08307617 40.25466309 -69.48193359 39.7097168 C-56.89515929 28.5209095 -41.93703519 19.98938618 -27.07421875 12.19140625 C-24.87313243 11.04711056 -24.87313243 11.04711056 -23 9 C-21.2578125 8.359375 -21.2578125 8.359375 -19.125 7.75 C-13.95071677 6.12620055 -9.29608496 3.72246605 -4.50390625 1.20703125 C-2 0 -2 0 0 0 Z " fill="#009344" transform="translate(563,265)"/>
<path d="M0 0 C2.72410122 0.66440388 2.72410122 0.66440388 5.625 -0.5625 C9.82602009 -0.71809334 13.52888389 -0.42484023 17.625 0.4375 C19.2912553 0.4745279 20.95901319 0.48509962 22.625 0.4375 C23.12 1.9225 23.12 1.9225 23.625 3.4375 C24.305625 2.7775 24.98625 2.1175 25.6875 1.4375 C29.40698762 -1.0949171 31.201184 -1.26099726 35.625 -0.5625 C37.9449818 0.90783934 39.63966709 2.50058985 41.625 4.4375 C42.470625 3.6125 43.31625 2.7875 44.1875 1.9375 C46.84407206 -0.28573052 47.59382758 -0.55927527 51.25 -0.9375 C53.82697569 -0.65116937 56.16321547 -0.35027105 58.625 0.4375 C58.625 1.4275 58.625 2.4175 58.625 3.4375 C59.470625 2.7775 60.31625 2.1175 61.1875 1.4375 C65.14394745 -0.86443306 67.12382036 -1.05353778 71.625 -0.5625 C72.45 -0.19125 73.275 0.18 74.125 0.5625 C77.72473691 1.82240792 80.02514507 0.53576083 83.625 -0.5625 C87.97586702 -1.16959772 91.05081263 -0.87085988 95 1.25 C97.625 3.4375 97.625 3.4375 99.625 6.4375 C99.955 4.4575 100.285 2.4775 100.625 0.4375 C102.275 0.4375 103.925 0.4375 105.625 0.4375 C105.955 1.4275 106.285 2.4175 106.625 3.4375 C107.305625 2.7775 107.98625 2.1175 108.6875 1.4375 C112.36116939 -1.06372172 114.25583745 -1.10864532 118.625 -0.5625 C121.92325768 0.75680307 123.23917695 1.61512283 124.75390625 4.84375 C125.97056175 9.86313591 125.83626326 14.66988274 125.75 19.8125 C125.74097656 20.83472656 125.73195313 21.85695313 125.72265625 22.91015625 C125.6992043 25.41951522 125.66638355 27.92838336 125.625 30.4375 C123.975 30.4375 122.325 30.4375 120.625 30.4375 C120.295 22.1875 119.965 13.9375 119.625 5.4375 C116.325 5.4375 113.025 5.4375 109.625 5.4375 C106.46202755 9.64979428 106.46202755 9.64979428 106.11328125 14.421875 C106.07783203 15.35644531 106.04238281 16.29101562 106.00585938 17.25390625 C105.97202148 18.70603516 105.97202148 18.70603516 105.9375 20.1875 C105.90333984 21.17105469 105.86917969 22.15460937 105.83398438 23.16796875 C105.75165691 25.59074858 105.68664775 28.0141058 105.625 30.4375 C102.325 30.4375 99.025 30.4375 95.625 30.4375 C95.13 28.9525 95.13 28.9525 94.625 27.4375 C93.779375 28.0975 92.93375 28.7575 92.0625 29.4375 C88.12442718 31.72874237 86.10419077 31.93518786 81.625 31.4375 C80.28409241 30.78620203 78.94907669 30.12236725 77.625 29.4375 C75.31702999 29.77690736 73.70989539 30.39505231 71.625 31.4375 C67.14826748 31.60968202 63.01901026 31.29486786 58.625 30.4375 C58.625 34.0675 58.625 37.6975 58.625 41.4375 C56.975 41.4375 55.325 41.4375 53.625 41.4375 C53.625 29.2275 53.625 17.0175 53.625 4.4375 C50.655 5.0975 47.685 5.7575 44.625 6.4375 C42.81163105 10.0642379 42.35765305 11.38852067 42.2109375 15.203125 C42.17226563 16.09257813 42.13359375 16.98203125 42.09375 17.8984375 C42.0628125 18.81882812 42.031875 19.73921875 42 20.6875 C41.96132813 21.62335937 41.92265625 22.55921875 41.8828125 23.5234375 C41.78875156 25.82793054 41.70310601 28.13242013 41.625 30.4375 C39.975 30.4375 38.325 30.4375 36.625 30.4375 C36.59994385 29.71570557 36.5748877 28.99391113 36.54907227 28.25024414 C36.43348698 24.999965 36.31059226 21.75000312 36.1875 18.5 C36.14818359 17.36369141 36.10886719 16.22738281 36.06835938 15.05664062 C36.02646484 13.97705078 35.98457031 12.89746094 35.94140625 11.78515625 C35.88641968 10.28480835 35.88641968 10.28480835 35.83032227 8.75415039 C35.87828159 6.47680812 35.87828159 6.47680812 34.625 5.4375 C30.57698727 5.02430634 30.57698727 5.02430634 26.625 5.4375 C23.89195405 8.37907313 23.23435497 10.45065686 23.11328125 14.421875 C23.07783203 15.35644531 23.04238281 16.29101562 23.00585938 17.25390625 C22.98330078 18.22199219 22.96074219 19.19007813 22.9375 20.1875 C22.90333984 21.17105469 22.86917969 22.15460937 22.83398438 23.16796875 C22.75164727 25.59103199 22.68245162 28.01373998 22.625 30.4375 C19.95833333 30.4375 17.29166667 30.4375 14.625 30.4375 C13.635 30.9325 13.635 30.9325 12.625 31.4375 C8.66087846 31.56963738 5.16216362 31.52702727 1.25 30.875 C-1.34589775 30.17787734 -1.34589775 30.17787734 -3.375 31.4375 C-8.11481526 32.01575746 -11.49497823 31.91010429 -15.75 29.625 C-21.14423077 25.12980769 -21.14423077 25.12980769 -22.375 21.4375 C-22.85313002 15.56669043 -23.1859701 10.24658715 -20.75 4.8125 C-14.54854705 -1.38895295 -8.196589 -1.36609817 0 0 Z " fill="#C2A891" transform="translate(294.375,736.5625)"/>
<path d="M0 0 C13.97313215 1.10897874 28.40176708 6.37973302 38 17 C43.04575364 23.83699618 44.82176842 29.49227991 44 38 C42.14303936 46.23085258 37.61553466 51.91548908 31 57 C18.83993906 64.57757492 5.29983145 68.40541241 -9 69 C-8.21423785 63.40900007 -7.37081057 57.82836079 -6.5 52.25 C-6.30470703 50.97576172 -6.30470703 50.97576172 -6.10546875 49.67578125 C-5.91404297 48.45181641 -5.91404297 48.45181641 -5.71875 47.203125 C-5.54762695 46.09952637 -5.54762695 46.09952637 -5.37304688 44.97363281 C-5 43 -5 43 -4 40 C-3.72111587 37.32231085 -3.48380746 34.65616893 -3.28125 31.97265625 C-3.21844849 31.18733017 -3.15564697 30.40200409 -3.09094238 29.59288025 C-2.89039665 27.08302055 -2.6946731 24.5728216 -2.5 22.0625 C-2.24346229 18.76139803 -1.98236902 15.46069931 -1.71875 12.16015625 C-1.661427 11.4027565 -1.604104 10.64535675 -1.54504395 9.86500549 C-1.27559275 6.49081778 -0.99177045 3.24719692 0 0 Z " fill="#026839" transform="translate(582,383)"/>
<path d="M0 0 C2.51572772 8.93938201 4.80378601 17.77012164 6 27 C6.1546875 27.76183594 6.309375 28.52367187 6.46875 29.30859375 C6.75 31.375 6.75 31.375 6 35 C3.01660694 37.63555351 -0.45454167 39.23399421 -4 41 C-20.25247273 49.81422447 -34.78515076 60.03795657 -48 73 C-50.21953964 70.78046036 -50.91824754 69.08946346 -52.0625 66.1875 C-52.40410156 65.33542969 -52.74570312 64.48335938 -53.09765625 63.60546875 C-55.15390148 57.66817192 -55.34509913 51.78865457 -55.5 45.5625 C-55.55414063 44.63373047 -55.60828125 43.70496094 -55.6640625 42.74804688 C-55.79569346 36.1429931 -55.79569346 36.1429931 -53.79516602 33.26928711 C-51.96085379 31.63492232 -50.06558719 30.33105042 -48 29 C-47.18450684 28.42435303 -46.36901367 27.84870605 -45.52880859 27.25561523 C-42.69435393 25.26912935 -39.82383695 23.34776074 -36.9375 21.4375 C-35.89706543 20.7465625 -34.85663086 20.055625 -33.78466797 19.34375 C-26.502908 14.55008044 -19.1235807 9.94644793 -11.625 5.5 C-10.68648193 4.9423999 -9.74796387 4.3847998 -8.78100586 3.81030273 C-2.25974847 0 -2.25974847 0 0 0 Z " fill="#38B44A" transform="translate(533,241)"/>
<path d="M0 0 C1.051875 0.53625 2.10375 1.0725 3.1875 1.625 C5.86012312 3.33861121 5.86012312 3.33861121 8.25 2.25 C8.8275 1.8375 9.405 1.425 10 1 C13.06429776 -0.53214888 15.6165642 -0.22938548 19 0 C21.9375 1.5 21.9375 1.5 24 3 C24.33 2.34 24.66 1.68 25 1 C27.66666667 1 30.33333333 1 33 1 C33.66 0.67 34.32 0.34 35 0 C41.10685229 -0.50890436 44.12959772 -0.0775461 49 4 C52.76150827 8.280337 53.29568249 12.12836293 53.21484375 17.65234375 C52.75924562 22.63078877 51.07023228 26.0080774 47.4375 29.375 C43.33061103 32.11292598 39.88839487 32.54417981 35 32 C32.7421875 30.98828125 32.7421875 30.98828125 31 30 C30.69707031 30.69867187 30.39414062 31.39734375 30.08203125 32.1171875 C29.45361328 33.48230469 29.45361328 33.48230469 28.8125 34.875 C28.40644531 35.77992188 28.00039063 36.68484375 27.58203125 37.6171875 C25.62117963 40.57056895 24.40734383 41.13098003 21 42 C17.95703125 42.23046875 17.95703125 42.23046875 14.8125 42.1875 C13.24435547 42.17783203 13.24435547 42.17783203 11.64453125 42.16796875 C9 42 9 42 7 41 C7 39.35 7 37.7 7 36 C8.485 36.495 8.485 36.495 10 37 C16.62944583 37.67853193 16.62944583 37.67853193 22.625 35.3125 C24.21961817 32.63064217 24.34098943 31.06890491 24 28 C23.319375 28.495 22.63875 28.99 21.9375 29.5 C18.30297508 31.35592762 16.04433175 31.35476594 12 31 C10.989375 30.608125 9.97875 30.21625 8.9375 29.8125 C4.95919732 28.71211841 3.56654774 30.1075461 0 32 C-4.97971625 32.63378207 -8.34615742 31.93614721 -12.48828125 29.24609375 C-15.81428992 26.50450004 -16.82540654 23.62789962 -17.27734375 19.4140625 C-17.47841803 13.54269357 -17.16655256 9.00519598 -14 4 C-9.73490158 0.29696882 -5.63319255 -0.71695178 0 0 Z " fill="#C6A993" transform="translate(486,736)"/>
<path d="M0 0 C2.375 -0.125 2.375 -0.125 5 0 C7 2 7 2 7.3125 5.875 C6.94878331 17.95422271 1.84271059 28.45786602 -3.19970703 39.19750977 C-7.06265511 47.89798129 -6.64464395 61.94949307 -4.05859375 71.0234375 C-2.8603549 74.12608732 -1.52486551 77.04557308 0 80 C0.90394713 81.9337278 1.80002833 83.87115571 2.6875 85.8125 C3.08324219 86.62332031 3.47898437 87.43414062 3.88671875 88.26953125 C9.27384787 101.48217425 8.50271254 116.31856868 3.5078125 129.4765625 C1.5039504 134.15916254 -0.55142589 138.80243921 -2.765625 143.390625 C-7.00378627 152.34977604 -6.75827922 166.55076911 -4.05859375 176.0234375 C-2.86028431 179.12627009 -1.5266597 182.04624537 0 185 C4.62252562 194.77033825 8.42161627 203.94066169 7 215 C6.01 215.99 6.01 215.99 5 217 C0.44444444 216.44444444 0.44444444 216.44444444 -1 215 C-1.27612307 213.0926268 -1.548165 211.18456742 -1.79882812 209.27368164 C-2.98818253 200.52711948 -5.13177713 193.50291789 -9.28125 185.72265625 C-13.43157002 177.35641701 -14.53576998 168.73660478 -14.4375 159.5 C-14.42920166 158.48607178 -14.42090332 157.47214355 -14.41235352 156.42749023 C-14.24812648 149.18572066 -13.27978907 143.50270318 -10 137 C-9.07137019 134.95617117 -8.16518805 132.90344619 -7.26391602 130.84741211 C-6.64596877 129.44454342 -6.01683869 128.04652844 -5.37475586 126.65454102 C-0.74374311 116.43978444 -0.17390113 103.31860925 -3.875 92.66015625 C-5.60081028 88.57933404 -7.48255778 84.56714036 -9.48657227 80.61523438 C-15.3734577 68.696506 -16.68998577 51.78761691 -13.0546875 39 C-11.86375834 35.88410988 -10.52752493 32.96373043 -9 30 C-8.09690509 28.04500476 -7.20083737 26.08674502 -6.3125 24.125 C-5.90128906 23.23167969 -5.49007813 22.33835938 -5.06640625 21.41796875 C-2.55502795 15.72367143 -1.70708573 10.28014246 -1.24609375 4.13671875 C-1 2 -1 2 0 0 Z " fill="#42B2E1" transform="translate(408,127)"/>
<path d="M0 0 C4.55555556 0.55555556 4.55555556 0.55555556 6 2 C7.77971096 14.86476777 1.68485354 27.09633442 -3.765625 38.390625 C-8.00378627 47.34977604 -7.75827922 61.55076911 -5.05859375 71.0234375 C-3.8603549 74.12608732 -2.52486551 77.04557308 -1 80 C-0.09605287 81.9337278 0.80002833 83.87115571 1.6875 85.8125 C2.08324219 86.62332031 2.47898437 87.43414062 2.88671875 88.26953125 C8.27384787 101.48217425 7.50271254 116.31856868 2.5078125 129.4765625 C0.5039504 134.15916254 -1.55142589 138.80243921 -3.765625 143.390625 C-6.28962282 148.7261647 -6.21791265 153.26672292 -6.25 159.0625 C-6.270625 159.96677734 -6.29125 160.87105469 -6.3125 161.80273438 C-6.36760076 171.43847986 -3.50219853 179.33067253 0.5625 187.9375 C4.55210886 196.73557741 6.70742395 205.27292074 6 215 C5.01 215.99 5.01 215.99 4 217 C-0.55555556 216.44444444 -0.55555556 216.44444444 -2 215 C-2.17254418 212.91714521 -2.33763587 210.83367307 -2.5 208.75 C-3.34100232 200.65134791 -6.33361887 193.75287063 -9.72460938 186.41113281 C-15.64277398 173.57213934 -18.00304527 157.88127399 -14.0546875 143.99609375 C-12.86308332 140.88218472 -11.52680168 137.96232717 -10 135 C-9.09690509 133.04500476 -8.20083737 131.08674502 -7.3125 129.125 C-6.91675781 128.30257812 -6.52101563 127.48015625 -6.11328125 126.6328125 C-3.56389722 120.60374291 -2.63636164 115.15431081 -2.6875 108.6875 C-2.69595947 107.56166504 -2.69595947 107.56166504 -2.70458984 106.41308594 C-2.89245727 97.80094549 -5.34764178 91.31240438 -9 83.5625 C-16.06700097 68.3913014 -18.11867898 51.04511719 -12.28125 34.9921875 C-10.38802285 30.57080947 -8.38936078 26.20684195 -6.32421875 21.86328125 C-3.60666905 15.98728146 -2.73505835 10.52482757 -2.34375 4.13671875 C-2 2 -2 2 0 0 Z " fill="#42B2E2" transform="translate(485,127)"/>
<path d="M0 0 C4.55555556 0.55555556 4.55555556 0.55555556 6 2 C6.47484601 11.97176617 4.62360244 19.95443531 0.5625 29 C-5.56708844 42.71025669 -9.09903317 56.42883063 -4.375 71.3125 C-2.73935236 75.53013428 -0.80246851 79.59635361 1.125 83.6875 C7.73581558 97.82729999 8.09347583 114.19708586 3 129 C1.36186633 132.93975164 -0.47468605 136.77306751 -2.37890625 140.58984375 C-8.04649314 152.51226148 -7.67456068 166.58909353 -3.28125 178.953125 C-1.90478767 182.22641957 -0.40860132 185.42247959 1.125 188.625 C5.20993978 197.18686874 6.5998221 205.55280191 6 215 C5.01 215.99 5.01 215.99 4 217 C-0.55555556 216.44444444 -0.55555556 216.44444444 -2 215 C-2.19796547 212.6883724 -2.38281807 210.3756206 -2.5625 208.0625 C-3.23447671 201.34730932 -5.05758689 195.83484222 -7.9375 189.75 C-14.54709001 175.67964097 -18.8764877 158.64481878 -13.4375 143.3125 C-12.6488395 141.53092161 -11.83260689 139.76146891 -11 138 C-10.07156038 135.80167419 -9.16656434 133.59453144 -8.26391602 131.38549805 C-7.64147485 129.86573216 -7.01202148 128.34881463 -6.37475586 126.83520508 C-6.08221924 126.13806396 -5.78968262 125.44092285 -5.48828125 124.72265625 C-5.22571533 124.10140869 -4.96314941 123.48016113 -4.69262695 122.84008789 C-0.30676766 111.18826502 -2.69623683 96.17824666 -7.6875 85.13671875 C-8.59135478 83.19937833 -9.51555657 81.27957609 -10.48657227 79.375 C-16.57075439 67.30984213 -17.15265876 51.96950076 -13.375 39.0625 C-11.3857079 33.54931904 -8.93651593 28.23778264 -6.3671875 22.97265625 C-3.50450762 16.74837229 -2.68144674 11.39707949 -2.34375 4.609375 C-2 2 -2 2 0 0 Z " fill="#43B2E2" transform="translate(326,127)"/>
<path d="M0 0 C2.72410122 0.66440388 2.72410122 0.66440388 5.625 -0.5625 C9.82602009 -0.71809334 13.52888389 -0.42484023 17.625 0.4375 C19.2912553 0.4745279 20.95901319 0.48509962 22.625 0.4375 C23.12 1.9225 23.12 1.9225 23.625 3.4375 C24.305625 2.7775 24.98625 2.1175 25.6875 1.4375 C29.40698762 -1.0949171 31.201184 -1.26099726 35.625 -0.5625 C37.9449818 0.90783934 39.63966709 2.50058985 41.625 4.4375 C42.615 3.4475 43.605 2.4575 44.625 1.4375 C45.615 1.9325 45.615 1.9325 46.625 2.4375 C44.625 6.4375 44.625 6.4375 43.58056641 8.28027344 C42.50042772 10.71872653 42.31315457 12.5454812 42.2109375 15.203125 C42.17226563 16.09257813 42.13359375 16.98203125 42.09375 17.8984375 C42.0628125 18.81882812 42.031875 19.73921875 42 20.6875 C41.96132813 21.62335937 41.92265625 22.55921875 41.8828125 23.5234375 C41.78875156 25.82793054 41.70310601 28.13242013 41.625 30.4375 C39.975 30.4375 38.325 30.4375 36.625 30.4375 C36.59994385 29.71570557 36.5748877 28.99391113 36.54907227 28.25024414 C36.43348698 24.999965 36.31059226 21.75000312 36.1875 18.5 C36.14818359 17.36369141 36.10886719 16.22738281 36.06835938 15.05664062 C36.02646484 13.97705078 35.98457031 12.89746094 35.94140625 11.78515625 C35.88641968 10.28480835 35.88641968 10.28480835 35.83032227 8.75415039 C35.87828159 6.47680812 35.87828159 6.47680812 34.625 5.4375 C30.57698727 5.02430634 30.57698727 5.02430634 26.625 5.4375 C23.89195405 8.37907313 23.23435497 10.45065686 23.11328125 14.421875 C23.07783203 15.35644531 23.04238281 16.29101562 23.00585938 17.25390625 C22.98330078 18.22199219 22.96074219 19.19007813 22.9375 20.1875 C22.90333984 21.17105469 22.86917969 22.15460937 22.83398438 23.16796875 C22.75164727 25.59103199 22.68245162 28.01373998 22.625 30.4375 C19.95833333 30.4375 17.29166667 30.4375 14.625 30.4375 C13.635 30.9325 13.635 30.9325 12.625 31.4375 C8.66087846 31.56963738 5.16216362 31.52702727 1.25 30.875 C-1.34589775 30.17787734 -1.34589775 30.17787734 -3.375 31.4375 C-8.11481526 32.01575746 -11.49497823 31.91010429 -15.75 29.625 C-21.14423077 25.12980769 -21.14423077 25.12980769 -22.375 21.4375 C-22.85313002 15.56669043 -23.1859701 10.24658715 -20.75 4.8125 C-14.54854705 -1.38895295 -8.196589 -1.36609817 0 0 Z " fill="#C6A993" transform="translate(294.375,736.5625)"/>
<path d="M0 0 C1.13441528 0.12858398 1.13441528 0.12858398 2.29174805 0.25976562 C2.96337891 1.96191406 2.96337891 1.96191406 3.29174805 4.25976562 C2.21191406 6.54980469 2.21191406 6.54980469 0.5456543 9.02539062 C-0.0440918 9.91484375 -0.63383789 10.80429687 -1.24145508 11.72070312 C-2.18408203 13.10128906 -2.18408203 13.10128906 -3.14575195 14.50976562 C-4.08257813 15.91355469 -4.08257813 15.91355469 -5.03833008 17.34570312 C-6.58390256 19.65816272 -8.14074243 21.96214416 -9.70825195 24.25976562 C-8.38760742 23.91751953 -8.38760742 23.91751953 -7.0402832 23.56835938 C-5.87883789 23.28089844 -4.71739258 22.9934375 -3.52075195 22.69726562 C-2.37219727 22.40722656 -1.22364258 22.1171875 -0.0402832 21.81835938 C3.17654898 21.27907801 5.18847588 21.37729086 8.29174805 22.25976562 C7.96174805 23.57976562 7.63174805 24.89976562 7.29174805 26.25976562 C6.6776709 26.33267822 6.06359375 26.40559082 5.4309082 26.48071289 C-7.78166621 27.86831372 -7.78166621 27.86831372 -18.39575195 34.93164062 C-20.91306811 38.51588456 -22.89532337 42.27833407 -24.70825195 46.25976562 C-23.72598633 46.08586304 -23.72598633 46.08586304 -22.72387695 45.90844727 C-19.71902754 45.37766481 -16.71364787 44.8499445 -13.70825195 44.32226562 C-12.67829102 44.13986328 -11.64833008 43.95746094 -10.5871582 43.76953125 C-4.97060465 42.78574002 0.62626407 41.90666584 6.29174805 41.25976562 C6.91674805 43.13476562 6.91674805 43.13476562 7.29174805 45.25976562 C4.49633713 48.05517654 1.48315899 48.02273548 -2.27856445 48.56445312 C-3.83109033 48.81958712 -5.38316283 49.07749245 -6.93481445 49.33789062 C-9.37446393 49.74238197 -11.81172316 50.1317606 -14.26098633 50.47363281 C-24.29884258 51.57999066 -24.29884258 51.57999066 -32.11743164 57.19433594 C-33.31204185 59.3601636 -34.48282168 61.53936097 -35.62573242 63.73291016 C-37.70825195 66.25976562 -37.70825195 66.25976562 -41.28686523 67.04052734 C-44.83388147 67.01270241 -48.20343041 66.79139586 -51.70825195 66.25976562 C-52.71137283 61.36802685 -53.70809117 56.47504288 -54.69897461 51.58081055 C-55.03674759 49.91704382 -55.37624807 48.25362681 -55.7175293 46.59057617 C-56.20860286 44.19605566 -56.69339034 41.80033413 -57.17700195 39.40429688 C-57.33011841 38.66452103 -57.48323486 37.92474518 -57.64099121 37.16255188 C-58.37862959 33.47634772 -58.88909775 30.02200415 -58.70825195 26.25976562 C-57.05825195 25.92976563 -55.40825195 25.59976562 -53.70825195 25.25976562 C-52.74811416 29.55103061 -51.79047394 33.84284937 -50.83325195 38.13476562 C-50.56383789 39.33875 -50.29442383 40.54273438 -50.0168457 41.78320312 C-48.6320169 47.99804457 -47.29074162 54.20954253 -46.13354492 60.47119141 C-45.87038874 62.2724118 -45.87038874 62.2724118 -44.70825195 63.25976562 C-43.52184542 61.58608498 -42.35990846 59.89504496 -41.20825195 58.19726562 C-40.55856445 57.25753906 -39.90887695 56.3178125 -39.23950195 55.34960938 C-35.67840163 48.16381766 -38.59836872 40.16799402 -40.20825195 32.69726562 C-40.68250085 30.48880389 -41.1514311 28.27919194 -41.61450195 26.06835938 C-41.82397461 25.09697021 -42.03344727 24.12558105 -42.24926758 23.12475586 C-42.7301578 20.12302886 -42.78692429 17.29455087 -42.70825195 14.25976562 C-41.38825195 13.92976563 -40.06825195 13.59976562 -38.70825195 13.25976562 C-37.22688877 16.72713651 -36.21781601 20.05419381 -35.4543457 23.74414062 C-35.2397168 24.76121094 -35.02508789 25.77828125 -34.80395508 26.82617188 C-34.58674805 27.87675781 -34.36954102 28.92734375 -34.14575195 30.00976562 C-33.7103322 32.10942822 -33.27170739 34.2084296 -32.8293457 36.30664062 C-32.63783936 37.2331543 -32.44633301 38.15966797 -32.24902344 39.11425781 C-31.91140371 41.22756139 -31.91140371 41.22756139 -30.70825195 42.25976562 C-24.223 34.31824005 -24.223 34.31824005 -21.52075195 24.75195312 C-22.07178642 21.51462562 -22.83487212 18.42370764 -23.70825195 15.25976562 C-23.9535427 13.49367222 -24.16682116 11.72252737 -24.33325195 9.94726562 C-24.45700195 8.73039062 -24.58075195 7.51351563 -24.70825195 6.25976562 C-23.05825195 5.92976563 -21.40825195 5.59976562 -19.70825195 5.25976562 C-18.38825195 9.87976563 -17.06825195 14.49976563 -15.70825195 19.25976562 C-14.82782227 17.88820313 -13.94739258 16.51664062 -13.0402832 15.10351562 C-11.86801472 13.32166753 -10.69478768 11.5404498 -9.52075195 9.75976562 C-8.94260742 8.85355469 -8.36446289 7.94734375 -7.76879883 7.01367188 C-7.19838867 6.15644531 -6.62797852 5.29921875 -6.0402832 4.41601562 C-5.52183838 3.62001953 -5.00339355 2.82402344 -4.46923828 2.00390625 C-2.70825195 0.25976562 -2.70825195 0.25976562 0 0 Z " fill="#006A38" transform="translate(548.708251953125,290.740234375)"/>
<path d="M0 0 C1.65 0 3.3 0 5 0 C8.59434934 6.78932652 11.32365696 13.80458592 14 21 C17.59434934 14.21067348 20.32365696 7.19541408 23 0 C24.98 0 26.96 0 29 0 C27.44040845 4.08444995 25.87677884 8.16734316 24.3125 12.25 C23.87744141 13.38953125 23.44238281 14.5290625 22.99414062 15.703125 C21.67578471 19.14061597 20.33964075 22.57075496 19 26 C18.56864746 27.13244141 18.13729492 28.26488281 17.69287109 29.43164062 C17.27215332 30.50091797 16.85143555 31.57019531 16.41796875 32.671875 C16.04824951 33.62674805 15.67853027 34.58162109 15.29760742 35.56542969 C13.84577011 38.28936604 12.67517731 39.48637571 10 41 C6.25 41.1875 6.25 41.1875 3 41 C3 39.68 3 38.36 3 37 C3.94875 36.7525 4.8975 36.505 5.875 36.25 C9.0094068 35.29631425 9.0094068 35.29631425 10.4375 33.1875 C11.61677543 28.6014289 9.43771058 24.30426533 7.71484375 20.078125 C7.26689453 18.97082031 6.81894531 17.86351562 6.35742188 16.72265625 C5.88884766 15.57667969 5.42027344 14.43070313 4.9375 13.25 C4.00767478 10.96412681 3.0792107 8.6776993 2.15234375 6.390625 C1.5334729 4.8751709 1.5334729 4.8751709 0.90209961 3.32910156 C0 1 0 1 0 0 Z " fill="#C9AA95" transform="translate(418,737)"/>
<path d="M0 0 C3.29825768 1.31930307 4.61417695 2.17762283 6.12890625 5.40625 C7.34556175 10.42563591 7.21126326 15.23238274 7.125 20.375 C7.11597656 21.39722656 7.10695313 22.41945313 7.09765625 23.47265625 C7.0742043 25.98201522 7.04138355 28.49088336 7 31 C5.35 31 3.7 31 2 31 C1.505 18.625 1.505 18.625 1 6 C-2.3 6 -5.6 6 -9 6 C-12.16297245 10.21229428 -12.16297245 10.21229428 -12.51171875 14.984375 C-12.54716797 15.91894531 -12.58261719 16.85351562 -12.61914062 17.81640625 C-12.64169922 18.78449219 -12.66425781 19.75257813 -12.6875 20.75 C-12.72166016 21.73355469 -12.75582031 22.71710937 -12.79101562 23.73046875 C-12.87335273 26.15353199 -12.94254838 28.57623998 -13 31 C-14.32 31 -15.64 31 -17 31 C-17 21.1 -17 11.2 -17 1 C-15.68 1 -14.36 1 -13 1 C-12.67 1.99 -12.34 2.98 -12 4 C-11.319375 3.34 -10.63875 2.68 -9.9375 2 C-6.26383061 -0.50122172 -4.36916255 -0.54614532 0 0 Z " fill="#C2A891" transform="translate(413,736)"/>
<path d="M0 0 C3.05865206 0.22783256 3.91449732 0.55922871 6.4375 2.5 C9.72676511 6.97340055 9.49351265 11.21337857 9 16.625 C6.97368421 21.13815789 6.97368421 21.13815789 4 22.625 C-2.26519337 23.2051105 -2.26519337 23.2051105 -5.375 20.75 C-8.77044913 16.30979729 -8.57310862 12.05707302 -8 6.625 C-6.16702779 2.19531715 -4.78957806 0.28594496 0 0 Z " fill="#04693A" transform="translate(303,740.375)"/>
<path d="M0 0 C2.96405272 0.83942899 4.1570946 2.11728197 6 4.56640625 C6.53125 7.625 6.53125 7.625 6.5 11.00390625 C6.5103125 12.11636719 6.520625 13.22882812 6.53125 14.375 C5.89222355 18.21385741 4.79225401 19.88721886 2 22.56640625 C-0.7768023 23.48839139 -3.17230168 23.25015297 -6 22.56640625 C-8.5 20.81640625 -8.5 20.81640625 -10 17.56640625 C-10.72194834 12.12171248 -10.82315658 7.34991218 -8.5 2.31640625 C-5.48348644 0.20484676 -3.60546254 0.00704192 0 0 Z " fill="#026839" transform="translate(527,740.43359375)"/>
<path d="M0 0 C2.56677216 2.35190662 2.97923739 3.84138114 3.43359375 7.3125 C3.43552734 9.1378125 3.43552734 9.1378125 3.4375 11 C3.46650391 12.8253125 3.46650391 12.8253125 3.49609375 14.6875 C3 18 3 18 1.19140625 20.40625 C-2.00626939 22.73183228 -4.14743773 22.55036604 -8 22 C-10.36497439 20.13291495 -11.66030715 18.67938569 -13 16 C-13.43008598 11.3269504 -13.56413789 7.25648894 -11.625 2.9375 C-8.61969042 -0.64575373 -4.43565571 -0.95739896 0 0 Z " fill="#04693A" transform="translate(487,741)"/>
<path d="M0 0 C2.93744986 2.25957682 3.84599624 3.94261334 4.37890625 7.6015625 C4.56331969 12.01558737 4.43039023 15.13921954 2.4375 19.125 C-0.77973311 21.5997947 -2.96136672 22 -7 22 C-9.1875 21.03125 -9.1875 21.03125 -11 19 C-11.40610815 16.0139107 -11.55963414 13.4767377 -11.5 10.5 C-11.51546875 9.72785156 -11.5309375 8.95570313 -11.546875 8.16015625 C-11.50811789 2.56944246 -11.50811789 2.56944246 -9.1875 -0.03125 C-5.76753638 -1.54580532 -3.54282112 -1.01223461 0 0 Z " fill="#076A3B" transform="translate(507,741)"/>
<path d="M0 0 C3.25850118 3.25850118 3.92992019 5.36928173 4.4375 9.9375 C4.22758445 14.13581097 3.06108333 18.93891667 0 22 C-7.52238806 22.23880597 -7.52238806 22.23880597 -10 21 C-10 14.4 -10 7.8 -10 1 C-6.76483852 -0.61758074 -3.48594654 -0.70958991 0 0 Z " fill="#036939" transform="translate(366,741)"/>
<path d="M0 0 C-0.16242188 0.53882813 -0.32484375 1.07765625 -0.4921875 1.6328125 C-1.88302234 8.11624258 -1.43081106 15.56135024 0 22 C-9.14166085 22.62805304 -9.14166085 22.62805304 -12.5625 20.125 C-15.80099752 15.33765584 -15.6843666 10.6541717 -15 5 C-11.36822823 -1.17401201 -6.45893172 -0.56437267 0 0 Z " fill="#05693A" transform="translate(292,741)"/>
<path d="M0 0 C1.32 0 2.64 0 4 0 C4 13.53 4 27.06 4 41 C2.68 41 1.36 41 0 41 C0 27.47 0 13.94 0 0 Z " fill="#D3AD99" transform="translate(458,726)"/>
<path d="M0 0 C1.49080078 0.02707031 1.49080078 0.02707031 3.01171875 0.0546875 C3.77097656 0.07789063 4.53023438 0.10109375 5.3125 0.125 C5.6449874 3.69923953 5.49458328 5.76083344 3.875 9 C0.5787908 11.73344178 -1.50234379 11.64905523 -5.6640625 11.59375 C-7.6875 11.125 -7.6875 11.125 -9.6875 8.125 C-9.5 5.0625 -9.5 5.0625 -8.6875 2.125 C-5.26655758 -0.15562828 -4.00562778 -0.09425007 0 0 Z " fill="#066A3B" transform="translate(383.6875,751.875)"/>
<path d="M0 0 C1.32 0 2.64 0 4 0 C4.33 0.99 4.66 1.98 5 3 C6.32 2.34 7.64 1.68 9 1 C8.35546875 2.093125 7.7109375 3.18625 7.046875 4.3125 C4.46705625 9.47213749 4.33627111 14.3139494 4.25 20 C4.22035156 20.96550781 4.19070313 21.93101562 4.16015625 22.92578125 C4.09011209 25.28393466 4.03709708 27.64113746 4 30 C2.68 30 1.36 30 0 30 C0 20.1 0 10.2 0 0 Z " fill="#D2AD99" transform="translate(396,737)"/>
<path d="M0 0 C1.60488281 -0.03867187 1.60488281 -0.03867187 3.2421875 -0.078125 C6.125 0.25 6.125 0.25 8.0078125 1.515625 C9.125 3.25 9.125 3.25 9.125 7.25 C4.505 7.58 -0.115 7.91 -4.875 8.25 C-5.535 5.94 -6.195 3.63 -6.875 1.25 C-5.07228218 -0.55271782 -2.43091251 0.03497716 0 0 Z " fill="#05693A" transform="translate(379.875,740.75)"/>
<path d="M0 0 C0 1.32 0 2.64 0 4 C-1 5 -1 5 -3.77563477 5.11352539 C-4.98533936 5.10828857 -6.19504395 5.10305176 -7.44140625 5.09765625 C-8.74658203 5.09443359 -10.05175781 5.09121094 -11.39648438 5.08789062 C-12.7851569 5.07953401 -14.17382877 5.07106905 -15.5625 5.0625 C-16.95507656 5.05748666 -18.34765481 5.05292347 -19.74023438 5.04882812 C-23.1601987 5.03699434 -26.58007844 5.0205088 -30 5 C-30 4.67 -30 4.34 -30 4 C-25.94072539 3.12999569 -21.87719373 2.28179176 -17.8125 1.4375 C-16.66201172 1.19064453 -15.51152344 0.94378906 -14.32617188 0.68945312 C-13.21435547 0.46064453 -12.10253906 0.23183594 -10.95703125 -0.00390625 C-9.93585205 -0.21861572 -8.91467285 -0.4333252 -7.86254883 -0.65454102 C-4.9448307 -1.00665796 -2.82451657 -0.74639836 0 0 Z " fill="#006B38" transform="translate(551,352)"/>
</svg>
