<?xml version="1.0" encoding="UTF-8"?>
<svg version="1.1" xmlns="http://www.w3.org/2000/svg" width="794" height="1123">
<path d="M0 0 C1 2 1 2 0.24316406 4.546875 C-0.36446777 6.13242187 -0.36446777 6.13242187 -0.984375 7.75 C-1.64566406 9.49990234 -1.64566406 9.49990234 -2.3203125 11.28515625 C-2.79210937 12.51105469 -3.26390625 13.73695313 -3.75 15 C-6.77935293 22.93279709 -9.72255375 30.8143961 -12 39 C-11.24114502 38.83991455 -10.48229004 38.6798291 -9.70043945 38.51489258 C1.99982595 36.28400389 12.84946566 38.64617669 24 42 C24.77988281 42.21527344 25.55976563 42.43054688 26.36328125 42.65234375 C37.86639029 46.29618574 49.29823549 55.37774249 54.875 66.0625 C60.28607374 78.01044134 60.14971637 90.20946238 60.17700195 103.12182617 C60.18328401 104.50633914 60.18993227 105.89085049 60.19691467 107.27536011 C60.21774469 111.78121818 60.22829485 116.28707581 60.23828125 120.79296875 C60.24233623 122.35619943 60.24645335 123.91942994 60.25063133 125.48266029 C60.2696341 132.82961136 60.28387713 140.17655267 60.2922433 147.52352351 C60.30200744 155.95429723 60.32832616 164.38480786 60.36874419 172.81548899 C60.39905761 179.36707644 60.41372635 185.91858906 60.41702431 192.47024518 C60.41935669 196.36745644 60.42807806 200.26438509 60.45348549 204.16152 C60.71544831 246.53861662 60.71544831 246.53861662 45.125 263.625 C40.76920131 267.80870311 36.37475523 270.82210305 31 273.5625 C30.3723877 273.88492676 29.74477539 274.20735352 29.09814453 274.53955078 C20.09089332 278.79112067 10.40663652 279.29832852 0.59350586 279.24291992 C-0.48753418 279.24481827 -1.56857422 279.24671661 -2.68237305 279.24867249 C-6.21671045 279.25234492 -9.75083747 279.24173159 -13.28515625 279.23046875 C-15.75329057 279.22927545 -18.22142534 279.2288241 -20.68955994 279.2290802 C-25.84116491 279.22752177 -30.99269976 279.21927695 -36.14428711 279.20581055 C-42.75883122 279.18874115 -49.37329902 279.18499884 -55.98786259 279.18575573 C-61.07403801 279.1854845 -66.16019664 279.18001211 -71.2463665 279.17275429 C-73.68691315 279.16956652 -76.12746171 279.16759996 -78.56801033 279.16686058 C-81.96472584 279.16470273 -85.36135876 279.15597288 -88.75805664 279.14526367 C-89.77151657 279.14571686 -90.7849765 279.14617004 -91.82914734 279.14663696 C-92.74997101 279.14237198 -93.67079468 279.13810699 -94.61952209 279.13371277 C-95.42194367 279.13203692 -96.22436525 279.13036108 -97.05110264 279.12863445 C-99 279 -99 279 -101 278 C-101.09295498 265.29931487 -101.16389419 252.59871156 -101.20724869 239.89775467 C-101.22806373 233.99925919 -101.25626996 228.10099762 -101.30175781 222.20263672 C-101.34543278 216.50324984 -101.36918279 210.804087 -101.37950897 205.10454559 C-101.38686159 202.93738024 -101.40121893 200.77022621 -101.42292023 198.60315704 C-101.63202237 176.84383121 -101.63202237 176.84383121 -97 167 C-96.22269531 165.30810547 -96.22269531 165.30810547 -95.4296875 163.58203125 C-94.91664063 162.66808594 -94.40359375 161.75414062 -93.875 160.8125 C-93.27300781 159.73484375 -92.67101562 158.6571875 -92.05078125 157.546875 C-88.89824468 152.06609608 -85.68970439 146.61814116 -82.46484375 141.1796875 C-80.30938198 137.53835762 -78.20897365 133.87019772 -76.125 130.1875 C-72.76679073 124.28498555 -69.30631661 118.44820549 -65.8125 112.625 C-65.31314941 111.79250732 -64.81379883 110.96001465 -64.29931641 110.10229492 C-62.87235632 107.73107189 -61.43816156 105.36444358 -60 103 C-59.52481934 102.21463867 -59.04963867 101.42927734 -58.56005859 100.62011719 C-58.11098145 99.88696289 -57.6619043 99.15380859 -57.19921875 98.3984375 C-56.79920654 97.74278809 -56.39919434 97.08713867 -55.98706055 96.41162109 C-55.49846558 95.71286865 -55.49846558 95.71286865 -55 95 C-54.67 95 -54.34 95 -54 95 C-53.99668985 95.70660609 -53.99337971 96.41321218 -53.98996925 97.14123058 C-53.90875046 114.3341713 -53.81666167 131.52701935 -53.71247292 148.71983624 C-53.66235018 157.03415271 -53.61590721 165.34845933 -53.578125 173.6628418 C-53.54518487 180.90961805 -53.50534246 188.15631785 -53.45720994 195.40300971 C-53.43196504 199.24010722 -53.41017784 203.07715414 -53.39665604 206.91431236 C-53.38381742 210.52665218 -53.3617437 214.13881832 -53.33261681 217.75106239 C-53.31923736 219.70742065 -53.315623 221.66383807 -53.31230164 223.62023926 C-53.30113815 224.78826584 -53.28997467 225.95629242 -53.2784729 227.15971375 C-53.27294214 228.17276423 -53.26741138 229.18581472 -53.26171303 230.22956371 C-52.98218173 233.18862023 -52.33536216 235.35062611 -51 238 C-47.65730421 239.6713479 -43.89854125 239.16316753 -40.22265625 239.16796875 C-39.34153671 239.17129715 -38.46041718 239.17462555 -37.55259705 239.17805481 C-35.68049644 239.18312657 -33.80838677 239.18546306 -31.9362793 239.18530273 C-29.10514804 239.18746739 -26.2744205 239.20555915 -23.44335938 239.22460938 C-6.83951589 239.99162134 -6.83951589 239.99162134 8 234 C14.30919557 226.85572029 13.3043443 215.08407453 13.35058594 206.05615234 C13.36384415 204.9292952 13.37710236 203.80243805 13.39076233 202.64143372 C13.43148775 198.95629308 13.45847364 195.27120989 13.484375 191.5859375 C13.50820202 189.00387082 13.53256386 186.42180904 13.55743408 183.8397522 C13.60717435 178.44528072 13.65017883 173.05081668 13.68798828 167.65625 C13.73166167 161.44399308 13.78977608 155.23199279 13.85523582 149.01993024 C13.91810428 143.00895145 13.96917709 136.99793758 14.01544952 130.98680496 C14.03626806 128.44398891 14.06020954 125.90119636 14.08739471 123.3584404 C14.1240173 119.80063915 14.14720031 116.24298812 14.16699219 112.68505859 C14.18039139 111.64582748 14.19379059 110.60659637 14.20759583 109.53587341 C14.23606848 99.47004109 13.18040175 90.40993168 6.875 82.25 C0.94317185 77.60769971 -6.89913492 77.69327656 -14.19140625 77.5859375 C-15.02212143 77.56657135 -15.85283661 77.5472052 -16.70872498 77.5272522 C-19.32655002 77.46812385 -21.94442066 77.42134196 -24.5625 77.375 C-26.35223127 77.33675857 -28.14194536 77.2977034 -29.93164062 77.2578125 C-34.28761852 77.16247857 -38.64368231 77.07820581 -43 77 C-41.81890188 73.94156359 -40.56267812 71.03647667 -38.96875 68.171875 C-38.57526367 67.46297119 -38.18177734 66.75406738 -37.77636719 66.02368164 C-37.14456543 64.89820923 -37.14456543 64.89820923 -36.5 63.75 C-36.06075195 62.96294678 -35.62150391 62.17589355 -35.16894531 61.36499023 C-31.69011705 55.16066717 -28.09910343 49.0264717 -24.47290039 42.9074707 C-21.73577149 38.28027771 -19.10636034 33.60965973 -16.55859375 28.875 C-11.27008281 19.11975175 -5.79945396 9.46106999 0 0 Z " fill="#FFFFFF" transform="translate(436,568)"/>
<path d="M0 0 C3.40244855 4.89952591 3.81333646 9.75621386 3.82078552 15.59933472 C3.82446123 16.31752195 3.82813693 17.03570919 3.83192402 17.77565968 C3.84186589 20.1706628 3.83776087 22.56543199 3.83374023 24.96044922 C3.83812949 26.68232468 3.84343238 28.40419803 3.84957886 30.12606812 C3.86106452 33.82883883 3.86653723 37.53155243 3.86746025 41.23434067 C3.8694036 47.09273211 3.8874714 52.9510057 3.90821838 58.80935669 C3.9573706 73.36070521 3.98828284 87.91208569 4.00952148 102.46350098 C4.02605329 113.77289494 4.04889116 125.08218772 4.09254223 136.39151394 C4.11429267 142.21158791 4.12237885 148.03146953 4.12014949 153.85158134 C4.12181947 157.47719247 4.1358879 161.10267864 4.15336227 164.72824478 C4.15894844 166.40516499 4.15945933 168.08211125 4.15442467 169.7590332 C3.95359739 181.37196025 3.95359739 181.37196025 7.5625 192.25 C15.98139557 200.25821773 28.11841817 198.43651301 39.03149414 198.43530273 C41.25621214 198.43750615 43.48044624 198.45577522 45.70507812 198.47460938 C47.14062333 198.47754145 48.57617085 198.47952749 50.01171875 198.48046875 C51.29393311 198.48457764 52.57614746 198.48868652 53.8972168 198.49291992 C60.12547087 198.08013681 65.1426746 196.79610612 69.5625 192.25 C72.44430845 185.76593099 72.68659248 178.76705998 72.70053101 171.76022339 C72.70476293 170.67848585 72.70476293 170.67848585 72.70908034 169.57489502 C72.71736486 167.1760582 72.71875923 164.77726789 72.72021484 162.37841797 C72.72488736 160.65152864 72.73003164 158.92464054 72.73561096 157.19775391 C72.74685916 153.48791495 72.75530884 149.77808388 72.76173019 146.06823349 C72.77243656 140.20220725 72.79268608 134.33623811 72.81484985 128.47024536 C72.87669321 111.7928528 72.93084043 95.11546471 72.96386719 78.43798828 C72.98220059 69.22045296 73.01111397 60.00301443 73.0518719 50.78555024 C73.07295082 45.91006745 73.08840056 41.03470663 73.09067917 36.15917587 C73.09282334 31.57738615 73.1086689 26.99585101 73.13506889 22.41413879 C73.14227019 20.73273751 73.14435884 19.05130541 73.14096642 17.36989212 C73.13707541 15.07489572 73.15151299 12.78071397 73.17050171 10.48580933 C73.17381186 9.2016255 73.177122 7.91744167 73.18053246 6.59434319 C73.59240588 2.98815702 74.32673183 1.08707524 76.5625 -1.75 C80.40967569 -3.0323919 84.05288204 -2.91243489 88.0625 -2.91796875 C89.31063477 -2.92296135 89.31063477 -2.92296135 90.58398438 -2.92805481 C92.3424423 -2.93311508 94.10090981 -2.93546341 95.859375 -2.93530273 C98.55224348 -2.93749166 101.24470387 -2.95566335 103.9375 -2.97460938 C105.64583193 -2.97754297 107.35416581 -2.97952799 109.0625 -2.98046875 C110.27196289 -2.99124702 110.27196289 -2.99124702 111.50585938 -3.00224304 C115.38361442 -2.98635444 117.26077443 -2.95115038 120.5625 -0.75 C120.94002342 1.18886662 120.94002342 1.18886662 120.94345093 3.60597229 C120.9519104 4.52127213 120.96036987 5.43657196 120.96908569 6.37960815 C120.95997665 7.89048508 120.95997665 7.89048508 120.95068359 9.43188477 C120.95856903 11.01997704 120.95856903 11.01997704 120.96661377 12.64015198 C120.97986871 16.15738478 120.97105168 19.67416843 120.9609375 23.19140625 C120.9629577 25.6332152 120.96586869 28.07502356 120.96963501 30.51683044 C120.97406668 35.64579996 120.96760402 40.77461308 120.95361328 45.90356445 C120.93658429 52.4650991 120.94631752 59.02626393 120.96433067 65.58778477 C120.97519972 70.63653825 120.97170672 75.68520493 120.9639473 80.73396111 C120.96195063 83.15197735 120.96438576 85.57000156 120.97138596 87.9880085 C120.97904442 91.37966706 120.96733128 94.77073841 120.95068359 98.16235352 C120.95675629 99.15543518 120.96282898 100.14851685 120.96908569 101.17169189 C120.89226819 109.66244893 119.01117502 116.56540926 114.3125 123.6875 C110.09726943 130.3092158 106.15884294 137.06817958 102.25 143.875 C101.27051392 145.57765015 101.27051392 145.57765015 100.27124023 147.31469727 C98.36713597 150.62578211 96.46469679 153.93781906 94.5625 157.25 C88.41447056 167.94657154 82.20808446 178.5989258 75.79614258 189.14013672 C72.7571602 194.16106412 69.90496551 199.25740505 67.11401367 204.41992188 C64.46446809 209.25289315 61.66573398 213.9976178 58.875 218.75 C57.63125048 220.87484787 56.38776369 222.99984955 55.14453125 225.125 C54.53561035 226.16527344 53.92668945 227.20554687 53.29931641 228.27734375 C50.87444574 232.42764248 48.46732353 236.58806528 46.0625 240.75 C45.18759265 242.26047034 44.31259059 243.77088582 43.4375 245.28125 C41.88054632 247.96932387 40.32695224 250.6592449 38.77734375 253.3515625 C36.8765931 256.65348252 34.96986136 259.95189524 33.0625 263.25 C32.46244141 264.29607422 31.86238281 265.34214844 31.24414062 266.41992188 C30.67888672 267.39509766 30.11363281 268.37027344 29.53125 269.375 C29.03044922 270.24382812 28.52964844 271.11265625 28.01367188 272.0078125 C26.68792264 274.05621105 25.36063092 275.61484974 23.5625 277.25 C24.23647322 273.19055289 25.48609734 269.60081839 26.99609375 265.77734375 C27.23409195 265.17241592 27.47209015 264.5674881 27.71730042 263.94422913 C28.2188202 262.6719189 28.72235046 261.40039952 29.2277832 260.12963867 C29.99831097 258.19174795 30.76236 256.25140013 31.52539062 254.31054688 C35.59100622 244.0158455 35.59100622 244.0158455 37.5625 240.25 C36.36258423 240.27356567 36.36258423 240.27356567 35.13842773 240.29760742 C12.98856296 240.67540648 -7.58871811 240.66163327 -26.4375 227.25 C-26.4375 226.59 -26.4375 225.93 -26.4375 225.25 C-27.02660156 225.00121094 -27.61570313 224.75242187 -28.22265625 224.49609375 C-35.42164686 220.44586799 -40.00951597 210.84313357 -42.4375 203.25 C-44.75207567 193.19136981 -44.72852432 183.25173793 -44.7121582 173.00048828 C-44.71651329 171.18581433 -44.72169908 169.37114221 -44.72764587 167.55647278 C-44.74095342 162.66228752 -44.74162438 157.76817985 -44.73908257 152.87398005 C-44.73800842 148.78060157 -44.74290696 144.68723852 -44.747688 140.59386337 C-44.75875208 130.94049337 -44.75923642 121.28716232 -44.75317383 111.63378906 C-44.74711987 101.68159079 -44.75948815 91.72953338 -44.7807439 81.77735913 C-44.79835241 73.21742482 -44.80436291 64.65753541 -44.80110615 56.09758365 C-44.79929383 50.99129767 -44.80192557 45.88511246 -44.81582069 40.77884293 C-44.82838413 35.98361811 -44.82646904 31.18861394 -44.81340981 26.39339256 C-44.81104221 24.6349893 -44.81378528 22.87657056 -44.82203293 21.11818504 C-44.83248547 18.71656458 -44.82441253 16.31568682 -44.8117218 13.91409302 C-44.81909609 13.21993007 -44.82647037 12.52576712 -44.83406812 11.81056893 C-44.78343236 7.25064415 -43.82705412 4.12675318 -41.4375 0.25 C-31.4926012 -5.81109217 -9.59315333 -6.88739214 0 0 Z " fill="#FFFFFF" transform="translate(248.4375,555.75)"/>
<path d="M0 0 C0.33 0.66 0.66 1.32 1 2 C-0.22265625 4.43359375 -0.22265625 4.43359375 -2.0625 7.4375 C-5.56538471 13.19388166 -8.79914775 19.07043962 -12 25 C-12.51264404 25.9485083 -13.02528809 26.8970166 -13.5534668 27.87426758 C-14.60005185 29.81165394 -15.64627125 31.74923787 -16.69213867 33.68701172 C-21.6604337 42.88700356 -26.67235928 52.05615042 -31.828125 61.15234375 C-33.37616022 63.88546077 -34.90455695 66.628617 -36.421875 69.37890625 C-40.59521102 76.94282351 -44.82929554 84.45244892 -49.25 91.875 C-51.93558769 96.39120729 -54.52119455 100.89191532 -56.8125 105.625 C-59.78972618 111.7671285 -63.13875743 117.68575357 -66.5 123.625 C-67.0463208 124.59131348 -67.5926416 125.55762695 -68.15551758 126.55322266 C-71.26923549 132.03250581 -74.46159091 137.45619846 -77.71826172 142.8515625 C-79.15568637 145.26096001 -80.5033013 147.70625674 -81.8125 150.1875 C-85.99837168 157.93790303 -90.62102912 165.42678384 -95.18652344 172.95703125 C-96.35544386 174.88686183 -97.52150882 176.81839862 -98.6875 178.75 C-99.03143799 179.31493164 -99.37537598 179.87986328 -99.72973633 180.46191406 C-101.86561647 184.00099722 -103.87922521 187.59148757 -105.84765625 191.2265625 C-109.03027373 197.09691324 -112.37180259 202.86551199 -115.75 208.625 C-116.36488281 209.67623047 -116.97976563 210.72746094 -117.61328125 211.81054688 C-121.4565525 218.37780684 -125.31069156 224.93867815 -129.17529297 231.4934082 C-131.56369253 235.54731324 -133.93879848 239.60869252 -136.3046875 243.67578125 C-143.77130074 256.51101925 -151.31946922 269.29151487 -159 282 C-159.33 281.34 -159.66 280.68 -160 280 C-158.7421875 277.53125 -158.7421875 277.53125 -156.875 274.5 C-154.61647043 270.81656121 -152.54466736 267.14347605 -150.63671875 263.265625 C-147.94141276 257.8053245 -144.96392776 252.53214177 -141.9375 247.25 C-137.47715112 239.4193975 -133.09896792 231.55206797 -128.8125 223.625 C-124.8420798 216.29153819 -120.7633177 209.04192205 -116.47192383 201.89111328 C-111.39801612 193.41506697 -106.81449587 184.66496466 -102.15527344 175.95678711 C-92.22624565 157.42100257 -81.93022399 139.11273533 -71.20166016 121.02832031 C-69.12560511 117.52408111 -67.06362352 114.01156927 -65 110.5 C-62.47957712 106.21305938 -59.95761185 101.92705359 -57.4296875 97.64453125 C-52.94284347 90.03904415 -48.50440154 82.4106855 -44.1328125 74.73828125 C-31.75046314 53.01871446 -31.75046314 53.01871446 -25.65332031 43.64013672 C-24.09065711 41.14476758 -22.67037906 38.62252101 -21.28125 36.02734375 C-17.73474533 29.47513103 -14.03453219 23.01623139 -10.3125 16.5625 C-9.64252909 15.39390832 -8.97260701 14.22528864 -8.30273438 13.05664062 C-7.34270508 11.39084961 -7.34270508 11.39084961 -6.36328125 9.69140625 C-5.78876221 8.69310791 -5.21424316 7.69480957 -4.62231445 6.66625977 C-3.19637039 4.32273303 -1.69152267 2.15642726 0 0 Z " fill="#EF4236" transform="translate(439,551)"/>
<path d="M0 0 C20 0 20 0 26 4 C28.80057797 8.28401951 29.38346426 11.65066373 29.3984375 16.71875 C29.40423828 18.61173828 29.40423828 18.61173828 29.41015625 20.54296875 C29.39855469 21.84878906 29.38695312 23.15460937 29.375 24.5 C29.38660156 25.80582031 29.39820313 27.11164062 29.41015625 28.45703125 C29.40628906 29.71902344 29.40242188 30.98101563 29.3984375 32.28125 C29.39505371 33.42658203 29.39166992 34.57191406 29.38818359 35.75195312 C28.84559813 40.29192608 27.40968521 43.72247278 24 46.8125 C16.29524045 51.38720098 10.48649726 49 0 49 C0 32.83 0 16.66 0 0 Z M7 7 C7 18.55 7 30.1 7 42 C17.07549967 43.01695036 17.07549967 43.01695036 21 40 C22.66134997 35.01595008 22.22649351 29.84344065 22.25 24.625 C22.270625 23.48804688 22.29125 22.35109375 22.3125 21.1796875 C22.31765625 20.08140625 22.3228125 18.983125 22.328125 17.8515625 C22.3374707 16.84947754 22.34681641 15.84739258 22.35644531 14.81494141 C22.12122302 11.44138461 22.12122302 11.44138461 19 7 C15.04 7 11.08 7 7 7 Z " fill="#FFFFFF" transform="translate(380,878)"/>
<path d="M0 0 C2.64 0 5.28 0 8 0 C8.01401855 1.748573 8.01401855 1.748573 8.02832031 3.5324707 C8.06817182 7.8546378 8.13391648 12.17608942 8.20751953 16.49780273 C8.23575737 18.36880304 8.2569579 20.23992326 8.27099609 22.11108398 C8.29238717 24.79994221 8.33901545 27.48735438 8.390625 30.17578125 C8.39185364 31.01337479 8.39308228 31.85096832 8.39434814 32.71394348 C8.47163043 37.30003631 8.47163043 37.30003631 10.84277344 41.06323242 C13.89413535 42.38827494 15.84771628 41.89086279 19 41 C22.05080946 37.94919054 21.35788708 34.37189221 21.4140625 30.2734375 C21.43342865 29.41062164 21.4527948 28.54780579 21.4727478 27.65884399 C21.53262204 24.89766384 21.57895998 22.13644216 21.625 19.375 C21.66317259 17.50518995 21.70222389 15.63539762 21.7421875 13.765625 C21.83832992 9.17722691 21.92233166 4.58874649 22 0 C24.31 0 26.62 0 29 0 C29.07436251 5.58672194 29.12870254 11.17315339 29.16479492 16.76025391 C29.17984691 18.65939353 29.20029316 20.55849859 29.22631836 22.45751953 C29.26285992 25.19312081 29.27976238 27.928261 29.29296875 30.6640625 C29.30845261 31.50804596 29.32393646 32.35202942 29.33988953 33.22158813 C29.34130908 38.23575064 28.78917783 41.6569055 26 46 C22.38369793 48.89548511 19.57739732 49.4100311 15 49.375 C13.989375 49.38273438 12.97875 49.39046875 11.9375 49.3984375 C8.58741061 48.94403708 6.71694978 47.98071339 4 46 C-0.05459964 40.35252194 -0.14199587 35.29106535 -0.09765625 28.515625 C-0.0962413 27.70003113 -0.09482635 26.88443726 -0.09336853 26.04412842 C-0.08778303 23.44604788 -0.07523321 20.84805437 -0.0625 18.25 C-0.05748312 16.48567833 -0.05292054 14.72135531 -0.04882812 12.95703125 C-0.03781835 8.63798744 -0.02056369 4.31900846 0 0 Z " fill="#EF4336" transform="translate(203,878)"/>
<path d="M0 0 C3.10501256 1.84622368 3.83621763 2.50865288 5 6 C5.2572155 9.78730343 5.23135079 13.57988486 5.25 17.375 C5.270625 18.4165625 5.29125 19.458125 5.3125 20.53125 C5.3617773 30.16496279 5.3617773 30.16496279 2 34 C-0.36613456 35.18306728 -1.86780736 35.13354608 -4.5 35.125 C-5.2940625 35.12757813 -6.088125 35.13015625 -6.90625 35.1328125 C-9 35 -9 35 -11 34 C-11.06058594 35.07121094 -11.12117188 36.14242187 -11.18359375 37.24609375 C-11.26798537 38.64324391 -11.35263406 40.04037857 -11.4375 41.4375 C-11.47681641 42.14455078 -11.51613281 42.85160156 -11.55664062 43.58007812 C-11.88671875 48.88671875 -11.88671875 48.88671875 -13 50 C-14.98 50 -16.96 50 -19 50 C-19 33.5 -19 17 -19 0 C-16.69 0 -14.38 0 -12 0 C-11.67 0.66 -11.34 1.32 -11 2 C-10.29875 1.484375 -9.5975 0.96875 -8.875 0.4375 C-5.31068305 -1.34465847 -3.77560114 -1.12464715 0 0 Z M-12 8 C-12.44360072 10.95852109 -12.32412652 13.94948451 -12.3125 16.9375 C-12.32861328 17.76185547 -12.34472656 18.58621094 -12.36132812 19.43554688 C-12.36197266 20.22896484 -12.36261719 21.02238281 -12.36328125 21.83984375 C-12.36626221 22.56550537 -12.36924316 23.29116699 -12.37231445 24.03881836 C-11.8908557 26.57492209 -11.05446772 27.47335164 -9 29 C-5.90351124 29.16448881 -5.90351124 29.16448881 -3 28 C-1.13966885 24.46599299 -0.72775771 21.45912759 -0.75 17.5 C-0.74484375 16.5821875 -0.7396875 15.664375 -0.734375 14.71875 C-1.0443451 11.54611483 -1.67066075 8.32933925 -4 6 C-8.49885769 5.53277305 -8.49885769 5.53277305 -12 8 Z " fill="#FFFFFF" transform="translate(477,892)"/>
<path d="M0 0 C2.31 0 4.62 0 7 0 C7.33 5.28 7.66 10.56 8 16 C9.65 15.01 11.3 14.02 13 13 C16.7377856 13.07628134 18.43587903 13.52735811 21.3125 15.9375 C25.95185834 21.60782686 25.31208582 31.03852354 24.7578125 38.07421875 C24.138366 41.70939162 23.32839602 44.44829468 21.4375 47.625 C17.70322189 49.73151586 14.18374984 49.27737568 10 49 C9.01 49 8.02 49 7 49 C4.69 49 2.38 49 0 49 C0 32.83 0 16.66 0 0 Z M7 22 C6.55639928 24.95852109 6.67587348 27.94948451 6.6875 30.9375 C6.67138672 31.76185547 6.65527344 32.58621094 6.63867188 33.43554688 C6.63802734 34.22896484 6.63738281 35.02238281 6.63671875 35.83984375 C6.63373779 36.56550537 6.63075684 37.29116699 6.62768555 38.03881836 C7.1091443 40.57492209 7.94553228 41.47335164 10 43 C13.09648876 43.16448881 13.09648876 43.16448881 16 42 C17.86033115 38.46599299 18.27224229 35.45912759 18.25 31.5 C18.25515625 30.5821875 18.2603125 29.664375 18.265625 28.71875 C17.9556549 25.54611483 17.32933925 22.32933925 15 20 C10.50114231 19.53277305 10.50114231 19.53277305 7 22 Z " fill="#EF4336" transform="translate(266,878)"/>
<path d="M0 0 C2.70552388 2.19823815 4.44778333 3.89556667 6 7 C6.08543895 9.10528933 6.10714725 11.21331157 6.09765625 13.3203125 C6.09443359 14.57714844 6.09121094 15.83398438 6.08789062 17.12890625 C6.07951172 18.44761719 6.07113281 19.76632812 6.0625 21.125 C6.05748489 22.46484211 6.05292201 23.804686 6.04882812 25.14453125 C6.03701086 28.42973206 6.02053617 31.71484397 6 35 C2.66666667 35 -0.66666667 35 -4 35 C-4.69996094 35.02320313 -5.39992188 35.04640625 -6.12109375 35.0703125 C-6.88550781 35.08835937 -7.64992188 35.10640625 -8.4375 35.125 C-9.58025391 35.15980469 -9.58025391 35.15980469 -10.74609375 35.1953125 C-13.28552996 34.97525737 -14.83451318 34.32099414 -17 33 C-19.69471426 29.49687146 -19.5463801 25.2281414 -19 21 C-17.75793685 18.14325476 -16.87080024 16.55980016 -14.25 14.875 C-11.45701815 13.78884039 -9.23769446 13.80386442 -6.25 13.875 C-5.26515625 13.89304687 -4.2803125 13.91109375 -3.265625 13.9296875 C-2.14414062 13.96449219 -2.14414062 13.96449219 -1 14 C-1.66 11.69 -2.32 9.38 -3 7 C-6.01031744 6.06576355 -6.86650268 5.95550089 -10 7 C-10.33 7.66 -10.66 8.32 -11 9 C-13.9375 8.625 -13.9375 8.625 -17 8 C-17.33 7.34 -17.66 6.68 -18 6 C-13.13886405 -0.84159874 -8.00110529 -2.29017144 0 0 Z M-12 22 C-12.16681109 25.08347826 -12.16681109 25.08347826 -12 28 C-7.66072031 29.83695434 -7.66072031 29.83695434 -3.125 29.125 C-2.42375 28.75375 -1.7225 28.3825 -1 28 C-1 25.36 -1 22.72 -1 20 C-2.45792884 19.94600264 -3.91642712 19.90720823 -5.375 19.875 C-6.59316406 19.84019531 -6.59316406 19.84019531 -7.8359375 19.8046875 C-10.21342243 19.78629949 -10.21342243 19.78629949 -12 22 Z " fill="#EF4236" transform="translate(316,892)"/>
<path d="M0 0 C2.8406139 2.75656268 3.91359097 4.36795978 4.45410156 8.3215332 C4.42268066 10.16751099 4.42268066 10.16751099 4.390625 12.05078125 C4.38496521 12.70958786 4.37930542 13.36839447 4.37347412 14.04716492 C4.35121239 16.13637216 4.3010433 18.22381773 4.25 20.3125 C4.22992144 21.73500114 4.21167304 23.15752937 4.1953125 24.58007812 C4.15138359 28.0539508 4.08243096 31.52680325 4 35 C2.00045254 35.04254356 -0.00041636 35.04080783 -2 35 C-3.80394875 33.19605125 -3.23705789 30.43322201 -3.31640625 27.99609375 C-3.35830078 26.78115234 -3.40019531 25.56621094 -3.44335938 24.31445312 C-3.48267578 23.03505859 -3.52199219 21.75566406 -3.5625 20.4375 C-3.60568359 19.15423828 -3.64886719 17.87097656 -3.69335938 16.54882812 C-3.799848 13.36600147 -3.90185962 10.18309326 -4 7 C-7.41642759 6.74984127 -7.41642759 6.74984127 -11 7 C-13.25870108 10.38805161 -13.29259413 11.77350741 -13.4140625 15.76171875 C-13.45273437 16.87998047 -13.49140625 17.99824219 -13.53125 19.15039062 C-13.5621875 20.31763672 -13.593125 21.48488281 -13.625 22.6875 C-13.66367187 23.86634766 -13.70234375 25.04519531 -13.7421875 26.25976562 C-13.83654391 29.17301977 -13.92213161 32.08626607 -14 35 C-16.31 35 -18.62 35 -21 35 C-21 23.45 -21 11.9 -21 0 C-18.69 0 -16.38 0 -14 0 C-13.67 0.66 -13.34 1.32 -13 2 C-12.154375 1.484375 -11.30875 0.96875 -10.4375 0.4375 C-6.2963943 -1.29423511 -4.28275821 -1.2689654 0 0 Z " fill="#EF4337" transform="translate(351,892)"/>
<path d="M0 0 C0.33 0.66 0.66 1.32 1 2 C0.0625 4.625 0.0625 4.625 -1 7 C-2.093125 6.95875 -3.18625 6.9175 -4.3125 6.875 C-8.08892229 6.67925334 -8.08892229 6.67925334 -11 9 C-11.99455909 11.98367726 -12.19559632 14.2004192 -12.31640625 17.32421875 C-12.35830078 18.35224609 -12.40019531 19.38027344 -12.44335938 20.43945312 C-12.48267578 21.51130859 -12.52199219 22.58316406 -12.5625 23.6875 C-12.60568359 24.77095703 -12.64886719 25.85441406 -12.69335938 26.97070312 C-12.79946838 29.64700791 -12.90152361 32.32340526 -13 35 C-15.31 35 -17.62 35 -20 35 C-20 23.45 -20 11.9 -20 0 C-17.69 0 -15.38 0 -13 0 C-12.67 0.99 -12.34 1.98 -12 3 C-11.401875 2.525625 -10.80375 2.05125 -10.1875 1.5625 C-6.53346611 -1.0475242 -4.22474617 -1.22295284 0 0 Z " fill="#EF4337" transform="translate(260,892)"/>
<path d="M0 0 C-0.33 1.98 -0.66 3.96 -1 6 C-4 7 -4 7 -7.0625 7.4375 C-10.11051481 7.73618053 -10.11051481 7.73618053 -12 10 C-12.37173016 12.6182767 -12.37173016 12.6182767 -12.4140625 15.6640625 C-12.47207031 17.34628906 -12.47207031 17.34628906 -12.53125 19.0625 C-12.5621875 20.238125 -12.593125 21.41375 -12.625 22.625 C-12.66367187 23.80835938 -12.70234375 24.99171875 -12.7421875 26.2109375 C-12.83668845 29.14046691 -12.92224558 32.06998597 -13 35 C-15.31 35 -17.62 35 -20 35 C-20 23.45 -20 11.9 -20 0 C-17.69 0 -15.38 0 -13 0 C-12.67 0.66 -12.34 1.32 -12 2 C-10.948125 1.484375 -9.89625 0.96875 -8.8125 0.4375 C-5.51476233 -0.99688183 -3.4935632 -1.16452107 0 0 Z " fill="#FFFFFF" transform="translate(437,892)"/>
<path d="M0 0 C2.31 0 4.62 0 7 0 C7 11.55 7 23.1 7 35 C4.69 35 2.38 35 0 35 C0 23.45 0 11.9 0 0 Z " fill="#FFFFFF" transform="translate(442,892)"/>
<path d="M0 0 C2.31 0 4.62 0 7 0 C7 2.31 7 4.62 7 7 C4.69 7 2.38 7 0 7 C0 4.69 0 2.38 0 0 Z " fill="#FFFFFF" transform="translate(442,878)"/>
<path d="M0 0 C0.33 0.66 0.66 1.32 1 2 C0.01 2.99 -0.98 3.98 -2 5 C-1.34 3.35 -0.68 1.7 0 0 Z " fill="#EF4236" transform="translate(444,542)"/>
<path d="M0 0 C0.33 0.99 0.66 1.98 1 3 C0.01 3.495 0.01 3.495 -1 4 C-0.67 2.68 -0.34 1.36 0 0 Z " fill="#EF4235" transform="translate(278,833)"/>
<path d="M0 0 C0.33 0.66 0.66 1.32 1 2 C0.34 2.66 -0.32 3.32 -1 4 C-0.67 2.68 -0.34 1.36 0 0 Z " fill="#EF4237" transform="translate(441,547)"/>
<path d="M0 0 C0 3 0 3 0 3 Z " fill="#EF4235" transform="translate(273,842)"/>
<path d="M0 0 C0 3 0 3 0 3 Z " fill="#EF4237" transform="translate(276,837)"/>
<path d="M0 0 C0 3 0 3 0 3 Z " fill="#EF4234" transform="translate(447,537)"/>
<path d="" fill="#EF4133" transform="translate(0,0)"/>
<path d="" fill="#EF4337" transform="translate(0,0)"/>
<path d="" fill="#FFFFFF" transform="translate(0,0)"/>
<path d="" fill="#FFFFFF" transform="translate(0,0)"/>
<path d="" fill="#FFFFFF" transform="translate(0,0)"/>
<path d="" fill="#EF4337" transform="translate(0,0)"/>
<path d="" fill="#404040" transform="translate(0,0)"/>
</svg>
