<?xml version="1.0" encoding="UTF-8"?>
<svg version="1.1" xmlns="http://www.w3.org/2000/svg" width="794" height="1123">
<path d="M0 0 C0.33 0.66 0.66 1.32 1 2 C0.22596915 3.90947688 -0.64840195 5.77847612 -1.5625 7.625 C-7.50002827 20.15223356 -11.83545469 33.29357419 -16.375 46.375 C-16.60409058 47.03290527 -16.83318115 47.69081055 -17.06921387 48.36865234 C-17.72405412 50.25239104 -18.37384675 52.13788212 -19.0234375 54.0234375 C-19.40419434 55.12606934 -19.78495117 56.22870117 -20.17724609 57.36474609 C-21.09934107 59.85806886 -21.09934107 59.85806886 -21 62 C-20.25234375 61.84144531 -19.5046875 61.68289063 -18.734375 61.51953125 C6.6010495 57.99483307 32.3132334 62.86465919 53.40625 77.69140625 C55.65182906 79.41019707 57.8329297 81.18348519 60 83 C60.70125 83.5671875 61.4025 84.134375 62.125 84.71875 C74.17118591 94.75723826 80.57571977 108.42697761 82.33571339 123.96355438 C83.09690261 134.31480944 83.14842772 144.62742302 83.14526367 155.00195312 C83.148262 156.9812781 83.15166607 158.9606025 83.15544128 160.93992615 C83.16421393 166.27664694 83.16661645 171.61335166 83.16725707 176.95007896 C83.16797106 180.29208414 83.1701119 183.63408531 83.17275429 186.97608948 C83.18198328 198.65675106 83.18609198 210.33740129 83.18530273 222.01806641 C83.18470163 232.8732922 83.19526621 243.72846835 83.2110464 254.58368158 C83.22415216 263.93527537 83.2294854 273.28685298 83.22884732 282.63845587 C83.22859336 288.20996191 83.23138853 293.78142371 83.24202538 299.35292053 C83.25175842 304.59301026 83.25175008 309.83301387 83.24450874 315.07310677 C83.24346956 316.98618255 83.24578575 318.89926385 83.2518692 320.81233025 C83.32652906 345.93443897 79.4563606 366.74863321 61.875 385.6875 C39.40972764 406.9394911 11.47730249 409.23541774 -18.0234375 409.0859375 C-19.59874392 409.08160259 -21.17405122 409.07757621 -22.74935913 409.07382202 C-27.183244 409.06104297 -31.61705041 409.03975681 -36.05088806 409.01585388 C-39.1384541 408.9992557 -42.22602519 408.98402543 -45.31359863 408.96887207 C-58.12015031 408.90404353 -70.92643844 408.81846315 -83.73271561 408.71245193 C-89.85206061 408.6618659 -95.97137815 408.61536258 -102.09082031 408.578125 C-108.11817607 408.54139316 -114.14538687 408.49516018 -120.17261887 408.44193649 C-122.44764107 408.42344276 -124.72269328 408.40831639 -126.99776077 408.39665604 C-130.14010139 408.37988714 -133.28209994 408.35090568 -136.42431641 408.31884766 C-137.35593094 408.31668747 -138.28754547 408.31452728 -139.24739075 408.31230164 C-140.09835831 408.30113815 -140.94932587 408.28997467 -141.82608032 408.2784729 C-142.56431345 408.27294214 -143.30254658 408.26741138 -144.06315041 408.26171303 C-146 408 -146 408 -149 406 C-150.16094859 402.9341706 -150.13011487 399.93011851 -150.14044189 396.67788696 C-150.14615204 395.59878052 -150.15186218 394.51967407 -150.15774536 393.40786743 C-150.15886322 392.22864716 -150.15998108 391.04942688 -150.16113281 389.83447266 C-150.16609772 388.58841248 -150.17106262 387.34235229 -150.17617798 386.05853271 C-150.18828064 382.64056753 -150.19574445 379.2226635 -150.20018864 375.80468416 C-150.20312539 373.66377661 -150.20723156 371.52287434 -150.21169281 369.38196945 C-150.22536931 362.66824355 -150.23503244 355.95452983 -150.2388947 349.24079096 C-150.24336122 341.52084449 -150.26084264 333.80107633 -150.2898953 326.08118403 C-150.31162365 320.09706636 -150.32160506 314.1129984 -150.32293582 308.12884176 C-150.32397689 304.56363457 -150.32973257 300.99859494 -150.34775543 297.43342972 C-150.36753903 293.44200383 -150.36290318 289.45094249 -150.35644531 285.45947266 C-150.3656601 284.30049469 -150.37487488 283.14151672 -150.3843689 281.94741821 C-150.27833208 260.86430781 -142.2876151 243.34923754 -131.62402344 225.70410156 C-128.57328979 220.62443742 -125.60665651 215.49539747 -122.625 210.375 C-122.04234375 209.37984375 -121.4596875 208.3846875 -120.859375 207.359375 C-117.89092086 202.28427599 -114.98038315 197.18513755 -112.13964844 192.03759766 C-110.43150128 188.98357106 -108.62856781 185.99070165 -106.8125 183 C-103.9431615 178.25047853 -101.10505463 173.48507269 -98.30712891 168.69311523 C-94.43087618 162.0575606 -90.48977907 155.46727001 -86.4375 148.9375 C-86.00767822 148.24019775 -85.57785645 147.54289551 -85.13500977 146.82446289 C-84.1184896 145.19815456 -83.06334227 143.59608749 -82 142 C-81.67 142 -81.34 142 -81 142 C-80.99503478 143.54693684 -80.99503478 143.54693684 -80.98996925 145.12512493 C-80.90902004 170.20425774 -80.81671831 195.28332912 -80.71247292 220.36237621 C-80.66232446 232.49035057 -80.61588177 244.6183181 -80.578125 256.74633789 C-80.54521166 267.31557338 -80.50538404 277.88475617 -80.45720994 288.45393354 C-80.43193847 294.05160983 -80.41015905 299.64925114 -80.39665604 305.24696922 C-80.38384165 310.51396529 -80.36179382 315.78084139 -80.33261681 321.04777145 C-80.32353619 322.9823394 -80.31784967 324.91692666 -80.31578636 326.85151482 C-80.31246728 329.49047663 -80.29699933 332.12909762 -80.2784729 334.76799011 C-80.281375 335.91926471 -80.281375 335.91926471 -80.28433573 337.09379739 C-80.24161464 341.15742809 -79.90145417 344.37809657 -78 348 C-73.45164677 352.24512968 -69.01807225 352.12403752 -63 352.08203125 C-62.30358398 352.07782669 -61.60716797 352.07362213 -60.88964844 352.06929016 C-58.59299126 352.05265115 -56.29655644 352.02708315 -54 352 C-53.21431641 351.99208435 -52.42863281 351.9841687 -51.61914062 351.97601318 C-46.60609459 351.92345624 -41.59426668 351.84165349 -36.58203125 351.73754883 C-34.86077278 351.7041848 -33.13940187 351.67618919 -31.41796875 351.65356445 C-10.2961929 351.56290468 -10.2961929 351.56290468 9 344 C18.23278101 333.71083673 16.32820056 316.18806105 16.4140625 303.26953125 C16.43308061 301.42573801 16.45284565 299.58195234 16.47329712 297.73817444 C16.52544648 292.78943907 16.5652977 287.84068116 16.60169983 282.89180756 C16.6250661 279.8037638 16.65133632 276.71575834 16.67858887 273.62774658 C16.7909258 260.86331846 16.8820778 248.09884733 16.96032715 235.33416748 C16.99219516 230.15335543 17.02818323 224.97258217 17.06540871 219.79180622 C17.14056315 209.27256655 17.19623539 198.75343192 17.23016357 188.23397827 C17.24193171 184.67924902 17.26017515 181.12464522 17.28399658 177.56997681 C17.31131316 173.39954211 17.32354082 169.22932705 17.32419968 165.05880547 C17.32676432 163.54522378 17.33434169 162.03164003 17.34758377 160.51811409 C17.44589302 148.67448324 16.71671858 135.14004118 8.140625 126.0234375 C-4.8523205 114.15394217 -25.37807616 117.87620773 -41.8125 117.9375 C-44.16210842 117.94252434 -46.51171788 117.9470856 -48.86132812 117.95117188 C-54.57424169 117.96210507 -60.28711591 117.97876931 -66 118 C-61.86824849 109.59185889 -57.60587635 101.3141526 -52.9375 93.1875 C-51.80026556 91.19170001 -50.66356575 89.19559531 -49.52734375 87.19921875 C-48.94710449 86.18134277 -48.36686523 85.1634668 -47.76904297 84.11474609 C-44.8208695 78.92391016 -41.91151123 73.71145921 -39 68.5 C-32.91222014 57.61489472 -26.7842033 46.75303596 -20.63964844 35.89990234 C-18.92576035 32.86869885 -17.21632083 29.83501994 -15.5078125 26.80078125 C-14.9310376 25.77742676 -14.3542627 24.75407227 -13.76000977 23.69970703 C-12.66829597 21.76247637 -11.5775578 19.82469541 -10.48803711 17.88623047 C-7.09099391 11.8627316 -3.58739685 5.91207462 0 0 Z " fill="#221F1F" transform="translate(543,264)"/>
<path d="M0 0 C1.24910156 -0.01160156 2.49820313 -0.02320313 3.78515625 -0.03515625 C11.52877836 -0.01062524 19.11888173 0.08207964 25.40625 5.09375 C25.8496875 5.6815625 26.293125 6.269375 26.75 6.875 C27.44609375 7.75671875 27.44609375 7.75671875 28.15625 8.65625 C30.05707721 11.64326419 30.37593584 14.20745498 30.38307858 17.65178776 C30.38731962 18.5294096 30.39156067 19.40703144 30.39593023 20.31124789 C30.39535103 21.75868676 30.39535103 21.75868676 30.39476013 23.23536682 C30.39828698 24.25992963 30.40181382 25.28449244 30.40544754 26.34010261 C30.41616336 29.789972 30.41982057 33.2398138 30.42358398 36.68969727 C30.42988718 39.15664284 30.43665272 41.62358726 30.44384766 44.0905304 C30.45853587 49.41232169 30.47033425 54.73410783 30.47979546 60.05591011 C30.49367188 67.76126695 30.51486129 75.46659104 30.53822399 83.17192435 C30.5761549 95.687281 30.6111133 108.20264362 30.64282227 120.71801758 C30.64472276 121.46733289 30.64662325 122.21664821 30.64858133 122.98867004 C30.67538496 133.61082989 30.69926551 144.23299432 30.72196633 154.85516363 C30.72436229 155.97595309 30.72436229 155.97595309 30.72680664 157.11938477 C30.72840011 157.86566545 30.72999357 158.61194613 30.73163532 159.38084138 C30.75843719 171.84052541 30.79285294 184.30017473 30.83346039 196.75982136 C30.85819009 204.44119782 30.87654206 212.12253699 30.886616 219.8039469 C30.89490602 225.69787619 30.9134264 231.59174555 30.93567657 237.48563957 C30.94313806 239.89865689 30.94723229 242.31168738 30.94767189 244.72471619 C30.94875846 248.02516133 30.96204292 251.32534707 30.97825623 254.62574768 C30.97563937 255.57509188 30.97302252 256.52443607 30.97032636 257.50254828 C31.04681958 267.50846286 32.59548587 276.92412779 38.25 285.375 C48.35177984 294.99453407 69.32980379 291.56122951 82.15356445 291.56030273 C85.57190097 291.56250606 88.98992272 291.58076441 92.40820312 291.59960938 C94.60156141 291.60254115 96.79492121 291.60452739 98.98828125 291.60546875 C100.50570671 291.61624702 100.50570671 291.61624702 102.05378723 291.62724304 C110.40824942 291.60042583 117.54316861 290.8624075 124.25 285.375 C131.14918211 276.55937842 131.39908574 266.72129104 131.39476013 255.97546387 C131.4000504 254.42419273 131.4000504 254.42419273 131.40544754 252.84158278 C131.41610471 249.38331623 131.41981029 245.92507726 131.42358398 242.46679688 C131.42989143 239.98454167 131.43665744 237.50228759 131.44384766 235.02003479 C131.45850234 229.67811779 131.47031304 224.33620579 131.47979546 218.99427795 C131.4936973 211.26319084 131.51488875 203.53213609 131.53822399 195.8010723 C131.5761041 183.24678368 131.61107886 170.69248923 131.64282227 158.13818359 C131.645673 157.01193731 131.645673 157.01193731 131.64858133 155.86293858 C131.67542156 145.20431759 131.69929691 134.545692 131.72196633 123.88706142 C131.72356363 123.13623056 131.72516094 122.38539971 131.72680664 121.61181641 C131.72840011 120.86190341 131.72999357 120.11199042 131.73163532 119.33935279 C131.75841177 106.83096605 131.79281163 94.32261407 131.83346039 81.81426477 C131.85821314 74.10343997 131.87655222 66.39265251 131.886616 58.68179429 C131.89488727 52.77391946 131.91338912 46.86610481 131.93567657 40.9582653 C131.94315434 38.53592171 131.94723327 36.11356489 131.94767189 33.69120979 C131.94875385 30.38554941 131.96199686 27.08015165 131.97825623 23.77453613 C131.97563937 22.81529094 131.97302252 21.85604575 131.97032636 20.86773252 C132.01773072 14.70117699 132.13485194 8.96776214 136.1875 4 C139.57433785 1.3315823 142.42561911 1.24625527 146.59179688 1.22973633 C148.22864441 1.22016655 148.22864441 1.22016655 149.89855957 1.21040344 C151.66580383 1.20873421 151.66580383 1.20873421 153.46875 1.20703125 C154.67817261 1.20370285 155.88759521 1.20037445 157.13366699 1.19694519 C159.69246032 1.19187936 162.25126026 1.18953676 164.81005859 1.18969727 C168.73415944 1.18750883 172.6579801 1.16934383 176.58203125 1.15039062 C179.0651032 1.14745709 181.54817649 1.14547203 184.03125 1.14453125 C185.20941284 1.13734573 186.38757568 1.13016022 187.60144043 1.12275696 C188.69267212 1.12583359 189.78390381 1.12891022 190.90820312 1.13208008 C191.86956177 1.13065506 192.83092041 1.12923004 193.82141113 1.12776184 C196.25 1.375 196.25 1.375 199.25 3.375 C200.34846911 6.67040732 200.3840835 9.11324091 200.39717102 12.58410645 C200.40790398 14.53535934 200.40790398 14.53535934 200.41885376 16.52603149 C200.42169407 17.97113013 200.4244058 19.41622903 200.42700195 20.86132812 C200.43326754 22.38085078 200.43991443 23.90037191 200.44691467 25.41989136 C200.46795529 30.41533339 200.47832062 35.41077571 200.48828125 40.40625 C200.49232953 42.12806718 200.49644648 43.8498842 200.50063133 45.57170105 C200.5196871 53.66564594 200.53391439 61.75958171 200.5422433 69.85354471 C200.55200189 79.18209558 200.57828363 88.51040829 200.61874419 97.83887529 C200.64897079 105.05688436 200.66371857 112.27482546 200.66702431 119.49289656 C200.66936837 123.79973893 200.67824361 128.106327 200.70348549 132.4131012 C200.72688449 136.47121408 200.73095238 140.52890743 200.72072411 144.58707047 C200.72023141 146.06924465 200.72647265 147.55144031 200.74028015 149.03355026 C200.84861506 161.36133528 198.37097345 170.43120783 191.80639648 180.86914062 C190.26027342 183.3584594 188.85629169 185.88602842 187.47265625 188.46875 C184.2895222 194.34349029 180.94565722 200.11371993 177.5625 205.875 C176.32266608 207.99334294 175.08308564 210.11183426 173.84375 212.23046875 C173.2353125 213.26993652 172.626875 214.3094043 172 215.38037109 C169.50918602 219.64269312 167.03373621 223.91380503 164.5625 228.1875 C163.89988159 229.3331543 163.89988159 229.3331543 163.22387695 230.50195312 C162.34135579 232.02809073 161.45894921 233.5542946 160.57666016 235.08056641 C157.84422771 239.80625653 155.10853372 244.53006104 152.37207031 249.25341797 C150.08828876 253.19614233 147.8080025 257.14080409 145.53515625 261.08984375 C140.74685986 269.39998239 135.89328852 277.66347189 130.9375 285.875 C127.44495745 291.66448927 124.039395 297.46723343 120.85546875 303.43359375 C114.78682302 314.55206148 108.23589536 325.41735357 101.80078125 336.32641602 C99.33500859 340.51227969 96.90213416 344.71463995 94.5 348.9375 C90.33150417 356.26166436 86.0872985 363.54089115 81.83203125 370.81494141 C78.63868112 376.27423671 75.45921816 381.7408211 72.3046875 387.22265625 C71.66740723 388.32625488 71.03012695 389.42985352 70.37353516 390.56689453 C69.14244475 392.69956535 67.91542753 394.8345936 66.69287109 396.97216797 C66.13937988 397.92881348 65.58588867 398.88545898 65.015625 399.87109375 C64.52868164 400.71857178 64.04173828 401.5660498 63.54003906 402.43920898 C62.25 404.375 62.25 404.375 60.25 405.375 C60.95976436 400.83339252 62.55144677 396.71972052 64.234375 392.46875 C64.53184631 391.70759888 64.82931763 390.94644775 65.13580322 390.16223145 C66.08667192 387.73161953 67.0431739 385.3032721 68 382.875 C68.62799148 381.27358933 69.25559923 379.67202813 69.8828125 378.0703125 C70.80327879 375.72006249 71.72408646 373.36995254 72.64660645 371.02050781 C75.21266009 364.48402286 77.74152803 357.93382193 80.25 351.375 C79.30995117 351.45194092 78.36990234 351.52888184 77.40136719 351.6081543 C45.39113493 354.16644501 11.45394209 351.96810508 -14.3125 330.8125 C-28.61445721 317.51014195 -36.31143861 299.67265732 -37.75 280.375 C-37.88314387 276.62301297 -37.89369121 272.8752673 -37.89044189 269.12117004 C-37.89341302 268.03133983 -37.89638414 266.94150961 -37.8994453 265.81865424 C-37.90807301 262.19004867 -37.90963545 258.56147632 -37.91113281 254.93286133 C-37.91576491 252.3220869 -37.9207901 249.71131314 -37.92617798 247.10054016 C-37.93969927 240.02650946 -37.94577496 232.95248447 -37.95018864 225.878443 C-37.95295897 221.45842193 -37.95719747 217.03840302 -37.96169281 212.61838341 C-37.97387238 200.36895415 -37.9841775 188.11952661 -37.9875679 175.87009144 C-37.98778747 175.08781899 -37.98800703 174.30554654 -37.98823325 173.49956886 C-37.98845153 172.71550191 -37.98866981 171.93143496 -37.9888947 171.12360841 C-37.98933816 169.53496094 -37.98978472 167.94631348 -37.99023438 166.35766602 C-37.9904558 165.56965367 -37.99067723 164.78164133 -37.99090537 163.96974983 C-37.9948585 151.18429895 -38.01233405 138.39890487 -38.0355939 125.61347596 C-38.05930761 112.4722091 -38.07176959 99.33097078 -38.07293582 86.18968219 C-38.07385203 78.81694763 -38.07959176 71.44428734 -38.09775543 64.07157326 C-38.11476544 57.14320732 -38.11640909 50.21498462 -38.10761642 43.28660393 C-38.10684432 40.74330391 -38.11121142 38.1999964 -38.12107468 35.65671539 C-38.13374321 32.18693402 -38.12794482 28.71765663 -38.11749268 25.24787903 C-38.12554908 24.24009787 -38.13360548 23.23231671 -38.14190602 22.19399673 C-38.1016566 16.48715639 -37.5563438 12.39080508 -34.75 7.375 C-25.17099282 -0.12161432 -11.6230525 -0.1093077 0 0 Z " fill="#221F20" transform="translate(242.75,246.625)"/>
<path d="M0 0 C0.33 0.66 0.66 1.32 1 2 C0.31005859 3.69799805 0.31005859 3.69799805 -0.8515625 5.76171875 C-1.2839624 6.5388623 -1.7163623 7.31600586 -2.16186523 8.11669922 C-2.64469971 8.96506348 -3.12753418 9.81342773 -3.625 10.6875 C-4.36955444 12.0180542 -4.36955444 12.0180542 -5.12915039 13.37548828 C-6.74387837 16.25543384 -8.37062085 19.12832117 -10 22 C-11.06913652 23.88925156 -12.1381476 25.77857411 -13.20703125 27.66796875 C-14.83347664 30.54201375 -16.46057814 33.41567139 -18.09033203 36.2878418 C-22.30076634 43.72097803 -26.40313536 51.20853521 -30.47363281 58.71899414 C-34.13642016 65.4604278 -37.89431943 72.14369265 -41.6875 78.8125 C-45.41462585 85.3665167 -49.07539749 91.94005509 -52.5625 98.625 C-56.36083146 105.90425848 -60.40272896 113.02906434 -64.49511719 120.14648438 C-67.64069389 125.61791759 -70.75448099 131.10414261 -73.8125 136.625 C-74.20211914 137.32826416 -74.59173828 138.03152832 -74.99316406 138.75610352 C-75.83987144 140.28577459 -76.68620583 141.81565217 -77.53222656 143.34570312 C-80.25196767 148.26403734 -82.97500246 153.18053994 -85.70101929 158.09539795 C-86.65502767 159.81642022 -87.60744917 161.53832184 -88.55981445 163.26025391 C-91.5124878 168.58477269 -94.49979299 173.88209313 -97.58203125 179.1328125 C-101.96470003 186.60772145 -106.05322557 194.23234487 -110.1484375 201.8671875 C-120.19853121 220.60334565 -120.19853121 220.60334565 -125.859375 229.5703125 C-135.799438 245.35234235 -144.89140435 261.69521333 -154.08691406 277.91748047 C-158.96239123 286.51855812 -163.96476145 295.03807047 -169.00488281 303.54345703 C-172.59929459 309.61408836 -176.16053251 315.70245471 -179.6875 321.8125 C-186.15441333 333.01067858 -192.6829703 344.16908499 -199.36254883 355.24194336 C-206.47521646 367.03668663 -213.32829036 378.96947648 -220.10742188 390.95849609 C-227.75813481 404.4889236 -235.71385182 417.84861137 -244 431 C-244.33 430.34 -244.66 429.68 -245 429 C-244.01538086 426.83618164 -244.01538086 426.83618164 -242.46484375 424.16015625 C-241.62083008 422.68772461 -241.62083008 422.68772461 -240.75976562 421.18554688 C-240.15841797 420.15494141 -239.55707031 419.12433594 -238.9375 418.0625 C-237.77912059 416.05386231 -236.62156577 414.04474885 -235.46484375 412.03515625 C-234.8831543 411.02751221 -234.30146484 410.01986816 -233.70214844 408.98168945 C-231.59402832 405.28885082 -229.56017232 401.55903515 -227.53442383 397.82055664 C-224.68763108 392.58762161 -221.77447116 387.39136918 -218.875 382.1875 C-214.1896509 373.77129725 -209.53452264 365.33987849 -204.9375 356.875 C-200.1694736 348.10093496 -195.31332925 339.37876073 -190.42382812 330.671875 C-186.07088663 322.91953888 -181.74848577 315.15073484 -177.4375 307.375 C-169.62970394 293.30167618 -161.71641969 279.28928812 -153.7578125 265.30078125 C-148.16937119 255.46385159 -142.6707071 245.58946811 -137.3125 235.625 C-132.48499024 226.65388965 -127.46152416 217.83564644 -122.24023438 209.08935547 C-120.00646663 205.32624831 -117.81614708 201.53803205 -115.625 197.75 C-114.94219971 196.57099121 -114.94219971 196.57099121 -114.24560547 195.36816406 C-111.82147862 191.17540106 -109.4133698 186.97407173 -107.0234375 182.76171875 C-101.73569803 173.44660979 -96.35280109 164.21794338 -90.72265625 155.10522461 C-87.86861821 150.47105315 -85.20859445 145.77665467 -82.65625 140.96875 C-79.9705401 136.15474169 -77.04845857 131.48416997 -74.1328125 126.80664062 C-71.09777648 121.90760126 -68.29542351 116.91852689 -65.55810547 111.84765625 C-62.90952707 107.00700779 -60.10639638 102.25776749 -57.3125 97.5 C-56.06875048 95.37515213 -54.82526369 93.25015045 -53.58203125 91.125 C-52.6686499 89.56458984 -52.6686499 89.56458984 -51.73681641 87.97265625 C-49.3119473 83.82236018 -46.90438815 79.66218415 -44.5 75.5 C-39.85386522 67.46115017 -35.17388017 59.44233263 -30.49023438 51.42529297 C-27.30775441 45.97247005 -24.13687533 40.51317996 -20.984375 35.04296875 C-20.65044739 34.46355026 -20.31651978 33.88413177 -19.97247314 33.28715515 C-18.36315383 30.49372349 -16.75545566 27.69937025 -15.14941406 24.90405273 C-5.15279839 7.53101303 -5.15279839 7.53101303 0 0 Z " fill="#E44236" transform="translate(550,235)"/>
<path d="M0 0 C28 0 28 0 37 5 C40.79555589 11.30406663 41.60056525 16.53296225 41.53125 23.78515625 C41.5350769 24.68568222 41.53890381 25.58620819 41.54284668 26.51402283 C41.54555022 28.40397266 41.53829909 30.29396092 41.52148438 32.18383789 C41.50002641 35.05896113 41.52135175 37.93159322 41.546875 40.80664062 C41.54423194 42.65365129 41.5391074 44.50066041 41.53125 46.34765625 C41.53934692 47.19683121 41.54744385 48.04600616 41.55578613 48.9209137 C41.44690432 55.92618024 39.63838043 61.36161957 34.625 66.375 C23.71335878 73.12982552 13.69594335 70 0 70 C0 46.9 0 23.8 0 0 Z M10 9 C10 26.16 10 43.32 10 61 C21.88582797 61.8046798 21.88582797 61.8046798 28 59 C31.53697574 54.8727232 31.43838954 50.57048729 31.3984375 45.375 C31.40130768 44.5504834 31.40417786 43.7259668 31.40713501 42.87646484 C31.40917072 41.13833934 31.4036754 39.40019067 31.39111328 37.66210938 C31.375052 35.00859121 31.39097809 32.35659605 31.41015625 29.703125 C31.40817373 28.01041332 31.40432987 26.31770258 31.3984375 24.625 C31.40451019 23.83528809 31.41058289 23.04557617 31.4168396 22.23193359 C31.3587538 17.66029047 30.95059331 14.56777091 28 11 C22.65835921 7.95650161 22.65835921 7.95650161 10 9 Z " fill="#231F20" transform="translate(467,704)"/>
<path d="M0 0 C3.3 0 6.6 0 10 0 C10.01458252 1.64516602 10.02916504 3.29033203 10.04418945 4.98535156 C10.10211797 11.0833928 10.17935183 17.18106267 10.26245117 23.27880859 C10.29572603 25.91904681 10.32374988 28.5593566 10.34643555 31.19970703 C10.37993357 34.99282361 10.43224898 38.78528272 10.48828125 42.578125 C10.49467117 43.76053772 10.5010611 44.94295044 10.50764465 46.16119385 C10.53733589 47.8124527 10.53733589 47.8124527 10.56762695 49.49707031 C10.57873001 50.46525696 10.58983307 51.4334436 10.60127258 52.43096924 C11.06955298 55.44813509 11.89060432 56.8168091 14 59 C17.64406062 60.21468687 21.24587199 60.92134277 25 60 C27.44549396 58.34684147 28.55144063 57.49231428 30 55 C30.77062707 50.83563853 30.72114724 46.70613863 30.70703125 42.48046875 C30.72215256 41.26676102 30.73727386 40.05305328 30.75285339 38.80256653 C30.79579896 34.9306897 30.80457572 31.05959149 30.8125 27.1875 C30.83563873 24.56052607 30.86100275 21.93357074 30.88867188 19.30664062 C30.95159306 12.8710247 30.98387469 6.43589647 31 0 C34.3 0 37.6 0 41 0 C41.10169191 7.82866277 41.1715885 15.65715422 41.21972656 23.48632812 C41.23753649 26.14810247 41.26706285 28.80901028 41.30175781 31.47070312 C41.35045548 35.3034958 41.37301116 39.13570363 41.390625 42.96875 C41.41127014 44.15239136 41.43191528 45.33603271 41.45318604 46.55554199 C41.45519794 54.01755094 40.85141082 59.76223594 35.62310791 65.51501465 C30.54180149 70.12783476 25.1285168 71.50813058 18.4375 71.3046875 C13.09686516 70.63710814 8.00188446 69.19428526 4.29296875 65.12890625 C0.77578762 59.76697882 -0.12845969 54.8522891 -0.11352539 48.4753418 C-0.11344986 47.39459885 -0.11337433 46.3138559 -0.11329651 45.20036316 C-0.10813522 44.0449855 -0.10297394 42.88960785 -0.09765625 41.69921875 C-0.0962413 40.50770706 -0.09482635 39.31619537 -0.09336853 38.08857727 C-0.08777728 34.28819249 -0.07522632 30.48786693 -0.0625 26.6875 C-0.05748387 24.10872481 -0.05292116 21.5299487 -0.04882812 18.95117188 C-0.0378107 12.63409182 -0.02055201 6.31705594 0 0 Z " fill="#EF4035" transform="translate(212,704)"/>
<path d="M0 0 C3.3 0 6.6 0 10 0 C10.33 7.59 10.66 15.18 11 23 C12.98 21.68 14.96 20.36 17 19 C20.92638592 18.08336211 24.42200722 18.83327131 28.25 19.9375 C32.24242918 22.93182188 33.60941452 26.25315537 35 31 C35.53468999 35.72167473 35.51470396 40.37820195 35.4375 45.125 C35.44458984 46.36121094 35.45167969 47.59742188 35.45898438 48.87109375 C35.41416645 55.2903993 35.27853918 60.40211056 32 66 C28.3683442 69.45007301 25.70308921 70.83933121 20.6875 71.3125 C16.38108632 70.94754969 14.36470289 69.62610957 11 67 C10.67 67.99 10.34 68.98 10 70 C6.7 70 3.4 70 0 70 C0 46.9 0 23.8 0 0 Z M10 32 C9.40377429 34.84178958 9.40377429 34.84178958 9.50390625 37.97265625 C9.50326172 39.11927734 9.50261719 40.26589844 9.50195312 41.44726562 C9.52193359 42.64029297 9.54191406 43.83332031 9.5625 45.0625 C9.55541016 46.25939453 9.54832031 47.45628906 9.54101562 48.68945312 C9.23850543 54.57050988 9.23850543 54.57050988 11.31616211 59.80249023 C14.1859647 61.84343292 16.52771554 62 20 62 C22.60213978 60.34203285 23.57779705 59.63378442 25 57 C25.72205956 52.80093425 25.65200042 48.68756065 25.5625 44.4375 C25.57345703 43.30119141 25.58441406 42.16488281 25.59570312 40.99414062 C25.78794843 34.91503929 25.78794843 34.91503929 23.18334961 29.67602539 C20.98671656 27.70606823 20.98671656 27.70606823 17.5 27.5 C13.39287257 28.08673249 12.49459462 28.77614897 10 32 Z " fill="#EF4036" transform="translate(302,704)"/>
<path d="M0 0 C3.60705037 2.48485692 5.43107922 4.8364708 6.8125 8.9375 C7.32272327 13.39050529 7.38836115 17.79669385 7.33398438 22.27075195 C7.31257933 24.36722973 7.33381848 26.46026875 7.359375 28.55664062 C7.37540194 35.96191237 7.08398983 41.71882652 2.8125 47.9375 C-1.92966824 51.0059618 -5.66097737 51.18927708 -11.07421875 50.5546875 C-13.1875 49.9375 -13.1875 49.9375 -17.1875 46.9375 C-17.5175 54.8575 -17.8475 62.7775 -18.1875 70.9375 C-21.4875 70.9375 -24.7875 70.9375 -28.1875 70.9375 C-28.1875 47.5075 -28.1875 24.0775 -28.1875 -0.0625 C-24.8875 -0.0625 -21.5875 -0.0625 -18.1875 -0.0625 C-17.8575 0.9275 -17.5275 1.9175 -17.1875 2.9375 C-15.6715625 1.9475 -15.6715625 1.9475 -14.125 0.9375 C-9.22402937 -1.83905796 -5.33637284 -1.77879095 0 0 Z M-16.37890625 9.7109375 C-19.15063347 14.65574674 -18.80653095 19.36421344 -18.75 24.9375 C-18.77384766 26.01773438 -18.79769531 27.09796875 -18.82226562 28.2109375 C-18.82205196 34.62265266 -18.82205196 34.62265266 -15.87890625 40.1875 C-13.21604438 42.26684131 -13.21604438 42.26684131 -9.5625 41.9375 C-5.65578384 40.84685343 -5.65578384 40.84685343 -3.1875 37.9375 C-2.01385425 33.52393075 -1.96923371 29.10042015 -1.9375 24.5625 C-1.916875 23.83289063 -1.89625 23.10328125 -1.875 22.3515625 C-1.83783919 17.14904852 -2.73379465 13.54713092 -5.1875 8.9375 C-9.11155588 6.97547206 -12.94273979 6.93015395 -16.37890625 9.7109375 Z " fill="#221F20" transform="translate(607.1875,724.0625)"/>
<path d="M0 0 C3.13351581 2.90562375 5.22620382 5.75148703 6 10 C6.08378506 12.90959378 6.11617895 15.79421241 6.09765625 18.703125 C6.0962413 19.54091492 6.09482635 20.37870483 6.09336853 21.24188232 C6.08778197 23.91129157 6.07523194 26.5806162 6.0625 29.25 C6.05748326 31.06249879 6.05292066 32.87499889 6.04882812 34.6875 C6.03781694 39.12503248 6.02056155 43.56250191 6 48 C2.7 48 -0.6 48 -4 48 C-4.33 47.34 -4.66 46.68 -5 46 C-5.825 46.495 -6.65 46.99 -7.5 47.5 C-12.32130884 49.56627522 -16.24164477 49.87339691 -21.18359375 48.30859375 C-24.66661888 46.78117539 -26.67394035 45.42795329 -29 42.375 C-30.71509125 36.58656703 -30.82331809 31.33995668 -28.8125 25.625 C-26.13448157 21.74649055 -23.47625233 19.49208411 -19 18 C-16.42734182 17.92970879 -13.88358569 17.90629168 -11.3125 17.9375 C-10.61060547 17.94201172 -9.90871094 17.94652344 -9.18554688 17.95117188 C-7.45699462 17.96293073 -5.72848635 17.98086546 -4 18 C-4.30782496 16.35328588 -4.62139234 14.70764424 -4.9375 13.0625 C-5.11152344 12.14597656 -5.28554688 11.22945312 -5.46484375 10.28515625 C-5.77714988 8.04710156 -5.77714988 8.04710156 -7 7 C-8.85287502 6.92773498 -10.70833878 6.9161878 -12.5625 6.9375 C-13.57441406 6.94652344 -14.58632813 6.95554687 -15.62890625 6.96484375 C-16.41136719 6.97644531 -17.19382812 6.98804688 -18 7 C-18.33 7.99 -18.66 8.98 -19 10 C-25.75 9.125 -25.75 9.125 -28 8 C-26.76334077 3.05336307 -25.30542785 0.76777505 -21 -2 C-13.92025586 -4.24117687 -6.40080268 -3.76517805 0 0 Z M-20 29 C-21.02887287 32.22380166 -21.31430743 34.10543271 -20.1875 37.3125 C-19.09312675 39.15097822 -19.09312675 39.15097822 -17 40 C-14.92538519 40.23552522 -14.92538519 40.23552522 -12.625 40.25 C-11.85414063 40.27578125 -11.08328125 40.3015625 -10.2890625 40.328125 C-7.33169848 39.90420251 -6.04578282 39.18000839 -4 37 C-3.51659568 34.2613775 -3.51659568 34.2613775 -3.75 31.3125 C-3.80414063 29.82169922 -3.80414063 29.82169922 -3.859375 28.30078125 C-3.90578125 27.54152344 -3.9521875 26.78226563 -4 26 C-12.67766059 25.21158667 -12.67766059 25.21158667 -20 29 Z " fill="#EF4035" transform="translate(377,726)"/>
<path d="M0 0 C3.8173013 3.07504827 6.32838566 5.96487577 7.25 10.8125 C7.33231525 12.15523815 7.36789309 13.50142787 7.36352539 14.84667969 C7.36344986 15.62718689 7.36337433 16.40769409 7.36329651 17.21185303 C7.35813522 18.04428528 7.35297394 18.87671753 7.34765625 19.734375 C7.3462413 20.59436096 7.34482635 21.45434692 7.34336853 22.34039307 C7.33778097 25.08113109 7.32523075 27.82178676 7.3125 30.5625 C7.30748339 32.4231759 7.30292077 34.28385309 7.29882812 36.14453125 C7.28781561 40.70055246 7.27055951 45.25651228 7.25 49.8125 C3.95 49.8125 0.65 49.8125 -2.75 49.8125 C-2.76981934 48.74290039 -2.78963867 47.67330078 -2.81005859 46.57128906 C-2.8862098 42.59774488 -2.97491242 38.62456234 -3.06738281 34.65136719 C-3.10563327 32.93268989 -3.14049303 31.21393362 -3.171875 29.49511719 C-3.21761128 27.0224996 -3.27559084 24.55042387 -3.3359375 22.078125 C-3.34748871 21.31131409 -3.35903992 20.54450317 -3.37094116 19.75445557 C-3.50461827 14.47040452 -3.50461827 14.47040452 -5.75 9.8125 C-8.59083641 8.39208179 -10.60477278 8.49797728 -13.75 8.8125 C-16.07588685 10.24444662 -16.07588685 10.24444662 -17.75 12.8125 C-18.16780431 15.7595526 -18.35478118 18.34801763 -18.359375 21.296875 C-18.37591125 22.11246887 -18.39244751 22.92806274 -18.40948486 23.76837158 C-18.45796583 26.36649097 -18.47933523 28.96402509 -18.5 31.5625 C-18.52815972 33.32685236 -18.55808716 35.09117746 -18.58984375 36.85546875 C-18.66372442 41.17443097 -18.71329812 45.49306829 -18.75 49.8125 C-22.05 49.8125 -25.35 49.8125 -28.75 49.8125 C-28.75 33.3125 -28.75 16.8125 -28.75 -0.1875 C-25.45 -0.1875 -22.15 -0.1875 -18.75 -0.1875 C-18.42 1.1325 -18.09 2.4525 -17.75 3.8125 C-17.151875 3.173125 -16.55375 2.53375 -15.9375 1.875 C-11.53789997 -2.27319432 -5.35236344 -2.31124785 0 0 Z " fill="#EF4035" transform="translate(423.75,724.1875)"/>
<path d="M0 0 C-0.4794463 4.21912747 -1.16625119 6.79663178 -4 10 C-4.886875 9.79375 -5.77375 9.5875 -6.6875 9.375 C-10.33119345 8.9625064 -11.87104763 9.13954183 -15 11 C-18.17986137 15.12250611 -18.46689857 18.89027422 -18.51171875 23.92578125 C-18.52966995 24.67337204 -18.54762115 25.42096283 -18.56611633 26.19120789 C-18.62003849 28.56491558 -18.65405554 30.93842432 -18.6875 33.3125 C-18.72068921 34.92776195 -18.75518035 36.54299771 -18.79101562 38.15820312 C-18.87575399 42.10532476 -18.94265049 46.05238927 -19 50 C-22.3 50 -25.6 50 -29 50 C-29 33.5 -29 17 -29 0 C-25.7 0 -22.4 0 -19 0 C-18.67 1.65 -18.34 3.3 -18 5 C-17.2575 4.195625 -16.515 3.39125 -15.75 2.5625 C-11.52452605 -1.37487345 -5.45879623 -2.72939811 0 0 Z " fill="#EF4035" transform="translate(294,724)"/>
<path d="M0 0 C1.19882812 0.15275391 1.19882812 0.15275391 2.421875 0.30859375 C3.02515625 0.39238281 3.6284375 0.47617187 4.25 0.5625 C3.7705537 4.78162747 3.08374881 7.35913178 0.25 10.5625 C-0.61625 10.335625 -1.4825 10.10875 -2.375 9.875 C-6.51563886 9.49160751 -8.30793177 10.29386412 -11.75 12.5625 C-14.29744367 16.17255439 -14.09606988 20.13453623 -14.1640625 24.390625 C-14.18342865 25.13963074 -14.2027948 25.88863647 -14.2227478 26.66033936 C-14.28235716 29.04427836 -14.32885354 31.42826614 -14.375 33.8125 C-14.41319701 35.43231231 -14.45224975 37.05210468 -14.4921875 38.671875 C-14.58804313 42.63525406 -14.67214246 46.59872819 -14.75 50.5625 C-17.72 50.5625 -20.69 50.5625 -23.75 50.5625 C-23.75 34.0625 -23.75 17.5625 -23.75 0.5625 C-20.78 0.5625 -17.81 0.5625 -14.75 0.5625 C-14.42 1.8825 -14.09 3.2025 -13.75 4.5625 C-13.0075 3.923125 -12.265 3.28375 -11.5 2.625 C-7.520881 -0.35933925 -4.86318903 -0.64365737 0 0 Z " fill="#221F20" transform="translate(544.75,723.4375)"/>
<path d="M0 0 C3.3 0 6.6 0 10 0 C10 16.5 10 33 10 50 C6.7 50 3.4 50 0 50 C0 33.5 0 17 0 0 Z " fill="#231F20" transform="translate(557,724)"/>
<path d="M0 0 C3.3 0 6.6 0 10 0 C10 3.3 10 6.6 10 10 C6.7 10 3.4 10 0 10 C0 6.7 0 3.4 0 0 Z " fill="#231F20" transform="translate(557,704)"/>
<path d="M0 0 C0.33 0.66 0.66 1.32 1 2 C0.01 2.99 -0.98 3.98 -2 5 C-1.34 3.35 -0.68 1.7 0 0 Z " fill="#E44236" transform="translate(555,226)"/>
<path d="M0 0 C0.33 0.66 0.66 1.32 1 2 C0.34 2.66 -0.32 3.32 -1 4 C-0.67 2.68 -0.34 1.36 0 0 Z " fill="#E44236" transform="translate(304,666)"/>
<path d="M0 0 C0.33 0.99 0.66 1.98 1 3 C0.01 3.495 0.01 3.495 -1 4 C-0.67 2.68 -0.34 1.36 0 0 Z " fill="#E44337" transform="translate(552,231)"/>
<path d="" fill="#221F20" transform="translate(0,0)"/>
<path d="" fill="#E44237" transform="translate(0,0)"/>
<path d="" fill="#E54337" transform="translate(0,0)"/>
<path d="" fill="#231E20" transform="translate(0,0)"/>
<path d="" fill="#222020" transform="translate(0,0)"/>
<path d="" fill="#FF0000" transform="translate(0,0)"/>
</svg>
