<?xml version="1.0" encoding="utf-8"?>
<!-- Generator: Adobe Illustrator 24.3.0, SVG Export Plug-In . SVG Version: 6.00 Build 0)  -->
<svg version="1.1" id="Layer_1" xmlns="http://www.w3.org/2000/svg" xmlns:xlink="http://www.w3.org/1999/xlink" x="0px" y="0px"
	 viewBox="0 0 595.28 841.89" style="enable-background:new 0 0 595.28 841.89;" xml:space="preserve">
<style type="text/css">
	.st0{fill:#27AAE1;}
	.st1{fill:#92278F;}
	.st2{fill:#FEFEFE;}
	.st3{fill:#90278E;}
	.st4{font-family:'Bauhaus93';}
	.st5{font-size:48px;}
</style>
<g>
	<path class="st0" d="M149.63,225.15c3.4-0.3,6.81-0.15,10.21-0.1c1.72,0.03,3.05,1.83,3.06,3.87c0.03,5.58,0.06,11.16-0.03,16.74
		c-0.03,1.52,0.47,1.85,1.9,1.82c5.47-0.08,10.93-0.05,16.4-0.03c2.85,0.01,3.85,0.94,3.86,3.75c0.04,6.18,0.04,12.34,0,18.51
		c-0.03,2.82-1.18,3.91-3.97,3.91c-5.47,0.01-10.93,0.04-16.4-0.03c-1.33-0.01-1.81,0.25-1.78,1.71c0.09,5.34,0.04,10.69,0.04,16.04
		c0,3.75-1.96,5.23-5.71,4.33c-0.81-0.22-0.95-1.21-1.71-1.49c0.15-0.78-0.35-1.32-0.72-1.9c-3.42-5.48-4.91-11.45-3.59-17.77
		c1.43-6.86,5.42-12.1,11.45-15.77c1.25-0.76,2.75-1.08,4.06-2.14c-3.11-1.01-5.93-0.34-8.67,0.42c-3.72,1.04-7.11,2.85-10.12,5.3
		c-0.78,0.65-1.21,0.3-1.59-0.4c-0.76-1.46-1.34-2.99-1.66-4.58c-1.68-8.26,0.3-16.16,2.44-24.05c0.58-2.16,2-4.13,1.71-6.52
		C149.02,226.22,149.64,225.85,149.63,225.15z M145.93,251.81c-0.27,3.45,2.71,5.43,4.91,5.49c2.63,0.08,5.05-2.64,5.04-5.52
		c-0.03-2.83-2.33-5.38-4.97-5.38C148.63,246.4,145.69,248.45,145.93,251.81z"/>
	<path class="st0" d="M155.48,294.2c0.76,0.28,0.9,1.28,1.71,1.49c-2.27,0.44-4.56,0.15-6.85,0.19c-3.11,0.05-6.23,0.01-9.34,0.01
		c-3.26,0-4.42-1.18-4.43-4.49c-0.01-5.4-0.04-10.81,0.03-16.22c0.01-1.34-0.4-1.7-1.71-1.68c-5.52,0.06-11.05,0.04-16.56,0.03
		c-2.8-0.01-4-1.18-4.01-3.92c-0.01-6.11-0.01-12.22,0-18.34c0.01-2.68,1.08-3.75,3.73-3.76c5.58-0.01,11.16-0.05,16.74,0.03
		c1.38,0.01,1.82-0.37,1.81-1.78c-0.08-5.4-0.04-10.81-0.03-16.22c0-3.35,1.11-4.48,4.4-4.47c2.87,0.01,5.76,0.05,8.63,0.09
		c0.03,0.7-0.61,1.05-0.81,1.62c-0.7,0.4-1.01,1.11-1.4,1.76c-4.81,7.9-7.68,16.48-8.49,25.65c-1.37,15.55,3.61,28.74,15.18,39.33
		C154.51,293.89,154.94,294.15,155.48,294.2z"/>
	<path class="st1" d="M153.31,302.48c2.91-1.2,5.52-2.28,7.93-3.75c2.18-1.32,4.39-2.62,6.21-4.39c2.7-2.62,6.34-3.57,9.43-5.52
		c8.3-5.23,14.4-12.34,18.39-21.22c2.21-4.92,3.54-10.14,3.78-15.58c0.04-0.94,0.2-1.86,0.34-3.16
		C203.77,277.13,180.25,302.94,153.31,302.48z"/>
	<path class="st1" d="M137.81,210.42c25.97-4.11,52.7,15.94,53.6,45.31c-1.02-0.48-1.04-1.56-1.35-2.3
		c-1.85-4.3-4.21-8.3-7.36-11.73c-1.95-2.13-2.72-4.82-4.11-7.2c-5.77-9.84-13.87-16.85-24.56-20.9c-4.53-1.72-9.17-2.73-14.01-2.92
		C139.36,210.63,138.72,210.53,137.81,210.42z"/>
	<path class="st1" d="M145.2,218.45c-5.23,1.99-9.95,4.37-13.89,7.92c-2.52,2.27-5.64,3.3-8.43,5
		c-12.81,7.76-20.5,18.99-22.99,33.77c-0.19,1.15-0.33,2.33-0.44,3.49c-0.11,1.14-0.15,2.29-0.23,3.43
		C94.7,245.11,116.81,218.31,145.2,218.45z"/>
	<path class="st1" d="M160.05,310.63c-26.81,4.11-52.72-18.2-52.75-45.72c1.64,3.82,3.2,7.26,5.42,10.35
		c0.89,1.24,1.72,2.56,2.78,3.62c1.99,1.99,2.68,4.64,4.02,6.96C128.56,301.52,142.29,309.47,160.05,310.63z"/>
	<path class="st2" d="M155.48,294.2c-0.54-0.04-0.99-0.32-1.38-0.68c-11.59-10.59-16.55-23.78-15.18-39.33
		c0.81-9.19,3.68-17.75,8.49-25.65c0.39-0.65,0.71-1.35,1.4-1.76c0.29,2.39-1.13,4.35-1.71,6.52c-2.14,7.9-4.11,15.79-2.44,24.05
		c0.33,1.59,0.9,3.14,1.66,4.58c0.37,0.71,0.8,1.04,1.59,0.4c3.01-2.45,6.4-4.25,10.12-5.3c2.73-0.77,5.56-1.44,8.67-0.42
		c-1.32,1.06-2.81,1.38-4.06,2.14c-6.05,3.67-10.03,8.9-11.45,15.77c-1.32,6.33,0.18,12.3,3.59,17.77
		C155.13,292.89,155.64,293.42,155.48,294.2z"/>
	<path class="st2" d="M145.93,251.81c-0.24-3.37,2.7-5.4,4.97-5.4c2.64,0,4.95,2.56,4.97,5.38c0.03,2.87-2.4,5.59-5.04,5.52
		C148.64,257.24,145.68,255.27,145.93,251.81z"/>
</g>
<text transform="matrix(1 -8.680000e-03 8.680000e-03 1 215.7503 275.6759)" class="st3 st4 st5">Ex-Checker</text>
</svg>
