<svg id="Layer_1" data-name="Layer 1" xmlns="http://www.w3.org/2000/svg" viewBox="0 0 359.5 101.23"><defs><style>.cls-1{fill:#27aae1;}.cls-2{fill:#92278f;}.cls-3{fill:#fefefe;}.cls-4{isolation:isolate;font-size:48px;fill:#90278e;font-family:Bauhaus93, "Bauhaus 93";}</style></defs><path class="cls-1" d="M149.63,225.15a99.36,99.36,0,0,1,10.21-.1c1.72,0,3,1.83,3.06,3.87,0,5.58.06,11.16,0,16.74,0,1.52.47,1.85,1.9,1.82,5.47-.08,10.93,0,16.4,0,2.85,0,3.85.94,3.86,3.75q.06,9.27,0,18.51c0,2.82-1.18,3.91-4,3.91-5.47,0-10.93,0-16.4,0-1.33,0-1.81.25-1.78,1.71.09,5.34,0,10.69,0,16,0,3.75-2,5.23-5.71,4.33-.81-.22-1-1.21-1.71-1.49.15-.78-.35-1.32-.72-1.9-3.42-5.48-4.91-11.45-3.59-17.77a23.67,23.67,0,0,1,11.45-15.77c1.25-.76,2.75-1.08,4.06-2.14-3.11-1-5.93-.34-8.67.42a27.86,27.86,0,0,0-10.12,5.3c-.78.65-1.21.3-1.59-.4a17.36,17.36,0,0,1-1.66-4.58c-1.68-8.26.3-16.16,2.44-24,.58-2.16,2-4.13,1.71-6.52C149,226.22,149.64,225.85,149.63,225.15Zm-3.7,26.66a5.15,5.15,0,0,0,4.91,5.49c2.63.08,5-2.64,5-5.52s-2.33-5.38-5-5.38A5.12,5.12,0,0,0,145.93,251.81Z" transform="translate(-98.63 -209.89)"/><path class="cls-1" d="M155.48,294.2c.76.28.9,1.28,1.71,1.49-2.27.44-4.56.15-6.85.19-3.11.05-6.23,0-9.34,0s-4.42-1.18-4.43-4.49c0-5.4,0-10.81,0-16.22,0-1.34-.4-1.7-1.71-1.68-5.52.06-11,0-16.56,0-2.8,0-4-1.18-4-3.92q0-9.17,0-18.34c0-2.68,1.08-3.75,3.73-3.76,5.58,0,11.16,0,16.74,0,1.38,0,1.82-.37,1.81-1.78-.08-5.4,0-10.81,0-16.22,0-3.35,1.11-4.48,4.4-4.47,2.87,0,5.76.05,8.63.09,0,.7-.61,1.05-.81,1.62a4.31,4.31,0,0,0-1.4,1.76,58.77,58.77,0,0,0-8.49,25.65c-1.37,15.55,3.61,28.74,15.18,39.33A2.47,2.47,0,0,0,155.48,294.2Z" transform="translate(-98.63 -209.89)"/><path class="cls-2" d="M153.31,302.48a56.06,56.06,0,0,0,7.93-3.75,33.62,33.62,0,0,0,6.21-4.39c2.7-2.62,6.34-3.57,9.43-5.52a47.6,47.6,0,0,0,18.39-21.22A42.44,42.44,0,0,0,199.05,252c0-.94.2-1.86.34-3.16C203.77,277.13,180.25,302.94,153.31,302.48Z" transform="translate(-98.63 -209.89)"/><path class="cls-2" d="M137.81,210.42c26-4.11,52.7,15.94,53.6,45.31-1-.48-1-1.56-1.35-2.3a41.17,41.17,0,0,0-7.36-11.73c-1.95-2.13-2.72-4.82-4.11-7.2A47.05,47.05,0,0,0,154,213.6a44,44,0,0,0-14-2.92C139.36,210.63,138.72,210.53,137.81,210.42Z" transform="translate(-98.63 -209.89)"/><path class="cls-2" d="M145.2,218.45c-5.23,2-9.95,4.37-13.89,7.92-2.52,2.27-5.64,3.3-8.43,5q-19.22,11.64-23,33.77c-.19,1.15-.33,2.33-.44,3.49s-.15,2.29-.23,3.43C94.7,245.11,116.81,218.31,145.2,218.45Z" transform="translate(-98.63 -209.89)"/><path class="cls-2" d="M160.05,310.63c-26.81,4.11-52.72-18.2-52.75-45.72a53.5,53.5,0,0,0,5.42,10.35,28.45,28.45,0,0,0,2.78,3.62c2,2,2.68,4.64,4,7C128.56,301.52,142.29,309.47,160.05,310.63Z" transform="translate(-98.63 -209.89)"/><path class="cls-3" d="M155.48,294.2a2.3,2.3,0,0,1-1.38-.68c-11.59-10.59-16.55-23.78-15.18-39.33a58.69,58.69,0,0,1,8.49-25.65,4.46,4.46,0,0,1,1.4-1.76c.29,2.39-1.13,4.35-1.71,6.52-2.14,7.9-4.11,15.79-2.44,24.05a17.46,17.46,0,0,0,1.66,4.58c.37.71.8,1,1.59.4A28,28,0,0,1,158,257c2.73-.77,5.56-1.44,8.67-.42-1.32,1.06-2.81,1.38-4.06,2.14a23.55,23.55,0,0,0-11.45,15.77c-1.32,6.33.18,12.3,3.59,17.77C155.13,292.89,155.64,293.42,155.48,294.2Z" transform="translate(-98.63 -209.89)"/><path class="cls-3" d="M145.93,251.81a5.1,5.1,0,0,1,5-5.4c2.64,0,4.95,2.56,5,5.38s-2.4,5.59-5,5.52A5.17,5.17,0,0,1,145.93,251.81Z" transform="translate(-98.63 -209.89)"/><text class="cls-4" transform="matrix(1, -0.01, 0.01, 1, 117.12, 65.79)">Ex-Checker</text></svg>