<?xml version="1.0" encoding="UTF-8"?>
<svg version="1.1" xmlns="http://www.w3.org/2000/svg" width="786" height="1064">
<path d="M0 0 C233.97 0 467.94 0 709 0 C709 351.12 709 702.24 709 1064 C475.03 1064 241.06 1064 0 1064 C0 712.88 0 361.76 0 0 Z " fill="#1C2022" transform="translate(38,0)"/>
<path d="M0 0 C0.495 0.99 0.495 0.99 1 2 C0.09239638 4.59732225 -0.87067892 7.09450975 -1.9375 9.625 C-2.22818359 10.33140625 -2.51886719 11.0378125 -2.81835938 11.765625 C-3.53867488 13.51327573 -4.26845694 15.25701915 -5 17 C-4.24976563 16.95359375 -3.49953125 16.9071875 -2.7265625 16.859375 C7.95265309 16.48277798 15.15471014 18.95094551 23.30859375 25.828125 C29.3470431 33.58188444 28.44046584 42.93974866 28.3984375 52.25 C28.40046182 53.83366021 28.40337623 55.41731952 28.40713501 57.00097656 C28.41154153 60.30933566 28.40518158 63.61745067 28.39111328 66.92578125 C28.37402223 71.14889968 28.38387244 75.37144597 28.40183067 79.59454346 C28.41271396 82.86153408 28.40920144 86.12839091 28.4014473 89.39538574 C28.39945782 90.95178293 28.40186013 92.50819259 28.40888596 94.0645752 C28.47202687 111.97975836 28.47202687 111.97975836 22.625 118.75 C21.75875 119.4925 20.8925 120.235 20 121 C18.824375 122.0828125 18.824375 122.0828125 17.625 123.1875 C10.9430465 127.80122979 3.57891695 127.28064416 -4.2421875 127.23046875 C-5.40630157 127.23001053 -6.57041565 127.22955231 -7.76980591 127.2290802 C-10.21894354 127.22606911 -12.66807944 127.21821721 -15.1171875 127.20581055 C-18.88288069 127.1874616 -22.6483291 127.18530165 -26.4140625 127.18554688 C-28.79427298 127.18063483 -31.17448178 127.17480789 -33.5546875 127.16796875 C-34.68687714 127.16685593 -35.81906677 127.1657431 -36.98556519 127.16459656 C-38.02399567 127.15821671 -39.06242615 127.15183685 -40.13232422 127.14526367 C-41.05052948 127.14145187 -41.96873474 127.13764008 -42.9147644 127.13371277 C-45 127 -45 127 -46 126 C-46.13876358 122.86891938 -46.21328852 119.76161759 -46.23828125 116.62890625 C-46.246353 115.67741196 -46.25442474 114.72591766 -46.26274109 113.74559021 C-46.27660822 111.72209507 -46.28731854 109.69857627 -46.29516602 107.67504883 C-46.31225515 104.60646619 -46.35610191 101.5389959 -46.40039062 98.47070312 C-46.41052824 96.50261208 -46.41904099 94.53451186 -46.42578125 92.56640625 C-46.44328934 91.65870987 -46.46079742 90.75101349 -46.47883606 89.81581116 C-46.44840225 80.69336818 -43.20920521 73.41933137 -38.3125 65.8125 C-37.62671875 64.73226562 -36.9409375 63.65203125 -36.234375 62.5390625 C-35.69393555 61.69069824 -35.69393555 61.69069824 -35.14257812 60.82519531 C-32.63897662 56.82585239 -30.26745185 52.7437684 -27.88208008 48.6730957 C-26.94826355 47.09913787 -25.97783724 45.54699415 -25 44 C-24.67 44 -24.34 44 -24 44 C-23.67 65.12 -23.34 86.24 -23 108 C-8.50607167 109.09231398 -8.50607167 109.09231398 5 106 C6.35943782 103.28112436 6.14975353 101.1129284 6.17700195 98.0690918 C6.18983719 96.82407394 6.20267242 95.57905609 6.21589661 94.29631042 C6.22406428 92.93061724 6.23150796 91.56491956 6.23828125 90.19921875 C6.24235678 89.51224222 6.2464323 88.82526569 6.25063133 88.11747169 C6.27149176 84.48074265 6.28579304 80.84405133 6.29516602 77.20727539 C6.30622525 73.45443992 6.34061858 69.70219826 6.38033772 65.94957256 C6.40650911 63.06102918 6.41485829 60.17262711 6.41844749 57.2839756 C6.42331289 55.90089728 6.43492574 54.51782525 6.45348549 53.1348629 C6.47788099 51.19641825 6.47449171 49.25768468 6.4699707 47.3190918 C6.47583694 46.21703903 6.48170319 45.11498627 6.48774719 43.97953796 C5.88522516 40.29886628 4.59703306 38.62984584 2 36 C-0.38810069 35.23235619 -0.38810069 35.23235619 -2.984375 35.29296875 C-3.91894531 35.26396484 -4.85351562 35.23496094 -5.81640625 35.20507812 C-6.78449219 35.19927734 -7.75257813 35.19347656 -8.75 35.1875 C-9.73355469 35.16236328 -10.71710938 35.13722656 -11.73046875 35.11132812 C-14.15404766 35.05250339 -16.57582278 35.01619081 -19 35 C-17.63527992 31.38271869 -16.01467507 28.08435685 -14.1015625 24.7265625 C-13.53953125 23.7365625 -12.9775 22.7465625 -12.3984375 21.7265625 C-11.81320312 20.70304688 -11.22796875 19.67953125 -10.625 18.625 C-9.75875 17.10132813 -9.75875 17.10132813 -8.875 15.546875 C-7.25333302 12.69599926 -5.62759041 9.8474972 -4 7 C-3.35369629 5.86836426 -3.35369629 5.86836426 -2.69433594 4.71386719 C-1.79665477 3.14233196 -0.89841327 1.57111681 0 0 Z " fill="#BDBBBA" transform="translate(480,692)"/>
<path d="M0 0 C1.09248047 0.00193359 1.09248047 0.00193359 2.20703125 0.00390625 C7.59351504 0.09351504 7.59351504 0.09351504 9.875 2.375 C10.08203707 5.03317569 10.16549277 7.58943664 10.16210938 10.24951172 C10.16894241 11.06267853 10.17577545 11.87584534 10.18281555 12.71365356 C10.19642384 14.48262634 10.20546407 16.25163871 10.21052551 18.02065659 C10.21879425 20.81966705 10.23928086 23.61834803 10.26306152 26.41726685 C10.3113638 32.36146252 10.34424326 38.30569105 10.375 44.25 C10.41064475 51.13013057 10.45256402 58.01010102 10.51094055 64.8900795 C10.53102466 67.64873614 10.53933263 70.40727054 10.54724121 73.16598511 C10.56021421 74.85789433 10.57373461 76.54979948 10.58789062 78.24169922 C10.58690872 79.00963806 10.58592682 79.7775769 10.58491516 80.56878662 C10.62827881 84.28708058 10.67139754 87.28141575 12.875 90.375 C16.8774898 92.3762449 21.9117017 91.64761361 26.3125 91.6875 C27.37533203 91.71650391 28.43816406 91.74550781 29.53320312 91.77539062 C30.55220703 91.78376953 31.57121094 91.79214844 32.62109375 91.80078125 C33.55622803 91.81536377 34.4913623 91.82994629 35.45483398 91.8449707 C37.93942266 91.58501161 37.93942266 91.58501161 39.5012207 89.85296631 C41.42643234 86.38034913 41.29874076 83.12625887 41.27563477 79.25756836 C41.28261383 78.4425032 41.2895929 77.62743805 41.29678345 76.78767395 C41.31676061 74.09662534 41.31625999 71.40595991 41.31640625 68.71484375 C41.32817621 66.84443627 41.3415395 64.97403819 41.35643005 63.10365295 C41.39262995 58.18110879 41.412823 53.25864799 41.42797852 48.33599854 C41.45280355 40.45293577 41.49237269 32.5700572 41.54987907 24.68716621 C41.56623496 21.93120675 41.5699881 19.1754204 41.57289124 16.41941833 C41.58266529 14.73395486 41.5929282 13.04849412 41.60375977 11.36303711 C41.60120682 10.59464508 41.59865387 9.82625305 41.59602356 9.03457642 C41.63245119 5.27267167 41.73454819 3.58567772 43.875 0.375 C45.83032227 0.01855469 45.83032227 0.01855469 48.19140625 0.046875 C49.03767578 0.05203125 49.88394531 0.0571875 50.75585938 0.0625 C51.64080078 0.083125 52.52574219 0.10375 53.4375 0.125 C54.77071289 0.13273438 54.77071289 0.13273438 56.13085938 0.140625 C62.72105454 0.22105454 62.72105454 0.22105454 63.875 1.375 C63.99940955 2.8757737 64.05561134 4.38228072 64.08374023 5.88793945 C64.10303085 6.85016922 64.12232147 7.81239899 64.14219666 8.80378723 C64.20004336 13.25367627 64.24932566 17.70339839 64.2800293 22.15356445 C64.30149687 24.48997886 64.33546354 26.82631535 64.38256836 29.16235352 C64.86643387 53.37801436 64.86643387 53.37801436 57.875 63.375 C56.8232863 65.20445983 55.78307388 67.04057501 54.75390625 68.8828125 C53.6520388 70.75732989 52.54643777 72.62965663 51.4375 74.5 C50.20770121 76.59077414 48.97855854 78.68193433 47.75 80.7734375 C47.11707031 81.84948242 46.48414063 82.92552734 45.83203125 84.03417969 C42.50465594 89.71429492 39.2216979 95.41984607 35.9375 101.125 C31.27552545 109.22339456 26.59142001 117.30817164 21.875 125.375 C20.63906109 121.66718328 21.3071868 120.69989747 22.8125 117.1875 C23.19277344 116.28644531 23.57304687 115.38539063 23.96484375 114.45703125 C24.26519531 113.76996094 24.56554687 113.08289063 24.875 112.375 C23.91980469 112.34921875 22.96460938 112.3234375 21.98046875 112.296875 C12.01293877 111.85961546 2.5055271 111.18541302 -5.125 104 C-11.57277173 96.76553842 -12.2687195 89.4238112 -12.30200195 80.04638672 C-12.30857315 79.2326358 -12.31514435 78.41888489 -12.32191467 77.58047485 C-12.34152314 74.90521132 -12.35327688 72.23000334 -12.36328125 69.5546875 C-12.36735678 68.6384473 -12.3714323 67.72220711 -12.37563133 66.77820206 C-12.39643009 61.9366097 -12.41076342 57.09504523 -12.42016602 52.25341797 C-12.4312706 47.25187074 -12.46573433 42.25076348 -12.50533772 37.24937248 C-12.53144099 33.40096189 -12.5398518 29.55265776 -12.54344749 25.70416641 C-12.54832284 23.85974247 -12.55996374 22.01532357 -12.57848549 20.17098618 C-12.60276322 17.59523783 -12.60193413 15.02065129 -12.5949707 12.44482422 C-12.60778076 11.68316956 -12.62059082 10.92151489 -12.63378906 10.13677979 C-12.59981247 6.69393347 -12.37650773 4.72271588 -10.33439636 1.89944458 C-7.04843743 -0.36780921 -3.83984738 -0.1305136 0 0 Z " fill="#BBB9B8" transform="translate(386.125,684.625)"/>
<path d="M0 0 C1.20188965 0.00080566 2.4037793 0.00161133 3.64208984 0.00244141 C12.61601761 0.06404732 21.22234675 0.6358291 30.0625 2.1875 C30.88878906 2.30867187 31.71507812 2.42984375 32.56640625 2.5546875 C42.56480123 4.30753671 54.17606057 9.53590064 61.0625 17.1875 C60.7325 17.8475 60.4025 18.5075 60.0625 19.1875 C58.6703125 17.8571875 58.6703125 17.8571875 57.25 16.5 C45.19051288 6.2567007 30.12850516 5.81139948 15 5.875 C14.3219632 5.87649048 13.64392639 5.87798096 12.94534302 5.8795166 C1.76396118 5.92356821 -9.01495677 6.69548976 -19.9375 9.1875 C-21.18015625 9.45433594 -22.4228125 9.72117188 -23.703125 9.99609375 C-34.2949322 12.62071558 -44.2214438 17.36670095 -51.9375 25.1875 C-52.5975 25.1875 -53.2575 25.1875 -53.9375 25.1875 C-54.22625 25.97125 -54.515 26.755 -54.8125 27.5625 C-55.9375 30.1875 -55.9375 30.1875 -57.9375 32.1875 C-56.85547145 25.04611154 -54.30369224 20.01707302 -48.9375 15.1875 C-48.339375 14.589375 -47.74125 13.99125 -47.125 13.375 C-46.733125 12.983125 -46.34125 12.59125 -45.9375 12.1875 C-48.80474686 12.76094937 -49.7989515 13.0489515 -51.9375 15.1875 C-52.9275 14.8575 -53.9175 14.5275 -54.9375 14.1875 C-54.9375 14.8475 -54.9375 15.5075 -54.9375 16.1875 C-54.2775 16.5175 -53.6175 16.8475 -52.9375 17.1875 C-53.63875 17.93 -54.34 18.6725 -55.0625 19.4375 C-62.31907939 28.31807308 -65.00614071 38.37649769 -67.17578125 49.37890625 C-67.9375 53.1875 -67.9375 53.1875 -68.9375 56.1875 C-69.15704669 58.34255729 -69.32813898 60.50267697 -69.47265625 62.6640625 C-69.55990967 63.96706299 -69.64716309 65.27006348 -69.73706055 66.61254883 C-69.82534123 68.0124927 -69.91297609 69.41247744 -70 70.8125 C-70.04452301 71.51490814 -70.08904602 72.21731628 -70.13491821 72.94100952 C-71.00179982 86.74570878 -71.68603767 100.41776583 -69.9375 114.1875 C-70.9275 114.6825 -70.9275 114.6825 -71.9375 115.1875 C-71.48455135 116.93890143 -71.02491252 118.68857344 -70.5625 120.4375 C-70.30726563 121.41203125 -70.05203125 122.3865625 -69.7890625 123.390625 C-69.0640748 126.13937004 -69.0640748 126.13937004 -67.7734375 128.234375 C-66.65364148 130.85072085 -67.19119395 132.50079821 -67.9375 135.1875 C-70.06222576 135.24136629 -72.18733652 135.28023071 -74.3125 135.3125 C-75.49585938 135.33570313 -76.67921875 135.35890625 -77.8984375 135.3828125 C-80.9375 135.1875 -80.9375 135.1875 -82.9375 133.1875 C-83.2675 133.1875 -83.5975 133.1875 -83.9375 133.1875 C-84.80289346 124.40993778 -85.04627654 115.68974429 -85.0625 106.875 C-85.06701172 105.86179687 -85.07152344 104.84859375 -85.07617188 103.8046875 C-85.06595922 98.6098511 -84.82724429 93.56768493 -84.17822266 88.4152832 C-83.82664663 85.16160037 -83.74710429 81.91174366 -83.64794922 78.64208984 C-83.14135914 62.60779027 -81.66974167 47.19989384 -76.5 31.9375 C-76.2117334 31.07302246 -75.9234668 30.20854492 -75.62646484 29.31787109 C-75.19454834 28.13185303 -75.19454834 28.13185303 -74.75390625 26.921875 C-74.50068604 26.22288086 -74.24746582 25.52388672 -73.98657227 24.80371094 C-72.9375 23.1875 -72.9375 23.1875 -70.87866211 22.59863281 C-70.23807861 22.46295898 -69.59749512 22.32728516 -68.9375 22.1875 C-68.64875 21.424375 -68.36 20.66125 -68.0625 19.875 C-66.48767068 16.11290772 -64.50520808 15.07232691 -60.9375 13.1875 C-57.0625 12.4375 -57.0625 12.4375 -53.9375 12.1875 C-53.9375 11.5275 -53.9375 10.8675 -53.9375 10.1875 C-35.907537 4.91736048 -18.92943222 -0.01308185 0 0 Z M-85.9375 133.1875 C-85.2775 133.5175 -84.6175 133.8475 -83.9375 134.1875 C-84.9275 135.1775 -85.9175 136.1675 -86.9375 137.1875 C-86.6075 135.8675 -86.2775 134.5475 -85.9375 133.1875 Z " fill="#1A1D1F" transform="translate(407.9375,221.8125)"/>
<path d="M0 0 C11.01844173 4.82766777 22.04699455 11.45856278 27 23 C27.60200899 25.39891462 27.84479294 27.5166871 28 30 C27.34 30 26.68 30 26 30 C25.61328125 29.10796875 25.2265625 28.2159375 24.828125 27.296875 C24.30734375 26.12640625 23.7865625 24.9559375 23.25 23.75 C22.73953125 22.58984375 22.2290625 21.4296875 21.703125 20.234375 C20.08736299 17.16590953 18.48520773 15.35554472 16 13 C16 12.34 16 11.68 16 11 C15.42765625 10.71382812 14.8553125 10.42765625 14.265625 10.1328125 C10.84375 8.421875 7.421875 6.7109375 4 5 C7.29698306 8.40372874 7.29698306 8.40372874 10.90234375 11.46875 C19.85804325 18.48204251 23.94018643 29.0143276 26 40 C26 41.32 26 42.64 26 44 C26.66 44 27.32 44 28 44 C27.67 40.04 27.34 36.08 27 32 C27.66 32 28.32 32 29 32 C29.69343884 34.32797327 30.35468981 36.65857045 31 39 C31.19078125 39.64066406 31.3815625 40.28132813 31.578125 40.94140625 C33.21923978 47.11903116 33.12467596 53.08421955 32.97265625 59.44921875 C32.99815629 62.76058111 33.35761191 65.75818105 34 69 C33.34 69 32.68 69 32 69 C30.68 64.05 29.36 59.1 28 54 C28.19916016 55.89492188 28.19916016 55.89492188 28.40234375 57.828125 C29.94424832 73.20344937 30.58243109 88.55674016 31 104 C31.33 102.02 31.66 100.04 32 98 C32.33 98 32.66 98 33 98 C33 89.09 33 80.18 33 71 C35.99648261 75.49472392 36.12570937 79.64476094 36.31640625 84.95703125 C36.35830078 86.06884766 36.40019531 87.18066406 36.44335938 88.32617188 C36.48267578 89.47666016 36.52199219 90.62714844 36.5625 91.8125 C36.60568359 92.98232422 36.64886719 94.15214844 36.69335938 95.35742188 C36.79918279 98.23817031 36.90126825 101.11900123 37 104 C36.67 104 36.34 104 36 104 C35.67 107.63 35.34 111.26 35 115 C33 113 33 113 31 108 C31.495 115.92 31.495 115.92 32 124 C42.59056069 125.55267986 42.59056069 125.55267986 53 124 C52.505 125.485 52.505 125.485 52 127 C39.87778462 127.86492206 28.11454735 128.00825298 16 127 C16 124.69 16 122.38 16 120 C16.66 120 17.32 120 18 120 C17.51031738 119.28730957 17.02063477 118.57461914 16.51611328 117.84033203 C14.84492413 114.70947622 14.6592175 113.06183566 14.7421875 109.5546875 C14.75741455 108.4922583 14.7726416 107.4298291 14.78833008 106.33520508 C14.81693115 105.1933374 14.84553223 104.05146973 14.875 102.875 C14.90058513 100.41800225 14.92262557 97.96096543 14.94140625 95.50390625 C14.95316895 94.25109863 14.96493164 92.99829102 14.97705078 91.70751953 C15.07754046 75.47309142 14.08345184 59.65220286 11.5625 43.625 C11.45322174 42.92637848 11.34394348 42.22775696 11.23135376 41.50796509 C9.81875404 32.56250982 9.81875404 32.56250982 7 24 C6.7525 22.741875 6.505 21.48375 6.25 20.1875 C5.25966583 15.96260664 3.1736793 13.17015195 0.4375 9.859375 C-1.00919859 7.98810182 -2.01354634 6.14363969 -3 4 C-1.0625 4.375 -1.0625 4.375 1 5 C1.33 5.66 1.66 6.32 2 7 C2 6.01 2 5.02 2 4 C1.01 3.67 0.02 3.34 -1 3 C-0.67 2.01 -0.34 1.02 0 0 Z " fill="#24272A" transform="translate(468,230)"/>
<path d="M0 0 C0.99388985 -0.00204689 0.99388985 -0.00204689 2.00785828 -0.00413513 C4.1732583 -0.006161 6.33852011 0.00017052 8.50390625 0.0078125 C9.24662781 0.00903107 9.98934937 0.01024963 10.75457764 0.01150513 C21.90511929 0.03282861 33.04647702 0.21893022 44.19140625 0.5703125 C45.46943115 0.60946777 46.74745605 0.64862305 48.06420898 0.68896484 C54.13439188 0.90178206 60.04807847 1.33045038 66.06640625 2.1328125 C67.73935354 28.82655518 68.33631542 55.38896598 68.06640625 82.1328125 C67.40640625 81.4728125 66.74640625 80.8128125 66.06640625 80.1328125 C66.06640625 79.1428125 66.06640625 78.1528125 66.06640625 77.1328125 C64.74640625 77.1328125 63.42640625 77.1328125 62.06640625 77.1328125 C61.77085969 69.44860197 61.77085969 69.44860197 64.06640625 66.1328125 C64.72640625 65.8028125 65.38640625 65.4728125 66.06640625 65.1328125 C65.89238281 64.58109375 65.71835937 64.029375 65.5390625 63.4609375 C64.99235333 60.76805597 65.18138344 58.60633846 65.50390625 55.8828125 C65.60574219 54.99078125 65.70757813 54.09875 65.8125 53.1796875 C65.93818359 52.16648437 65.93818359 52.16648437 66.06640625 51.1328125 C65.07640625 51.1328125 64.08640625 51.1328125 63.06640625 51.1328125 C62.40640625 52.1228125 61.74640625 53.1128125 61.06640625 54.1328125 C59.74640625 50.8328125 58.42640625 47.5328125 57.06640625 44.1328125 C55.74640625 44.4628125 54.42640625 44.7928125 53.06640625 45.1328125 C53.06640625 43.4828125 53.06640625 41.8328125 53.06640625 40.1328125 C54.05640625 39.8028125 55.04640625 39.4728125 56.06640625 39.1328125 C56.72640625 39.4628125 57.38640625 39.7928125 58.06640625 40.1328125 C58.06640625 39.4728125 58.06640625 38.8128125 58.06640625 38.1328125 C58.72640625 38.1328125 59.38640625 38.1328125 60.06640625 38.1328125 C60.72640625 35.8228125 61.38640625 33.5128125 62.06640625 31.1328125 C61.07640625 30.1428125 61.07640625 30.1428125 60.06640625 29.1328125 C59.73640625 30.4528125 59.40640625 31.7728125 59.06640625 33.1328125 C57.74640625 33.4628125 56.42640625 33.7928125 55.06640625 34.1328125 C55.06640625 34.7928125 55.06640625 35.4528125 55.06640625 36.1328125 C53.58140625 36.6278125 53.58140625 36.6278125 52.06640625 37.1328125 C51.40640625 36.1428125 50.74640625 35.1528125 50.06640625 34.1328125 C49.73640625 33.8028125 49.40640625 33.4728125 49.06640625 33.1328125 C48.40640625 34.4528125 47.74640625 35.7728125 47.06640625 37.1328125 C46.73640625 36.1428125 46.40640625 35.1528125 46.06640625 34.1328125 C45.07640625 34.1328125 44.08640625 34.1328125 43.06640625 34.1328125 C42.07640625 34.1328125 41.08640625 34.1328125 40.06640625 34.1328125 C39.40640625 31.1628125 38.74640625 28.1928125 38.06640625 25.1328125 C40.37640625 25.1328125 42.68640625 25.1328125 45.06640625 25.1328125 C47.44107721 19.4336022 48.16911997 13.27851687 48.06640625 7.1328125 C47.18465525 4.83252927 47.18465525 4.83252927 46.06640625 3.1328125 C43.5937386 3.47726131 43.5937386 3.47726131 41.06640625 4.1328125 C40.73640625 4.7928125 40.40640625 5.4528125 40.06640625 6.1328125 C39.40640625 5.8028125 38.74640625 5.4728125 38.06640625 5.1328125 C38.06640625 4.4728125 38.06640625 3.8128125 38.06640625 3.1328125 C37.13828125 3.1328125 36.21015625 3.1328125 35.25390625 3.1328125 C33.19140625 3.1328125 31.12890625 3.1328125 29.06640625 3.1328125 C26.89608149 4.57271873 26.89608149 4.57271873 25.06640625 6.1328125 C25.06640625 5.1428125 25.06640625 4.1528125 25.06640625 3.1328125 C24.36370605 3.29434814 23.66100586 3.45588379 22.93701172 3.62231445 C17.73182168 4.54798654 12.46476369 4.31739904 7.19140625 4.3203125 C6.03253906 4.33255859 4.87367188 4.34480469 3.6796875 4.35742188 C-2.24687885 4.3675817 -7.35196535 4.19134309 -12.93359375 2.1328125 C-12.93359375 1.8028125 -12.93359375 1.4728125 -12.93359375 1.1328125 C-8.56822807 0.29652919 -4.44213992 0.00419042 0 0 Z M47.06640625 3.1328125 C48.06640625 5.1328125 48.06640625 5.1328125 48.06640625 5.1328125 Z " fill="#5E5B57" transform="translate(602.93359375,352.8671875)"/>
<path d="M0 0 C1.32 0 2.64 0 4 0 C4 3.63 4 7.26 4 11 C6.31 11.33 8.62 11.66 11 12 C11.66 8.37 12.32 4.74 13 1 C14.65 0.67 16.3 0.34 18 0 C18.67756882 1.55780332 19.34159457 3.12150096 20 4.6875 C20.37125 5.55761719 20.7425 6.42773438 21.125 7.32421875 C22.01870488 10.0572002 22.16449676 12.14700934 22 15 C21.01 15 20.02 15 19 15 C19 15.66 19 16.32 19 17 C19.886875 16.9175 20.77375 16.835 21.6875 16.75 C25.82626618 17.06235971 27.28086874 17.8809965 30 21 C30.3125 24.5 30.3125 24.5 30 28 C30 29.32 30 30.64 30 32 C30.103125 31.360625 30.20625 30.72125 30.3125 30.0625 C31.23903073 25.93522674 32.61660629 21.99357051 34 18 C35.65 18 37.3 18 39 18 C39.48108275 19.41601714 39.95978141 20.83284437 40.4375 22.25 C40.70433594 23.03890625 40.97117187 23.8278125 41.24609375 24.640625 C41.91954708 26.74821988 42.49150595 28.84753973 43 31 C41.35 31 39.7 31 38 31 C37.855625 31.763125 37.71125 32.52625 37.5625 33.3125 C36.74684441 37.20952114 35.9237617 39.33047845 33 42 C33.66 42 34.32 42 35 42 C34.34 44.64 33.68 47.28 33 50 C26.07 50 19.14 50 12 50 C12 45.38 12 40.76 12 36 C13.98 35.34 15.96 34.68 18 34 C18 33.34 18 32.68 18 32 C16.02 32 14.04 32 12 32 C11.97307516 29.70839681 11.95363876 27.41670454 11.9375 25.125 C11.92589844 23.84882812 11.91429687 22.57265625 11.90234375 21.2578125 C12 18 12 18 13 16 C11.71802734 15.90912109 11.71802734 15.90912109 10.41015625 15.81640625 C9.30542969 15.73261719 8.20070313 15.64882813 7.0625 15.5625 C5.96035156 15.48128906 4.85820312 15.40007813 3.72265625 15.31640625 C1 15 1 15 0 14 C-0.07271741 11.64686445 -0.08370868 9.29166332 -0.0625 6.9375 C-0.05347656 5.64714844 -0.04445313 4.35679687 -0.03515625 3.02734375 C-0.02355469 2.02832031 -0.01195312 1.02929688 0 0 Z M38 32 C39.65 32 41.3 32 43 32 C43 32.33 43 32.66 43 33 C41.35 33 39.7 33 38 33 C38 32.67 38 32.34 38 32 Z " fill="#1C090D" transform="translate(297,617)"/>
<path d="M0 0 C12.71747137 0.01149832 25.43494352 0.01675431 38.15241885 0.021703 C64.15501287 0.03195008 90.15759759 0.04934878 116.16018355 0.07202661 C116.16018355 1.06202661 116.16018355 2.05202661 116.16018355 3.07202661 C115.2220134 3.07064392 115.2220134 3.07064392 114.26489031 3.0692333 C93.58416097 3.03930095 72.90343118 3.0204297 52.22268355 3.00952661 C51.42174458 3.00909231 50.62080561 3.008658 49.79559577 3.00821054 C-4.08525268 2.97981694 -57.95742624 3.21318904 -111.83562887 3.75185239 C-120.69923207 3.84003182 -129.56287996 3.9203021 -138.42663038 3.99222219 C-143.7137862 4.03532312 -149.00080422 4.08339991 -154.2878145 4.14185083 C-159.41790011 4.19801347 -164.54790249 4.23954875 -169.67820299 4.2700094 C-171.56807542 4.28370956 -173.45791827 4.30260884 -175.34768236 4.32704675 C-177.91452367 4.35947837 -180.48081008 4.37342111 -183.04782426 4.38257349 C-184.17672201 4.40341249 -184.17672201 4.40341249 -185.32842577 4.42467248 C-190.45403864 4.41450429 -190.45403864 4.41450429 -192.55400026 2.55024469 C-192.9783196 2.06243272 -193.40263895 1.57462076 -193.83981645 1.07202661 C-129.22496317 0.13821006 -64.62093144 -0.05953621 0 0 Z " fill="#111416" transform="translate(559.8398164510727,999.9279733896255)"/>
<path d="M0 0 C0.33 0 0.66 0 1 0 C1.495 6.93 1.495 6.93 2 14 C3.918125 14.12375 5.83625 14.2475 7.8125 14.375 C13.625 14.75 13.625 14.75 17 17 C16.01 17.33 15.02 17.66 14 18 C13.67 22.62 13.34 27.24 13 32 C14.65 32 16.3 32 18 32 C18 27.38 18 22.76 18 18 C18.33 18 18.66 18 19 18 C19 22.62 19 27.24 19 32 C20.65 32 22.3 32 24 32 C23.38125 32.28875 22.7625 32.5775 22.125 32.875 C19.86674235 33.93720042 19.86674235 33.93720042 18 36 C16.35 36 14.7 36 13 36 C13 40.62 13 45.24 13 50 C19.93 50 26.86 50 34 50 C34 48.68 34 47.36 34 46 C34.99 46 35.98 46 37 46 C37 45.34 37 44.68 37 44 C37.66 44 38.32 44 39 44 C39.25 46.8125 39.25 46.8125 39 50 C37 51.875 37 51.875 35 53 C34.01 52.505 34.01 52.505 33 52 C32.67 52.99 32.34 53.98 32 55 C31.01 55.33 30.02 55.66 29 56 C28.5875 55.484375 28.175 54.96875 27.75 54.4375 C27.1725 53.963125 26.595 53.48875 26 53 C24.65938457 53.30271961 23.32594105 53.63837971 22 54 C21.401875 53.690625 20.80375 53.38125 20.1875 53.0625 C17.10602866 51.56578535 14.37435478 51.87021712 11 52 C11 52.99 11 53.98 11 55 C10.34 54.67 9.68 54.34 9 54 C8.375 51.9375 8.375 51.9375 8 50 C7.236875 50.495 6.47375 50.99 5.6875 51.5 C3 53 3 53 0 53 C-0.33 53.33 -0.66 53.66 -1 54 C-2.42890306 54.26085451 -3.86942147 54.45967185 -5.3125 54.625 C-6.09238281 54.72039063 -6.87226563 54.81578125 -7.67578125 54.9140625 C-10 55 -10 55 -14 54 C-14 51.03 -14 48.06 -14 45 C-14.66 45 -15.32 45 -16 45 C-16.33 43.68 -16.66 42.36 -17 41 C-11.08315098 36.09846827 -11.08315098 36.09846827 -6.5625 35.6875 C-5.716875 35.790625 -4.87125 35.89375 -4 36 C-3.34 37.32 -2.68 38.64 -2 40 C-3.98 39.67 -5.96 39.34 -8 39 C-8 39.66 -8 40.32 -8 41 C-7.05125 41.268125 -6.1025 41.53625 -5.125 41.8125 C-2 43 -2 43 0 46 C0.38091797 44.93458984 0.38091797 44.93458984 0.76953125 43.84765625 C1.11371094 42.92855469 1.45789063 42.00945313 1.8125 41.0625 C2.14894531 40.14597656 2.48539062 39.22945312 2.83203125 38.28515625 C4 36 4 36 7 35 C7 34.34 7 33.68 7 33 C8.32 33 9.64 33 11 33 C10.649375 31.783125 10.29875 30.56625 9.9375 29.3125 C9.05285244 25.84763041 9.04773586 23.49163519 10 20 C8.33657163 18.33657163 6.2174291 18.63951903 3.9375 18.4375 C2.308125 18.293125 0.67875 18.14875 -1 18 C-1 22.62 -1 27.24 -1 32 C-1.33 32 -1.66 32 -2 32 C-2 29.03 -2 26.06 -2 23 C-3.98 23 -5.96 23 -8 23 C-8 22.67 -8 22.34 -8 22 C-6.02 22 -4.04 22 -2 22 C-2 20.68 -2 19.36 -2 18 C-6.95 18.495 -6.95 18.495 -12 19 C-12.33 23.29 -12.66 27.58 -13 32 C-13.33 32 -13.66 32 -14 32 C-14.05398987 29.72942623 -14.09278742 27.45848712 -14.125 25.1875 C-14.14820313 23.92292969 -14.17140625 22.65835938 -14.1953125 21.35546875 C-14 18 -14 18 -12 15 C-9.90625 14.70703125 -9.90625 14.70703125 -7.5 14.8125 C-6.7059375 14.83957031 -5.911875 14.86664062 -5.09375 14.89453125 C-4.4028125 14.92933594 -3.711875 14.96414063 -3 15 C-2.34 15 -1.68 15 -1 15 C-1.01160156 14.00097656 -1.02320313 13.00195312 -1.03515625 11.97265625 C-1.04417969 10.68230469 -1.05320312 9.39195312 -1.0625 8.0625 C-1.07410156 6.77472656 -1.08570313 5.48695313 -1.09765625 4.16015625 C-1 1 -1 1 0 0 Z " fill="#0D090D" transform="translate(296,617)"/>
<path d="M0 0 C11.01844173 4.82766777 22.04699455 11.45856278 27 23 C27.60200899 25.39891462 27.84479294 27.5166871 28 30 C27.34 30 26.68 30 26 30 C25.61328125 29.10796875 25.2265625 28.2159375 24.828125 27.296875 C24.30734375 26.12640625 23.7865625 24.9559375 23.25 23.75 C22.73953125 22.58984375 22.2290625 21.4296875 21.703125 20.234375 C20.08736299 17.16590953 18.48520773 15.35554472 16 13 C16 12.34 16 11.68 16 11 C15.42765625 10.71382812 14.8553125 10.42765625 14.265625 10.1328125 C10.84375 8.421875 7.421875 6.7109375 4 5 C4.37511719 5.54785156 4.75023437 6.09570312 5.13671875 6.66015625 C11.121014 15.93053806 15.64759127 26.31353048 14.984375 37.49609375 C15.00350209 40.56121005 15.63783821 43.21355807 16.375 46.1875 C20.19558833 61.621408 20.25175027 76.64035089 20.125 92.4375 C20.11494539 94.63345944 20.10582395 96.82942336 20.09765625 99.02539062 C20.07585037 104.35035986 20.04257132 109.67515835 20 115 C19.34 114.67 18.68 114.34 18 114 C17.94465088 112.99622314 17.88930176 111.99244629 17.83227539 110.95825195 C17.6252713 107.22139061 17.41355457 103.48480841 17.20043945 99.74829102 C17.10899084 98.1334541 17.01880713 96.51854503 16.92993164 94.90356445 C16.80169714 92.57743358 16.668862 90.25160327 16.53515625 87.92578125 C16.49656998 87.20787918 16.4579837 86.48997711 16.41822815 85.75032043 C16.20249339 82.07793701 15.77298027 78.59289837 15 75 C14.84293287 73.51680706 14.71181303 72.030659 14.60546875 70.54296875 C13.80645456 60.26341848 12.68764927 50.11250503 11 39.9375 C10.83395264 38.92131592 10.66790527 37.90513184 10.49682617 36.8581543 C9.71155392 32.28505283 8.74584383 28.30615499 7 24 C6.7525 22.741875 6.505 21.48375 6.25 20.1875 C5.25966583 15.96260664 3.1736793 13.17015195 0.4375 9.859375 C-1.00919859 7.98810182 -2.01354634 6.14363969 -3 4 C-1.0625 4.375 -1.0625 4.375 1 5 C1.33 5.66 1.66 6.32 2 7 C2 6.01 2 5.02 2 4 C1.01 3.67 0.02 3.34 -1 3 C-0.67 2.01 -0.34 1.02 0 0 Z " fill="#353736" transform="translate(468,230)"/>
<path d="M0 0 C1.20188965 0.00080566 2.4037793 0.00161133 3.64208984 0.00244141 C12.61601761 0.06404732 21.22234675 0.6358291 30.0625 2.1875 C30.88878906 2.30867187 31.71507812 2.42984375 32.56640625 2.5546875 C42.56480123 4.30753671 54.17606057 9.53590064 61.0625 17.1875 C60.7325 17.8475 60.4025 18.5075 60.0625 19.1875 C59.134375 18.300625 58.20625 17.41375 57.25 16.5 C45.19051288 6.2567007 30.12850516 5.81139948 15 5.875 C14.3219632 5.87649048 13.64392639 5.87798096 12.94534302 5.8795166 C1.76396118 5.92356821 -9.01495677 6.69548976 -19.9375 9.1875 C-21.18015625 9.45433594 -22.4228125 9.72117188 -23.703125 9.99609375 C-34.2949322 12.62071558 -44.2214438 17.36670095 -51.9375 25.1875 C-52.5975 25.1875 -53.2575 25.1875 -53.9375 25.1875 C-54.22625 25.97125 -54.515 26.755 -54.8125 27.5625 C-55.9375 30.1875 -55.9375 30.1875 -57.9375 32.1875 C-56.87514305 25.17594412 -54.43207314 19.76631095 -48.9375 15.1875 C-46.125 13.875 -46.125 13.875 -43.9375 13.1875 C-43.9375 12.5275 -43.9375 11.8675 -43.9375 11.1875 C-42.91527344 11.06246094 -41.89304687 10.93742188 -40.83984375 10.80859375 C-37.21995665 10.23245556 -33.98606851 9.35901339 -30.5 8.25 C-18.58650834 4.75942283 -6.28872155 3.99117538 6.0625 3.1875 C-5.70319797 3.37967417 -16.96192496 3.92041353 -28.38818359 6.90332031 C-33.67865643 8.27378119 -33.67865643 8.27378119 -36.9375 7.1875 C-35.6175 6.8575 -34.2975 6.5275 -32.9375 6.1875 C-32.9375 5.5275 -32.9375 4.8675 -32.9375 4.1875 C-30.91757005 3.7045393 -28.89650646 3.22631888 -26.875 2.75 C-25.74964844 2.48316406 -24.62429688 2.21632812 -23.46484375 1.94140625 C-15.58709304 0.2576788 -8.03027701 -0.0055496 0 0 Z " fill="#0F1010" transform="translate(407.9375,221.8125)"/>
<path d="M0 0 C1.32 0 2.64 0 4 0 C4 3.63 4 7.26 4 11 C6.31 11.33 8.62 11.66 11 12 C11.66 8.37 12.32 4.74 13 1 C14.65 0.67 16.3 0.34 18 0 C18.67756882 1.55780332 19.34159457 3.12150096 20 4.6875 C20.37125 5.55761719 20.7425 6.42773438 21.125 7.32421875 C22.01870488 10.0572002 22.16449676 12.14700934 22 15 C21.01 15 20.02 15 19 15 C19 15.66 19 16.32 19 17 C19.886875 16.9175 20.77375 16.835 21.6875 16.75 C25.82626618 17.06235971 27.28086874 17.8809965 30 21 C30.62310216 24.87708008 30.74017125 26.969243 28.41796875 30.203125 C25.09450922 32.67290107 22.840197 32.40148878 18.75 32.25 C17.48671875 32.21390625 16.2234375 32.1778125 14.921875 32.140625 C13.95765625 32.09421875 12.9934375 32.0478125 12 32 C11.97307516 29.70839681 11.95363876 27.41670454 11.9375 25.125 C11.92589844 23.84882812 11.91429687 22.57265625 11.90234375 21.2578125 C12 18 12 18 13 16 C11.71802734 15.90912109 11.71802734 15.90912109 10.41015625 15.81640625 C9.30542969 15.73261719 8.20070313 15.64882813 7.0625 15.5625 C5.96035156 15.48128906 4.85820312 15.40007813 3.72265625 15.31640625 C1 15 1 15 0 14 C-0.07271741 11.64686445 -0.08370868 9.29166332 -0.0625 6.9375 C-0.05347656 5.64714844 -0.04445313 4.35679687 -0.03515625 3.02734375 C-0.02355469 2.02832031 -0.01195312 1.02929688 0 0 Z " fill="#39333C" transform="translate(297,617)"/>
<path d="M0 0 C0.66 0.33 1.32 0.66 2 1 C1.34 1.66 0.68 2.32 0 3 C-1.03842565 5.31648799 -2.0421975 7.64903024 -3 10 C-3.66 9.34 -4.32 8.68 -5 8 C-12.83315047 27.97989887 -15.33569977 46.92245459 -15.84228516 68.29199219 C-15.97879249 70.63586109 -16.22321222 72.91974993 -16.50708008 75.2487793 C-17.03331236 79.8402478 -17.12889558 84.35523904 -17.09765625 88.97265625 C-17.0962413 89.78117538 -17.09482635 90.58969452 -17.09336853 91.42271423 C-17.08783414 93.96934942 -17.0752946 96.51589203 -17.0625 99.0625 C-17.0574765 100.80403518 -17.05291509 102.54557175 -17.04882812 104.28710938 C-17.03788634 108.52477448 -17.02066826 112.76237163 -17 117 C-17.66 117 -18.32 117 -19 117 C-19 116.34 -19 115.68 -19 115 C-19.66 115 -20.32 115 -21 115 C-21.33 115.99 -21.66 116.98 -22 118 C-22.87867729 114.26562152 -23.08912219 110.83225427 -23 107 C-22.34 107 -21.68 107 -21 107 C-21.01047363 105.6809668 -21.02094727 104.36193359 -21.03173828 103.00292969 C-21.06852898 98.00800398 -21.09111038 93.01308964 -21.10986328 88.01806641 C-21.11978867 85.87514213 -21.13333335 83.7322309 -21.15087891 81.58935547 C-21.29932659 62.96353724 -20.85477537 44.8106207 -15.875 26.75 C-15.45927734 25.16832031 -15.45927734 25.16832031 -15.03515625 23.5546875 C-14.3702186 21.03251022 -13.69218998 18.51480498 -13 16 C-12.34 16 -11.68 16 -11 16 C-10.505 14.2675 -10.505 14.2675 -10 12.5 C-8.0277906 7.11250116 -4.20156396 3.75246567 0 0 Z " fill="#3A3E3F" transform="translate(341,237)"/>
<path d="M0 0 C0 0.66 0 1.32 0 2 C0.90363281 1.84402344 1.80726563 1.68804688 2.73828125 1.52734375 C4.50751953 1.23537109 4.50751953 1.23537109 6.3125 0.9375 C7.48425781 0.74027344 8.65601563 0.54304687 9.86328125 0.33984375 C13 0 13 0 16 1 C16 1.99 16 2.98 16 4 C23.92 4 31.84 4 40 4 C40 4.33 40 4.66 40 5 C10.2517241 6.01509681 -19.48812272 6.08871326 -49.25 6.0625 C-50.22874966 6.06164398 -51.20749931 6.06078796 -52.21590805 6.05990601 C-64.47728979 6.04839643 -76.73864561 6.02815165 -89 6 C-88.34 5.67 -87.68 5.34 -87 5 C-87 4.34 -87 3.68 -87 3 C-74.09733072 2.36115306 -61.23074894 1.85886061 -48.31005859 2.03710938 C-43.89084457 2.08093908 -39.74699568 1.84872575 -35.36230469 1.22265625 C-28.98148969 0.62124004 -22.50339365 0.95562439 -16.1015625 1.02050781 C-14.15367872 1.03850868 -12.2057431 1.05059818 -10.2578125 1.0625 C-8.52748779 1.07990234 -8.52748779 1.07990234 -6.76220703 1.09765625 C-4.13422236 1.00474535 -2.54202276 0 0 0 Z " fill="#0A0D0E" transform="translate(290,999)"/>
<path d="M0 0 C0.66 1.32 1.32 2.64 2 4 C-0.97 3.505 -0.97 3.505 -4 3 C-4 3.66 -4 4.32 -4 5 C-3.05125 5.268125 -2.1025 5.53625 -1.125 5.8125 C2 7 2 7 4 10 C5.32 6.7 6.64 3.4 8 0 C10.475 0.495 10.475 0.495 13 1 C13.99 5.29 14.98 9.58 16 14 C12.71920775 14.9649389 9.48260249 15.90557777 6.125 16.5625 C4.02482596 16.79184385 4.02482596 16.79184385 3 18 C1.57109694 18.26085451 0.13057853 18.45967185 -1.3125 18.625 C-2.09238281 18.72039063 -2.87226563 18.81578125 -3.67578125 18.9140625 C-6 19 -6 19 -10 18 C-10 15.03 -10 12.06 -10 9 C-10.66 9 -11.32 9 -12 9 C-12.33 7.68 -12.66 6.36 -13 5 C-8.68660704 1.42677506 -5.86197356 -0.71487482 0 0 Z " fill="#1D090C" transform="translate(292,653)"/>
<path d="M0 0 C48.84 0 97.68 0 148 0 C143.56949261 2.2152537 140.25712649 2.30606183 135.44750977 2.31884766 C134.1505442 2.33391609 134.1505442 2.33391609 132.82737732 2.34928894 C129.94872664 2.38030457 127.07017233 2.39726033 124.19140625 2.4140625 C122.15257534 2.43282983 120.11375174 2.45240708 118.07493591 2.4727478 C112.66546264 2.5242643 107.25596231 2.56366346 101.84637451 2.60089111 C96.52576339 2.6399529 91.20528025 2.69190573 85.88476562 2.7421875 C76.42169395 2.82942739 66.95865227 2.89380857 57.49530983 2.94313431 C51.04843349 2.97785659 44.60200836 3.03101448 38.15537739 3.09687996 C33.94766978 3.13708415 29.73994244 3.16477565 25.53211784 3.18943405 C23.54259804 3.20367191 21.55310801 3.22309251 19.56369209 3.24791336 C16.8287272 3.28120357 14.09426509 3.29595938 11.35913086 3.30615234 C10.14686105 3.32758615 10.14686105 3.32758615 8.91010094 3.34945297 C3.3421836 3.3421836 3.3421836 3.3421836 0 0 Z " fill="#0B0E10" transform="translate(366,1001)"/>
<path d="M0 0 C1.62463842 -0.05395478 3.24978541 -0.09277195 4.875 -0.125 C6.23238281 -0.15980469 6.23238281 -0.15980469 7.6171875 -0.1953125 C10 0 10 0 12 2 C11.68554487 4.33595238 11.3496418 6.66905466 11 9 C11.36887653 12.30714584 11.36887653 12.30714584 12 15 C10.68 15 9.36 15 8 15 C8.33 15.99 8.66 16.98 9 18 C8.38640625 18.06058594 7.7728125 18.12117187 7.140625 18.18359375 C4.77820953 18.8211165 4.77820953 18.8211165 3.734375 21.28515625 C3.40953125 22.20167969 3.0846875 23.11820313 2.75 24.0625 C2.41484375 24.98160156 2.0796875 25.90070312 1.734375 26.84765625 C1.49203125 27.55792969 1.2496875 28.26820313 1 29 C0.56042969 28.36578125 0.12085938 27.7315625 -0.33203125 27.078125 C-2.32115797 24.59986876 -4.01810024 23.96710263 -7 23 C-7 22.34 -7 21.68 -7 21 C-5.02 21.33 -3.04 21.66 -1 22 C-1.66 21.01 -2.32 20.02 -3 19 C-6.58357241 18.74984127 -6.58357241 18.74984127 -10 19 C-10.33 17.68 -10.66 16.36 -11 15 C-9.35 15 -7.7 15 -6 15 C-6.33 13.02 -6.66 11.04 -7 9 C-5.35 9 -3.7 9 -2 9 C-2 8.01 -2 7.02 -2 6 C-3.65 6 -5.3 6 -7 6 C-7 5.67 -7 5.34 -7 5 C-5.02 5 -3.04 5 -1 5 C-0.67 3.35 -0.34 1.7 0 0 Z " fill="#190B0F" transform="translate(295,635)"/>
<path d="M0 0 C9 0 9 0 11.53515625 0.96875 C13.87874703 4.21852921 13.53700118 7.65476081 13.4375 11.5 C13.44458984 12.27214844 13.45167969 13.04429687 13.45898438 13.83984375 C13.40744521 18.41493575 13.35648374 19.64351626 10 23 C6.7 23 3.4 23 0 23 C0 15.41 0 7.82 0 0 Z " fill="#B2B0B0" transform="translate(455,833)"/>
<path d="M0 0 C0.495 0.99 0.495 0.99 1 2 C-0.21582031 4.6262207 -0.21582031 4.6262207 -2.078125 7.92578125 C-2.5689859 8.80268867 -2.5689859 8.80268867 -3.06976318 9.6973114 C-4.1223767 11.57335545 -5.18608624 13.44284569 -6.25 15.3125 C-6.95254164 16.56144494 -7.65437337 17.8107895 -8.35546875 19.06054688 C-13.38181072 27.99860299 -13.38181072 27.99860299 -15.64746094 31.66870117 C-17.17426805 34.12811456 -17.17426805 34.12811456 -18.25 37.625 C-20.24586277 43.19633886 -23.41896186 48.30581989 -27 53 C-27.66 53 -28.32 53 -29 53 C-29.26425781 53.70286133 -29.52851563 54.40572266 -29.80078125 55.12988281 C-32.07204062 60.56573892 -35.12404694 65.61601954 -38 70.75 C-38.64858733 71.92309426 -39.29702628 73.09627057 -39.9453125 74.26953125 C-40.56148438 75.37167969 -41.17765625 76.47382812 -41.8125 77.609375 C-42.37582031 78.61967773 -42.93914062 79.62998047 -43.51953125 80.67089844 C-45 83 -45 83 -47 84 C-48.09185009 81.28270084 -48.10622626 80.25037996 -46.94287109 77.50830078 C-46.39195801 76.58001465 -45.84104492 75.65172852 -45.2734375 74.6953125 C-44.65952148 73.64674072 -44.04560547 72.59816895 -43.41308594 71.51782227 C-42.74051758 70.39819092 -42.06794922 69.27855957 -41.375 68.125 C-40.68937044 66.96538801 -40.00481008 65.80514321 -39.32128906 64.64428711 C-37.91753846 62.26436015 -36.5068541 59.88875107 -35.09082031 57.51611328 C-33.10784914 54.18937757 -31.15621257 50.8450324 -29.2109375 47.49609375 C-28.05766545 45.51801119 -26.90403776 43.54013593 -25.75 41.5625 C-24.9463501 40.17925537 -24.9463501 40.17925537 -24.12646484 38.76806641 C-23.6258252 37.91776855 -23.12518555 37.0674707 -22.609375 36.19140625 C-22.17592773 35.45092041 -21.74248047 34.71043457 -21.29589844 33.94750977 C-20 32 -20 32 -18.57177734 30.63696289 C-16.29528767 28.26606148 -14.83269594 25.46761181 -13.2421875 22.6171875 C-12.7194072 21.69487839 -12.7194072 21.69487839 -12.18606567 20.75393677 C-11.07774254 18.79686776 -9.976075 16.83615456 -8.875 14.875 C-7.76565678 12.90736786 -6.65493599 10.94053134 -5.54251099 8.97463989 C-4.537158 7.19671591 -3.53581803 5.41652451 -2.53466797 3.63623047 C-1 1 -1 1 0 0 Z " fill="#702220" transform="translate(466,711)"/>
<path d="M0 0 C1.485 0.99 1.485 0.99 3 2 C3 3.82834942 2.98635069 5.65745518 2.9140625 7.484375 C3.01680563 10.49194649 3.64859198 13.1424836 4.375 16.0625 C8.1394828 31.5605861 8.25218556 46.58609966 8.125 62.4375 C8.11494539 64.63345944 8.10582395 66.82942336 8.09765625 69.02539062 C8.07585037 74.35035986 8.04257132 79.67515835 8 85 C7.34 84.67 6.68 84.34 6 84 C5.94465088 82.99622314 5.88930176 81.99244629 5.83227539 80.95825195 C5.6252713 77.22139061 5.41355457 73.48480841 5.20043945 69.74829102 C5.10899084 68.1334541 5.01880713 66.51854503 4.92993164 64.90356445 C4.80169714 62.57743358 4.668862 60.25160327 4.53515625 57.92578125 C4.49656998 57.20787918 4.4579837 56.48997711 4.41822815 55.75032043 C4.20238044 52.07601421 3.74836256 48.59802756 3 45 C2.87067783 43.27964847 2.77852757 41.55620069 2.71875 39.83203125 C2.68136719 38.85556641 2.64398438 37.87910156 2.60546875 36.87304688 C2.57066406 35.86306641 2.53585937 34.85308594 2.5 33.8125 C2.20180715 25.32504787 1.87046169 16.87458548 0.375 8.5 C0 6 0 6 1 4 C0.60061233 1.90178785 0.60061233 1.90178785 0 0 Z " fill="#4F5354" transform="translate(480,260)"/>
<path d="M0 0 C1.65 0 3.3 0 5 0 C5.33 2.31 5.66 4.62 6 7 C6.99 7.33 7.98 7.66 9 8 C10.06775224 9.96466413 11.06553465 11.96855359 12 14 C12.99 15.485 12.99 15.485 14 17 C14.1953125 19.26171875 14.1953125 19.26171875 14.125 21.6875 C14.10695313 22.49574219 14.08890625 23.30398438 14.0703125 24.13671875 C14.04710937 24.75160156 14.02390625 25.36648438 14 26 C13.67 25.34 13.34 24.68 13 24 C12.34 24 11.68 24 11 24 C10.01 20.37 9.02 16.74 8 13 C5.525 12.505 5.525 12.505 3 12 C2.87625 12.845625 2.7525 13.69125 2.625 14.5625 C1.97229673 18.15236798 1.04752537 21.50824875 0 25 C0.99 25.33 1.98 25.66 3 26 C1.68 26 0.36 26 -1 26 C-1 25.34 -1 24.68 -1 24 C-1.66 23.67 -2.32 23.34 -3 23 C-2.67 22.67 -2.34 22.34 -2 22 C-1.58307147 18.58399407 -1.58307147 18.58399407 -2 15 C-4.77893532 11.79353617 -7.90364407 11.46549499 -12 11 C-12 10.34 -12 9.68 -12 9 C-11.01 8.67 -10.02 8.34 -9 8 C-8.67 7.34 -8.34 6.68 -8 6 C-5.03 6.33 -2.06 6.66 1 7 C1.99 5.35 2.98 3.7 4 2 C2.68 2 1.36 2 0 2 C0 1.34 0 0.68 0 0 Z " fill="#17141A" transform="translate(328,623)"/>
<path d="M0 0 C1.19794189 0.11746582 2.39588379 0.23493164 3.63012695 0.35595703 C10.014745 1.05912265 15.48852297 2.09308975 21.375 4.6875 C21.375 5.3475 21.375 6.0075 21.375 6.6875 C20.19421875 6.38714844 19.0134375 6.08679688 17.796875 5.77734375 C16.23970377 5.39274122 14.68240532 5.00865351 13.125 4.625 C12.34769531 4.42583984 11.57039063 4.22667969 10.76953125 4.02148438 C10.01542969 3.83779297 9.26132812 3.65410156 8.484375 3.46484375 C7.79311523 3.29202881 7.10185547 3.11921387 6.38964844 2.94116211 C4.07748114 2.65003974 2.62513895 3.1078764 0.375 3.6875 C-1.85656902 3.7806358 -4.09070805 3.81819126 -6.32421875 3.8203125 C-8.26071289 3.82224609 -8.26071289 3.82224609 -10.23632812 3.82421875 C-10.9047876 3.82212402 -11.57324707 3.8200293 -12.26196289 3.81787109 C-14.31599215 3.81249085 -16.36980539 3.81784208 -18.42382812 3.82421875 C-20.35452148 3.82228516 -20.35452148 3.82228516 -22.32421875 3.8203125 C-24.10058716 3.81862061 -24.10058716 3.81862061 -25.9128418 3.81689453 C-28.625 3.6875 -28.625 3.6875 -29.625 2.6875 C-37.31761815 2.25012706 -44.98117729 2.84487387 -52.625 3.6875 C-38.93739789 -5.43756807 -15.24823762 -1.53340848 0 0 Z " fill="#171817" transform="translate(429.625,219.3125)"/>
<path d="M0 0 C0.99 0 1.98 0 3 0 C3.33 2.31 3.66 4.62 4 7 C4.78375 6.95875 5.5675 6.9175 6.375 6.875 C9 7 9 7 11 9 C11.265625 11.49609375 11.265625 11.49609375 11.25 14.4375 C11.25515625 15.40558594 11.2603125 16.37367188 11.265625 17.37109375 C11 20 11 20 9 23 C6.03 23 3.06 23 0 23 C0 15.41 0 7.82 0 0 Z " fill="#A62219" transform="translate(403,833)"/>
<path d="M0 0 C2.97 0 5.94 0 9 0 C11 2 11 2 11.265625 4.49609375 C11.26046875 5.46675781 11.2553125 6.43742188 11.25 7.4375 C11.25515625 8.40558594 11.2603125 9.37367188 11.265625 10.37109375 C11 13 11 13 9 16 C6.375 16.1875 6.375 16.1875 4 16 C3.67 17.98 3.34 19.96 3 22 C2.01 22 1.02 22 0 22 C0 14.74 0 7.48 0 0 Z " fill="#BAB7B7" transform="translate(491,840)"/>
<path d="M0 0 C1.32 0 2.64 0 4 0 C4 3.63 4 7.26 4 11 C6.31 11.33 8.62 11.66 11 12 C11.66 8.37 12.32 4.74 13 1 C14.65 0.67 16.3 0.34 18 0 C18.67528223 1.57967807 19.33989694 3.16391903 20 4.75 C20.37125 5.63171875 20.7425 6.5134375 21.125 7.421875 C22 10 22 10 22 14 C20.68 13.67 19.36 13.34 18 13 C18 12.34 18 11.68 18 11 C16.02463255 11.34786708 16.02463255 11.34786708 14 12 C13.67 12.66 13.34 13.32 13 14 C8.71 14 4.42 14 0 14 C0 9.38 0 4.76 0 0 Z " fill="#D4D0D8" transform="translate(297,617)"/>
<path d="M0 0 C1.32 0 2.64 0 4 0 C4.33 6.27 4.66 12.54 5 19 C6.65 19 8.3 19 10 19 C10 12.73 10 6.46 10 0 C10.99 0 11.98 0 13 0 C13.11608726 3.27053517 13.18720711 6.5405418 13.25 9.8125 C13.30027344 11.2056543 13.30027344 11.2056543 13.3515625 12.62695312 C13.36445313 13.51962891 13.37734375 14.41230469 13.390625 15.33203125 C13.41157227 16.15421143 13.43251953 16.9763916 13.45410156 17.82348633 C13 20 13 20 11.16699219 21.7644043 C8.2221386 23.44352823 6.33359729 23.49649321 3 23 C0.85028805 21.176763 0.07733549 19.69106096 -0.23608398 16.89038086 C-0.29567798 14.33704671 -0.2610331 11.80291832 -0.1875 9.25 C-0.17396484 8.36183594 -0.16042969 7.47367188 -0.14648438 6.55859375 C-0.11121309 4.37177422 -0.06192752 2.18620034 0 0 Z " fill="#942119" transform="translate(374,833)"/>
<path d="M0 0 C0.66295578 -0.00131927 1.32591156 -0.00263855 2.00895691 -0.0039978 C4.17398755 -0.00591263 6.3388887 0.0004321 8.50390625 0.0078125 C9.61400055 0.00914185 9.61400055 0.00914185 10.746521 0.01049805 C26.53198205 0.03254419 42.29451043 0.5050089 58.06640625 1.1328125 C58.06640625 1.4628125 58.06640625 1.7928125 58.06640625 2.1328125 C53.79560918 2.3004171 49.524763 2.46673609 45.25390625 2.6328125 C44.03896484 2.68050781 42.82402344 2.72820312 41.57226562 2.77734375 C39.82719727 2.84501953 39.82719727 2.84501953 38.046875 2.9140625 C36.97332764 2.95595703 35.89978027 2.99785156 34.79370117 3.04101562 C32.88543829 3.10524504 30.97574976 3.1328125 29.06640625 3.1328125 C26.89608149 4.57271873 26.89608149 4.57271873 25.06640625 6.1328125 C25.06640625 5.1428125 25.06640625 4.1528125 25.06640625 3.1328125 C24.36370605 3.29434814 23.66100586 3.45588379 22.93701172 3.62231445 C17.73182168 4.54798654 12.46476369 4.31739904 7.19140625 4.3203125 C6.03253906 4.33255859 4.87367188 4.34480469 3.6796875 4.35742188 C-2.24687885 4.3675817 -7.35196535 4.19134309 -12.93359375 2.1328125 C-12.93359375 1.8028125 -12.93359375 1.4728125 -12.93359375 1.1328125 C-8.56822807 0.29652919 -4.44213992 0.00419042 0 0 Z " fill="#57595A" transform="translate(602.93359375,352.8671875)"/>
<path d="M0 0 C1.28300121 3.84900363 0.27768694 6.43651781 -0.8125 10.1875 C-1.3608973 12.13757705 -1.9070674 14.08818844 -2.44824219 16.0402832 C-2.96740562 17.88423228 -3.51595098 19.71983659 -4.06640625 21.5546875 C-5.62259848 27.88638212 -5.75000964 34.4518909 -6.125 40.9375 C-6.16702545 41.62742035 -6.2090509 42.3173407 -6.25234985 43.02816772 C-7.08578002 56.73507839 -7.73564955 70.33175982 -6 84 C-6.66 84 -7.32 84 -8 84 C-18.07759274 63.84481453 -8.48769555 24.43492767 -2 4 C-1.37211578 2.64797055 -0.72258996 1.30387345 0 0 Z " fill="#111313" transform="translate(344,252)"/>
<path d="M0 0 C6.8359375 -0.1953125 6.8359375 -0.1953125 9 0 C11 2 11 2 11.23046875 4.56640625 C11.20919922 6.04947266 11.20919922 6.04947266 11.1875 7.5625 C11.17783203 9.04943359 11.17783203 9.04943359 11.16796875 10.56640625 C11 13 11 13 10 14 C6.66381769 14.14257189 3.34024394 14.04228157 0 14 C0 9.38 0 4.76 0 0 Z " fill="#F0F1F7" transform="translate(284,617)"/>
<path d="M0 0 C1.6796875 1.09765625 1.6796875 1.09765625 3 3 C3.29296875 6.13671875 3.29296875 6.13671875 3.1875 9.6875 C3.16042969 10.86699219 3.13335937 12.04648437 3.10546875 13.26171875 C3.07066406 14.16535156 3.03585937 15.06898438 3 16 C1.37581255 16.08090971 -0.24951745 16.13914995 -1.875 16.1875 C-2.77992188 16.22230469 -3.68484375 16.25710938 -4.6171875 16.29296875 C-5.79667969 16.14794922 -5.79667969 16.14794922 -7 16 C-9 13 -9 13 -8.75 10.4375 C-8 8 -8 8 -6 6 C-3.375 5.875 -3.375 5.875 -1 6 C-1.33 5.01 -1.66 4.02 -2 3 C-3.98 3.33 -5.96 3.66 -8 4 C-8 3.01 -8 2.02 -8 1 C-5.20129973 -0.39935013 -3.09501208 -0.25265405 0 0 Z " fill="#9C2118" transform="translate(426,840)"/>
<path d="M0 0 C4.66861981 1.60483806 9.09258167 3.97490194 13 7 C13 7.66 13 8.32 13 9 C13.59554688 9.21527344 14.19109375 9.43054688 14.8046875 9.65234375 C20.28663649 13.01759714 22.89885197 21.70833699 24.375 27.75 C25.12688481 31.86280991 25.1516766 35.82889344 25 40 C24.34 40 23.68 40 23 40 C22.78085937 39.05640625 22.56171875 38.1128125 22.3359375 37.140625 C19.02728161 23.46735387 14.97286887 13.64388332 3.51171875 5.05859375 C1 3 1 3 0 0 Z " fill="#1E1F1F" transform="translate(471,234)"/>
<path d="M0 0 C1.60875 -0.04125 3.2175 -0.0825 4.875 -0.125 C5.77992188 -0.14820313 6.68484375 -0.17140625 7.6171875 -0.1953125 C10 0 10 0 12 2 C11.6913753 4.33672984 11.35543427 6.66993089 11 9 C11.35974895 11.81237541 11.35974895 11.81237541 12 14 C10.68 14 9.36 14 8 14 C7.71125 13.360625 7.4225 12.72125 7.125 12.0625 C6.17176549 9.84793921 6.17176549 9.84793921 4 9 C4 10.65 4 12.3 4 14 C2.68 14 1.36 14 0 14 C0 9.38 0 4.76 0 0 Z " fill="#EDECF2" transform="translate(295,635)"/>
<path d="M0 0 C7.32215357 -0.36010591 7.32215357 -0.36010591 10 1.0625 C11.56646819 4.09753213 11.2989878 6.65133668 11 10 C10.01 11.485 10.01 11.485 9 13 C5.96133201 13.41137202 3.07840297 13.13193156 0 13 C0 8.71 0 4.42 0 0 Z " fill="#E2E0E7" transform="translate(316,635)"/>
<path d="M0 0 C0.33 0 0.66 0 1 0 C1 18.15 1 36.3 1 55 C0.34 55 -0.32 55 -1 55 C-1 54.34 -1 53.68 -1 53 C-1.66 53 -2.32 53 -3 53 C-3.33 53.99 -3.66 54.98 -4 56 C-4.87867729 52.26562152 -5.08912219 48.83225427 -5 45 C-4.34 45 -3.68 45 -3 45 C-2.07042944 34.31670724 -1.68159604 23.65458536 -1.39453125 12.9375 C-1.35714844 11.69742187 -1.31976563 10.45734375 -1.28125 9.1796875 C-1.25095703 8.06319824 -1.22066406 6.94670898 -1.18945312 5.79638672 C-1 3 -1 3 0 0 Z " fill="#525758" transform="translate(323,299)"/>
<path d="M0 0 C0.33 0 0.66 0 1 0 C1.99899387 4.27694249 2.28318743 8.51901829 2.5 12.890625 C2.58329291 14.41927304 2.66662745 15.9479188 2.75 17.4765625 C2.8764029 19.87525511 3.0012393 22.2740212 3.125 24.67285156 C3.24610824 26.99566974 3.37279898 29.31813377 3.5 31.640625 C3.53544922 32.36348694 3.57089844 33.08634888 3.60742188 33.83111572 C3.5163592 37.20563088 3.5163592 37.20563088 5 40 C5.23427778 42.01594582 5.41336124 44.038474 5.5625 46.0625 C5.64628906 47.16722656 5.73007812 48.27195312 5.81640625 49.41015625 C5.87699219 50.26480469 5.93757813 51.11945313 6 52 C4.35 52 2.7 52 1 52 C1 49.69 1 47.38 1 45 C1.66 45 2.32 45 3 45 C2.26656372 44.04830933 2.26656372 44.04830933 1.51831055 43.07739258 C-0.5523697 38.8804277 -0.37710239 35.37566205 -0.29296875 30.76171875 C-0.28872391 29.88095169 -0.28447906 29.00018463 -0.28010559 28.09272766 C-0.26336644 25.2906689 -0.2257233 22.48933991 -0.1875 19.6875 C-0.17244699 17.78321354 -0.15875966 15.87891576 -0.14648438 13.97460938 C-0.11347854 9.31612678 -0.06172929 4.65818695 0 0 Z " fill="#2D3131" transform="translate(483,305)"/>
<path d="M0 0 C1.32 0 2.64 0 4 0 C4.33 0.99 4.66 1.98 5 3 C5.66 2.01 6.32 1.02 7 0 C7.99 0 8.98 0 10 0 C9.773125 0.86625 9.54625 1.7325 9.3125 2.625 C8.93480612 6.70409394 10.00980757 8.49726132 12 12 C12 12.66 12 13.32 12 14 C10.68 14 9.36 14 8 14 C7.71125 13.360625 7.4225 12.72125 7.125 12.0625 C6.17176549 9.84793921 6.17176549 9.84793921 4 9 C4 10.65 4 12.3 4 14 C2.68 13.67 1.36 13.34 0 13 C0 8.71 0 4.42 0 0 Z " fill="#D7D5DC" transform="translate(333,617)"/>
<path d="M0 0 C1.60875 -0.04125 3.2175 -0.0825 4.875 -0.125 C5.77992188 -0.14820313 6.68484375 -0.17140625 7.6171875 -0.1953125 C10 0 10 0 12 2 C12.1953125 5.2578125 12.1953125 5.2578125 12.125 9.125 C12.10695313 10.40632812 12.08890625 11.68765625 12.0703125 13.0078125 C12.04710937 13.99523437 12.02390625 14.98265625 12 16 C11.01 16 10.02 16 9 16 C8.67 12.04 8.34 8.08 8 4 C6.68 4 5.36 4 4 4 C3.67 7.96 3.34 11.92 3 16 C2.01 16 1.02 16 0 16 C0 10.72 0 5.44 0 0 Z " fill="#9E2119" transform="translate(432,840)"/>
<path d="M0 0 C0.66 0 1.32 0 2 0 C2 2.31 2 4.62 2 7 C1.34 7 0.68 7 0 7 C0.16371094 7.87785156 0.32742188 8.75570313 0.49609375 9.66015625 C1.33755619 15.55039333 1.10459524 21.50207167 1.0625 27.4375 C1.05798828 28.64599609 1.05347656 29.85449219 1.04882812 31.09960938 C1.03710145 34.06645789 1.02068896 37.0332027 1 40 C0.34 39.67 -0.32 39.34 -1 39 C-1.625 35.9375 -1.625 35.9375 -2 33 C-2.33 33 -2.66 33 -3 33 C-2.88998376 28.43700932 -2.75938389 23.87483294 -2.625 19.3125 C-2.5940625 18.01892578 -2.563125 16.72535156 -2.53125 15.39257812 C-2.49257813 14.14541016 -2.45390625 12.89824219 -2.4140625 11.61328125 C-2.3826416 10.46641846 -2.3512207 9.31955566 -2.31884766 8.13793945 C-2.00576348 5.05672128 -1.30329197 2.7917886 0 0 Z " fill="#272929" transform="translate(339,284)"/>
<path d="M0 0 C1.98 0 3.96 0 6 0 C7 1 7 1 7.1328125 4.125 C7.12894531 6.043125 7.12894531 6.043125 7.125 8 C7.12757813 9.27875 7.13015625 10.5575 7.1328125 11.875 C7 15 7 15 6 16 C4.02 16 2.04 16 0 16 C0 10.72 0 5.44 0 0 Z " fill="#292C2B" transform="translate(458,837)"/>
<path d="M0 0 C3.3 0 6.6 0 10 0 C10 0.99 10 1.98 10 3 C8.02 3 6.04 3 4 3 C4 3.66 4 4.32 4 5 C5.65 5 7.3 5 9 5 C9 5.99 9 6.98 9 8 C7.02 8 5.04 8 3 8 C3 8.99 3 9.98 3 11 C5.31 11 7.62 11 10 11 C10 11.99 10 12.98 10 14 C6.7 14 3.4 14 0 14 C0 9.38 0 4.76 0 0 Z " fill="#E62B05" transform="translate(320,653)"/>
<path d="M0 0 C1.65 0.33 3.3 0.66 5 1 C5.99 5.29 6.98 9.58 8 14 C6.68 14 5.36 14 4 14 C4 13.01 4 12.02 4 11 C2.35 11 0.7 11 -1 11 C-1.33 11.99 -1.66 12.98 -2 14 C-2.66 14 -3.32 14 -4 14 C-3.46148032 8.72250715 -2.22656164 4.74354436 0 0 Z " fill="#E81B04" transform="translate(300,653)"/>
<path d="M0 0 C0.94875 0.04125 1.8975 0.0825 2.875 0.125 C3.535 1.445 4.195 2.765 4.875 4.125 C1.905 3.63 1.905 3.63 -1.125 3.125 C-1.125 3.785 -1.125 4.445 -1.125 5.125 C0.855 5.785 2.835 6.445 4.875 7.125 C5 9.5 5 9.5 4.875 12.125 C2.875 14.125 2.875 14.125 -0.75 14.25 C-1.86375 14.20875 -2.9775 14.1675 -4.125 14.125 C-4.455 12.805 -4.785 11.485 -5.125 10.125 C-2.155 10.62 -2.155 10.62 0.875 11.125 C-0.51695915 8.3410817 -2.28075779 8.14601003 -5.125 7.125 C-5.25 4.75 -5.25 4.75 -5.125 2.125 C-3.125 0.125 -3.125 0.125 0 0 Z " fill="#F31B01" transform="translate(289.125,652.875)"/>
<path d="M0 0 C1.65 0 3.3 0 5 0 C5.48108275 1.41601714 5.95978141 2.83284437 6.4375 4.25 C6.83775391 5.43335938 6.83775391 5.43335938 7.24609375 6.640625 C7.91954708 8.74821988 8.49150595 10.84753973 9 13 C7.68 13 6.36 13 5 13 C5 12.34 5 11.68 5 11 C3.35 11 1.7 11 0 11 C0 11.66 0 12.32 0 13 C-0.99 13 -1.98 13 -3 13 C-2.45144652 8.428721 -1.58255197 4.32564205 0 0 Z " fill="#D9D7DF" transform="translate(331,635)"/>
<path d="M0 0 C3.3 0 6.6 0 10 0 C10 1.32 10 2.64 10 4 C8.02 4 6.04 4 4 4 C4 4.66 4 5.32 4 6 C5.65 6 7.3 6 9 6 C9 6.99 9 7.98 9 9 C7.35 9 5.7 9 4 9 C4 10.65 4 12.3 4 14 C2.68 14 1.36 14 0 14 C0 9.38 0 4.76 0 0 Z " fill="#D5D2DA" transform="translate(284,635)"/>
<path d="M0 0 C2 2 2 2 2 5 C-0.38564077 4.42415568 -2.66682784 3.77772405 -5 3 C-4.67 5.31 -4.34 7.62 -4 10 C-2.02 9.67 -0.04 9.34 2 9 C1.125 12.875 1.125 12.875 0 14 C-2.99894961 14.26077823 -5.18003295 14.43731576 -7.875 13 C-9.68523932 9.78179676 -9.53967465 6.59783102 -9 3 C-6.88804118 -0.75459346 -4.01124771 -0.42672848 0 0 Z " fill="#DCDAE0" transform="translate(329,617)"/>
<path d="M0 0 C0.66 0 1.32 0 2 0 C1.67 1.65 1.34 3.3 1 5 C0.01 5 -0.98 5 -2 5 C-1.34 3.35 -0.68 1.7 0 0 Z M-3 5 C-2.67 5 -2.34 5 -2 5 C-2 7.64 -2 10.28 -2 13 C-1.34 13.33 -0.68 13.66 0 14 C-0.7824248 16.64889618 -1.57537568 19.29379825 -2.375 21.9375 C-2.59671875 22.69224609 -2.8184375 23.44699219 -3.046875 24.22460938 C-3.63962452 26.16847912 -4.31451172 28.08686452 -5 30 C-5.66 30.33 -6.32 30.66 -7 31 C-7.26066043 21.50037562 -6.84767735 13.79469109 -3 5 Z " fill="#2E3130" transform="translate(349,245)"/>
<path d="M0 0 C-0.33 0.99 -0.66 1.98 -1 3 C-14.67449331 3.6492751 -28.30903057 4.16741675 -42 4 C-42.33 3.01 -42.66 2.02 -43 1 C-37.84052331 0.85653282 -32.68101822 0.71415053 -27.52148438 0.57275391 C-25.76789551 0.52454639 -24.01431463 0.47604742 -22.26074219 0.42724609 C-19.73374464 0.35697204 -17.2067198 0.28776158 -14.6796875 0.21875 C-13.90132538 0.19687622 -13.12296326 0.17500244 -12.3210144 0.15246582 C-8.21245693 0.04135575 -4.11057623 -0.0228683 0 0 Z " fill="#0B0D0E" transform="translate(191,1002)"/>
<path d="M0 0 C0.33 0 0.66 0 1 0 C1 13.53 1 27.06 1 41 C0.34 40.34 -0.32 39.68 -1 39 C-1 38.01 -1 37.02 -1 36 C-2.32 36 -3.64 36 -5 36 C-5.29554656 28.31578947 -5.29554656 28.31578947 -3 25 C-2.34 24.67 -1.68 24.34 -1 24 C-0.67 16.08 -0.34 8.16 0 0 Z " fill="#4E4F4F" transform="translate(670,394)"/>
<path d="M0 0 C0.66 0.66 1.32 1.32 2 2 C-5 14 -12 26 -19 38 C-20.09057617 36.19555664 -20.09057617 36.19555664 -21 34 C-19.88024749 31.58242113 -18.78075856 29.62390177 -17.3125 27.4375 C-16.94705078 26.86064453 -16.58160156 26.28378906 -16.20507812 25.68945312 C-14.78670405 23.48957776 -13.4142506 21.39905 -11.52294922 19.57714844 C-9.78141678 17.77363776 -8.72034858 15.96843052 -7.51953125 13.76953125 C-7.07802734 12.96708984 -6.63652344 12.16464844 -6.18164062 11.33789062 C-5.72982422 10.50451172 -5.27800781 9.67113281 -4.8125 8.8125 C-4.11737305 7.5450293 -4.11737305 7.5450293 -3.40820312 6.25195312 C-2.26749219 4.17044966 -1.13162891 2.08645072 0 0 Z " fill="#7B1C1B" transform="translate(439,757)"/>
<path d="M0 0 C0.66 0.33 1.32 0.66 2 1 C1.34 1.66 0.68 2.32 0 3 C-1.03842565 5.31648799 -2.0421975 7.64903024 -3 10 C-3.66 9.34 -4.32 8.68 -5 8 C-7.31 14.6 -9.62 21.2 -12 28 C-12.99 28 -13.98 28 -15 28 C-14.34 24.04 -13.68 20.08 -13 16 C-12.34 16 -11.68 16 -11 16 C-10.505 14.2675 -10.505 14.2675 -10 12.5 C-8.0277906 7.11250116 -4.20156396 3.75246567 0 0 Z " fill="#2F312F" transform="translate(341,237)"/>
<path d="M0 0 C0 0.33 0 0.66 0 1 C-1.11375 1.12117187 -2.2275 1.24234375 -3.375 1.3671875 C-7.43018619 1.81030387 -11.483694 2.26756826 -15.53710938 2.7265625 C-17.77891433 2.97545441 -20.02170416 3.20865821 -22.265625 3.4375 C-30.26449978 4.2952492 -37.56122999 5.80302427 -45.20703125 8.29296875 C-48 9 -48 9 -51 8 C-46.22953951 5.35394426 -41.71779937 4.00023606 -36.4375 2.875 C-35.6424707 2.70323242 -34.84744141 2.53146484 -34.02832031 2.35449219 C-22.71431303 0.00595783 -11.52470321 -0.15550574 0 0 Z " fill="#1C1C1B" transform="translate(419,224)"/>
<path d="M0 0 C2.16359688 3.6528259 2.84943139 7.49767415 3.5625 11.625 C3.69035889 12.36049072 3.81821777 13.09598145 3.94995117 13.85375977 C4.87767385 19.53089552 5.45381903 25.19744186 5.8125 30.9375 C5.86543213 31.7123877 5.91836426 32.48727539 5.97290039 33.28564453 C6.06817071 35.18806711 6.04418804 37.09570603 6 39 C5.34 39.66 4.68 40.32 4 41 C2.54465409 38.08930819 2.54937114 35.28783633 2.24609375 32.05078125 C2.18092056 31.35993942 2.11574738 30.6690976 2.04859924 29.95732117 C1.91138711 28.49231826 1.77618257 27.02712614 1.64282227 25.56176758 C1.43984236 23.33816014 1.2292144 21.11537641 1.01757812 18.89257812 C0.88495392 17.46618878 0.7527785 16.03975763 0.62109375 14.61328125 C0.5017749 13.32204346 0.38245605 12.03080566 0.25952148 10.70043945 C0.00835933 7.11919318 -0.04606372 3.58862436 0 0 Z " fill="#141617" transform="translate(495,280)"/>
<path d="M0 0 C8.91 0 17.82 0 27 0 C27 0.66 27 1.32 27 2 C23.37 2 19.74 2 16 2 C15.67 3.65 15.34 5.3 15 7 C13.35 7.33 11.7 7.66 10 8 C9.855625 7.401875 9.71125 6.80375 9.5625 6.1875 C9.1127561 4.43849596 8.57107659 2.71322977 8 1 C5.52733235 1.34444881 5.52733235 1.34444881 3 2 C2.67 2.66 2.34 3.32 2 4 C1.34 3.67 0.68 3.34 0 3 C0 2.01 0 1.02 0 0 Z M9 1 C10 3 10 3 10 3 Z " fill="#63625F" transform="translate(641,355)"/>
<path d="M0 0 C0.66 0 1.32 0 2 0 C2.69343884 2.32797327 3.35468981 4.65857045 4 7 C4.19078125 7.64066406 4.3815625 8.28132813 4.578125 8.94140625 C6.21923978 15.11903116 6.12467596 21.08421955 5.97265625 27.44921875 C5.99815629 30.76058111 6.35761191 33.75818105 7 37 C6.34 37 5.68 37 5 37 C4.63597631 35.56496445 4.28413409 34.12683494 3.9375 32.6875 C3.64166016 31.48673828 3.64166016 31.48673828 3.33984375 30.26171875 C3 28 3 28 4 25 C3.69193547 22.92352124 3.69193547 22.92352124 3.0625 20.8125 C2.711875 19.554375 2.36125 18.29625 2 17 C2.66 17 3.32 17 4 17 C3.71125 16.10796875 3.4225 15.2159375 3.125 14.296875 C2.75375 13.12640625 2.3825 11.9559375 2 10.75 C1.62875 9.58984375 1.2575 8.4296875 0.875 7.234375 C0 4 0 4 0 0 Z " fill="#3F4143" transform="translate(495,262)"/>
<path d="M0 0 C0.99 0 1.98 0 3 0 C3.11608726 3.27053517 3.18720711 6.5405418 3.25 9.8125 C3.30027344 11.2056543 3.30027344 11.2056543 3.3515625 12.62695312 C3.36445313 13.51962891 3.37734375 14.41230469 3.390625 15.33203125 C3.41157227 16.15421143 3.43251953 16.9763916 3.45410156 17.82348633 C3 20 3 20 1.17871094 21.7800293 C-1.65840222 23.36867278 -3.80142733 23.2180845 -7 23 C-6.360625 22.71125 -5.72125 22.4225 -5.0625 22.125 C-2.84793921 21.17176549 -2.84793921 21.17176549 -2 19 C-1.34 19 -0.68 19 0 19 C0 12.73 0 6.46 0 0 Z " fill="#A82118" transform="translate(384,833)"/>
<path d="M0 0 C0.74617584 0.00141495 1.49235168 0.0028299 2.26113892 0.00428772 C4.62465568 0.00984751 6.98807477 0.02239236 9.3515625 0.03515625 C10.96223821 0.04017645 12.57291541 0.04473845 14.18359375 0.04882812 C18.11462049 0.05980374 22.04557498 0.07704029 25.9765625 0.09765625 C25.9765625 0.42765625 25.9765625 0.75765625 25.9765625 1.09765625 C20.0365625 1.59265625 20.0365625 1.59265625 13.9765625 2.09765625 C13.9765625 2.42765625 13.9765625 2.75765625 13.9765625 3.09765625 C11.31029891 3.29459617 8.64399611 3.48040407 5.9765625 3.66015625 C5.23277344 3.71623047 4.48898437 3.77230469 3.72265625 3.83007812 C-8.70869431 4.64081838 -8.70869431 4.64081838 -14.0234375 1.09765625 C-9.32140736 0.16818518 -4.77531515 -0.03458026 0 0 Z " fill="#363A3D" transform="translate(604.0234375,352.90234375)"/>
<path d="M0 0 C7.12204445 2.44820278 12.46951801 5.21328211 15.875 12.125 C16.24367188 12.97320312 16.61234375 13.82140625 16.9921875 14.6953125 C18.00821481 17.20176073 18.00821481 17.20176073 20 20 C19.625 22.1875 19.625 22.1875 19 24 C18.55914062 22.98292969 18.55914062 22.98292969 18.109375 21.9453125 C14.43465238 14.32131901 10.12004636 10.10079773 3.51171875 5.09375 C1 3 1 3 0 0 Z " fill="#0F1010" transform="translate(471,234)"/>
<path d="M0 0 C1.32 0 2.64 0 4 0 C4 3.63 4 7.26 4 11 C5.65 11 7.3 11 9 11 C9 11.99 9 12.98 9 14 C6.03 14 3.06 14 0 14 C0 9.38 0 4.76 0 0 Z " fill="#D81704" transform="translate(309,653)"/>
<path d="M0 0 C0.66 0.33 1.32 0.66 2 1 C3.15927528 4.47782583 3.11313066 7.18803257 3.09765625 10.85546875 C3.0962413 11.51710526 3.09482635 12.17874176 3.09336853 12.86042786 C3.08777996 14.96949828 3.07522965 17.07846177 3.0625 19.1875 C3.05748352 20.61913909 3.05292087 22.05077985 3.04882812 23.48242188 C3.0378143 26.98831588 3.02055755 30.4941475 3 34 C2.67 34 2.34 34 2 34 C1.08048625 28.82773515 0.97333603 23.91642211 1.03125 18.66796875 C0.99241678 15.35258294 0.57959374 12.26021477 0 9 C-0.66 9 -1.32 9 -2 9 C-1.34 6.03 -0.68 3.06 0 0 Z " fill="#656360" transform="translate(667,387)"/>
<path d="M0 0 C2.97 0 5.94 0 9 0 C9 0.99 9 1.98 9 3 C7.35 3.33 5.7 3.66 4 4 C3.67 7.96 3.34 11.92 3 16 C2.01 16 1.02 16 0 16 C0 10.72 0 5.44 0 0 Z " fill="#A22219" transform="translate(391,840)"/>
<path d="M0 0 C2.97 0 5.94 0 9 0 C9 0.99 9 1.98 9 3 C7.35 3.33 5.7 3.66 4 4 C3.67 7.96 3.34 11.92 3 16 C2.01 16 1.02 16 0 16 C0 10.72 0 5.44 0 0 Z " fill="#B6B4B4" transform="translate(472,840)"/>
<path d="M0 0 C2.475 0.495 2.475 0.495 5 1 C5 1.66 5 2.32 5 3 C5.66 3 6.32 3 7 3 C7.33 2.01 7.66 1.02 8 0 C8.99 0 9.98 0 11 0 C10.566875 0.99 10.566875 0.99 10.125 2 C8.76562701 5.62499465 7.89375361 9.23346693 7 13 C6.01 13 5.02 13 4 13 C3.71125 11.783125 3.4225 10.56625 3.125 9.3125 C2.32164208 6.08185352 1.33734591 3.05679065 0 0 Z " fill="#EAE9EF" transform="translate(339,635)"/>
<path d="M0 0 C1.45792884 -0.05399736 2.91642712 -0.09279177 4.375 -0.125 C5.18710937 -0.14820313 5.99921875 -0.17140625 6.8359375 -0.1953125 C9 0 9 0 11 2 C10.625 5.125 10.625 5.125 10 8 C9.34 8 8.68 8 8 8 C8 8.99 8 9.98 8 11 C6.35 11 4.7 11 3 11 C3 10.01 3 9.02 3 8 C4.32 8 5.64 8 7 8 C7 7.34 7 6.68 7 6 C5.68 6 4.36 6 3 6 C2.814375 5.071875 2.814375 5.071875 2.625 4.125 C2.12802644 1.80879168 2.12802644 1.80879168 0 0 Z " fill="#ACA6B0" transform="translate(284,617)"/>
<path d="M0 0 C0 0.66 0 1.32 0 2 C2.31 2 4.62 2 7 2 C7 2.33 7 2.66 7 3 C6.0925 3.12375 5.185 3.2475 4.25 3.375 C1.08173928 3.78188957 1.08173928 3.78188957 -1 5.25 C-1.66 5.4975 -2.32 5.745 -3 6 C-3.77601563 5.53464844 -4.55203125 5.06929687 -5.3515625 4.58984375 C-10.62978832 2.28980316 -15.67466274 2.42999812 -21.375 2.3125 C-22.49261719 2.27833984 -23.61023438 2.24417969 -24.76171875 2.20898438 C-27.50771222 2.12683927 -30.25339982 2.05757872 -33 2 C-33 1.67 -33 1.34 -33 1 C-32.13197754 1.00523682 -31.26395508 1.01047363 -30.36962891 1.01586914 C-27.15299727 1.03289862 -23.93638859 1.04544408 -20.71972656 1.05493164 C-19.32681523 1.0599643 -17.9339092 1.06679098 -16.54101562 1.07543945 C-14.54038754 1.08755152 -12.53972112 1.09270412 -10.5390625 1.09765625 C-9.33459473 1.10289307 -8.13012695 1.10812988 -6.88916016 1.11352539 C-4.21359458 1.00839289 -2.57663875 0 0 0 Z " fill="#101415" transform="translate(290,999)"/>
<path d="M0 0 C3.68748309 -0.02925502 7.37493592 -0.04688418 11.0625 -0.0625 C12.10083984 -0.07087891 13.13917969 -0.07925781 14.20898438 -0.08789062 C19.58723069 -0.10496442 24.70333211 0.04584848 30 1 C29.67 1.66 29.34 2.32 29 3 C9.65957447 3.19148936 9.65957447 3.19148936 0 2 C0 1.34 0 0.68 0 0 Z " fill="#272A2A" transform="translate(282,356)"/>
<path d="M0 0 C1.32 0 2.64 0 4 0 C4 4.62 4 9.24 4 14 C2.68 14 1.36 14 0 14 C0 9.38 0 4.76 0 0 Z " fill="#D0CED6" transform="translate(309,635)"/>
<path d="M0 0 C0.33 0 0.66 0 1 0 C1.48066535 1.89545392 1.95946743 3.79138039 2.4375 5.6875 C2.83775391 7.27111328 2.83775391 7.27111328 3.24609375 8.88671875 C3.89897932 11.5828317 4.47941193 14.2757576 5 17 C4.01 17.33 3.02 17.66 2 18 C1.34 17.67 0.68 17.34 0 17 C-0.3400005 14.30364823 -0.55958136 11.70722351 -0.6875 9 C-0.73455078 8.24976563 -0.78160156 7.49953125 -0.83007812 6.7265625 C-0.93505575 4.81975572 -0.97278125 2.90950034 -1 1 C-0.67 0.67 -0.34 0.34 0 0 Z " fill="#0D0E0E" transform="translate(336,339)"/>
<path d="M0 0 C2.80664069 4.20996104 3.1297726 7.88524688 3.09765625 12.86328125 C3.09282227 14.19262695 3.09282227 14.19262695 3.08789062 15.54882812 C3.07951172 16.46083984 3.07113281 17.37285156 3.0625 18.3125 C3.05798828 19.24384766 3.05347656 20.17519531 3.04882812 21.13476562 C3.03709234 23.42324373 3.02067363 25.71158808 3 28 C2.34 27.67 1.68 27.34 1 27 C0.67902035 24.51089364 0.48352986 22.12543727 0.375 19.625 C0.33705322 18.90634766 0.29910645 18.18769531 0.26000977 17.44726562 C-0.02599903 11.6311048 -0.11102337 5.8225587 0 0 Z " fill="#3B4041" transform="translate(501,301)"/>
<path d="M0 0 C3.70434645 5.55651968 3.12513036 11.35193739 3.0625 17.8125 C3.05798828 18.69615234 3.05347656 19.57980469 3.04882812 20.49023438 C3.03709866 22.66018559 3.01916495 24.83010172 3 27 C-1.61788206 22.38211794 -0.05627102 12.44804899 -0.0625 6.3125 C-0.04667887 4.20828968 -0.02764495 2.1040882 0 0 Z " fill="#696E70" transform="translate(484,280)"/>
<path d="M0 0 C6.41758174 2.07494251 10.08205243 6.69303056 14 12 C15.7057601 15.54520045 17 19.03611016 17 23 C16.34 23 15.68 23 15 23 C14.61328125 22.10796875 14.2265625 21.2159375 13.828125 20.296875 C13.30734375 19.12640625 12.7865625 17.9559375 12.25 16.75 C11.73953125 15.58984375 11.2290625 14.4296875 10.703125 13.234375 C9.08736299 10.16590953 7.48520773 8.35554472 5 6 C5 5.34 5 4.68 5 4 C4.360625 3.71125 3.72125 3.4225 3.0625 3.125 C1 2 1 2 0 0 Z " fill="#454648" transform="translate(479,237)"/>
<path d="M0 0 C2 3 2 3 2 6 C2.391875 5.505 2.78375 5.01 3.1875 4.5 C5.55091715 2.54406857 7.01435003 2.75792027 10 3 C10 3.99 10 4.98 10 6 C7.11165997 8.10770759 5.61537605 9 2 9 C2 8.34 2 7.68 2 7 C1.01 7.33 0.02 7.66 -1 8 C-3.00875442 7.72428861 -5.01178687 7.39764263 -7 7 C-7 6.67 -7 6.34 -7 6 C-5.5459375 5.62875 -5.5459375 5.62875 -4.0625 5.25 C-2.5465625 4.63125 -2.5465625 4.63125 -1 4 C-0.03122943 1.96756452 -0.03122943 1.96756452 0 0 Z " fill="#23090B" transform="translate(294,661)"/>
<path d="M0 0 C3.69230769 0.69230769 3.69230769 0.69230769 5 2 C5.09879565 3.810285 5.12971514 5.62452727 5.125 7.4375 C5.12757813 8.42621094 5.13015625 9.41492188 5.1328125 10.43359375 C5 13 5 13 4 15 C2.68 14.67 1.36 14.34 0 14 C0.33 13.34 0.66 12.68 1 12 C1.06996014 10.29297265 1.08440154 8.58331997 1.0625 6.875 C1.05347656 5.96492187 1.04445313 5.05484375 1.03515625 4.1171875 C1.02355469 3.41851563 1.01195312 2.71984375 1 2 C0.34 1.67 -0.32 1.34 -1 1 C-0.67 0.67 -0.34 0.34 0 0 Z " fill="#A82219" transform="translate(409,840)"/>
<path d="M0 0 C0.66 0.33 1.32 0.66 2 1 C-1.96 7.93 -5.92 14.86 -10 22 C-10.99 22 -11.98 22 -13 22 C-12.36938623 18.34244012 -12.36938623 18.34244012 -10.71484375 16.80859375 C-8.21247791 14.16942431 -6.61952159 11.03814353 -4.875 7.875 C-1.10472973 1.10472973 -1.10472973 1.10472973 0 0 Z " fill="#2D2A2A" transform="translate(418,792)"/>
<path d="M0 0 C3.3 0 6.6 0 10 0 C10 0.99 10 1.98 10 3 C8.02 3 6.04 3 4 3 C3.67 3.66 3.34 4.32 3 5 C3 4.01 3 3.02 3 2 C2.34 2 1.68 2 1 2 C1 5.63 1 9.26 1 13 C3.97 13 6.94 13 10 13 C10 13.33 10 13.66 10 14 C6.7 14 3.4 14 0 14 C0 9.38 0 4.76 0 0 Z " fill="#C91206" transform="translate(320,653)"/>
<path d="M0 0 C0.99 0 1.98 0 3 0 C3 5.28 3 10.56 3 16 C2.01 16 1.02 16 0 16 C0 10.72 0 5.44 0 0 Z " fill="#ABA9A9" transform="translate(484,840)"/>
<path d="M0 0 C1.4921875 1.27734375 1.4921875 1.27734375 3 3 C3.125 6.5625 3.125 6.5625 3 10 C3.33 10.66 3.66 11.32 4 12 C4.04022391 14.3329866 4.04320247 16.66706666 4 19 C3.01 18.67 2.02 18.34 1 18 C0.10395632 11.95170514 -0.11269443 6.1105424 0 0 Z " fill="#171818" transform="translate(498,336)"/>
<path d="M0 0 C2.475 0.495 2.475 0.495 5 1 C5 3.64 5 6.28 5 9 C3.0625 9.5625 3.0625 9.5625 1 10 C0 9 0 9 -0.09765625 6.93359375 C-0.08605469 6.10988281 -0.07445312 5.28617188 -0.0625 4.4375 C-0.05347656 3.61121094 -0.04445313 2.78492188 -0.03515625 1.93359375 C-0.02355469 1.29550781 -0.01195312 0.65742187 0 0 Z " fill="#232626" transform="translate(494,843)"/>
<path d="M0 0 C2.475 0.495 2.475 0.495 5 1 C5 3.64 5 6.28 5 9 C3.0625 9.5625 3.0625 9.5625 1 10 C0 9 0 9 -0.09765625 6.93359375 C-0.08605469 6.10988281 -0.07445312 5.28617188 -0.0625 4.4375 C-0.05347656 3.61121094 -0.04445313 2.78492188 -0.03515625 1.93359375 C-0.02355469 1.29550781 -0.01195312 0.65742187 0 0 Z " fill="#1F1F1F" transform="translate(406,843)"/>
<path d="M0 0 C1.98 0 3.96 0 6 0 C5.01 0.33 4.02 0.66 3 1 C3 3.97 3 6.94 3 10 C4.32 10.33 5.64 10.66 7 11 C7 11.33 7 11.66 7 12 C4.69 12 2.38 12 0 12 C0 8.04 0 4.08 0 0 Z " fill="#F0F1F7" transform="translate(316,636)"/>
<path d="M0 0 C3.3 0 6.6 0 10 0 C10.33 0.66 10.66 1.32 11 2 C10.34 2 9.68 2 9 2 C9 3.32 9 4.64 9 6 C7.35 6 5.7 6 4 6 C4 4.68 4 3.36 4 2 C3.01 1.67 2.02 1.34 1 1 C1 5.29 1 9.58 1 14 C0.67 14 0.34 14 0 14 C0 9.38 0 4.76 0 0 Z " fill="#8D8690" transform="translate(295,635)"/>
<path d="M0 0 C0.78375 0.04125 1.5675 0.0825 2.375 0.125 C2.375 1.115 2.375 2.105 2.375 3.125 C1.735625 3.228125 1.09625 3.33125 0.4375 3.4375 C-0.243125 3.664375 -0.92375 3.89125 -1.625 4.125 C-1.955 5.115 -2.285 6.105 -2.625 7.125 C-0.975 7.125 0.675 7.125 2.375 7.125 C2.045 8.115 1.715 9.105 1.375 10.125 C-1 10.3125 -1 10.3125 -3.625 10.125 C-5.625 7.125 -5.625 7.125 -5.375 4.5625 C-4.336523 1.18744974 -3.59386412 0.17113639 0 0 Z " fill="#A22219" transform="translate(422.625,845.875)"/>
<path d="M0 0 C1.125 3.75 1.125 3.75 0 6 C0.66 6 1.32 6 2 6 C1.34 7.65 0.68 9.3 0 11 C-2.31 11 -4.62 11 -7 11 C-7 10.01 -7 9.02 -7 8 C-5.02 8 -3.04 8 -1 8 C-1 7.01 -1 6.02 -1 5 C-2.65 5 -4.3 5 -6 5 C-6 4.34 -6 3.68 -6 3 C-4.02 3 -2.04 3 0 3 C0 2.01 0 1.02 0 0 Z " fill="#30070C" transform="translate(330,653)"/>
<path d="M0 0 C2.74415095 2.26118038 3.89410286 3.47594492 4.609375 7.015625 C4.65578125 8.08296875 4.7021875 9.1503125 4.75 10.25 C4.80671875 11.32765625 4.8634375 12.4053125 4.921875 13.515625 C4.94765625 14.33546875 4.9734375 15.1553125 5 16 C3.35 16 1.7 16 0 16 C0 13.69 0 11.38 0 9 C0.66 9 1.32 9 2 9 C1.34 8.01 0.68 7.02 0 6 C-0.125 2.8125 -0.125 2.8125 0 0 Z " fill="#434442" transform="translate(484,341)"/>
<path d="M0 0 C0.33 0 0.66 0 1 0 C1.29556866 7.38921642 0.58857304 14.77297327 -1 22 C-1.66 22.33 -2.32 22.66 -3 23 C-3.2537426 15.51459323 -2.49747338 8.34527088 -1 1 C-0.67 0.67 -0.34 0.34 0 0 Z " fill="#525555" transform="translate(327,264)"/>
<path d="M0 0 C10.23 0 20.46 0 31 0 C31 0.33 31 0.66 31 1 C26.72920293 1.1676046 22.45835675 1.33392359 18.1875 1.5 C16.97255859 1.54769531 15.75761719 1.59539062 14.50585938 1.64453125 C13.34248047 1.68964844 12.17910156 1.73476563 10.98046875 1.78125 C9.90692139 1.82314453 8.83337402 1.86503906 7.72729492 1.90820312 C5.14941407 1.99497093 2.5789818 2 0 2 C0 1.34 0 0.68 0 0 Z M-2 2 C-1.34 2 -0.68 2 0 2 C-0.33 2.99 -0.66 3.98 -1 5 C-1.33 4.01 -1.66 3.02 -2 2 Z " fill="#424444" transform="translate(630,354)"/>
<path d="M0 0 C2.38564077 0.57584432 4.66682784 1.22227595 7 2 C7.33 1.34 7.66 0.68 8 0 C8.33 0.99 8.66 1.98 9 3 C7.35 3 5.7 3 4 3 C4 3.66 4 4.32 4 5 C5.32 5 6.64 5 8 5 C7.67 5.99 7.34 6.98 7 8 C7 7.34 7 6.68 7 6 C5.02 6.66 3.04 7.32 1 8 C0 7 0 7 -0.0625 3.4375 C-0.041875 2.303125 -0.02125 1.16875 0 0 Z " fill="#312C33" transform="translate(324,620)"/>
<path d="M0 0 C0.66 0.33 1.32 0.66 2 1 C-2.95 9.91 -2.95 9.91 -8 19 C-8.66 18.34 -9.32 17.68 -10 17 C-9.65066406 16.39671875 -9.30132812 15.7934375 -8.94140625 15.171875 C-8.25884766 13.97304688 -8.25884766 13.97304688 -7.5625 12.75 C-7.11003906 11.96109375 -6.65757812 11.1721875 -6.19140625 10.359375 C-4.93854779 8.09734198 -4.93854779 8.09734198 -4.46875 5.84375 C-3.77944186 3.13247133 -2.03112158 1.83456143 0 0 Z " fill="#312626" transform="translate(471,705)"/>
<path d="M0 0 C3.0625 0.1875 3.0625 0.1875 5.0625 2.1875 C5.0625 3.1775 5.0625 4.1675 5.0625 5.1875 C2.67685923 4.61165568 0.39567216 3.96522405 -1.9375 3.1875 C-2.2675 5.1675 -2.5975 7.1475 -2.9375 9.1875 C-4.3325848 6.88971327 -5.01188619 5.7082033 -4.625 3 C-3.50738403 0.0535579 -3.33668728 0.21298004 0 0 Z " fill="#ECEAF1" transform="translate(325.9375,616.8125)"/>
<path d="M0 0 C0.99 0.495 0.99 0.495 2 1 C2.99 0.67 3.98 0.34 5 0 C5 2.97 5 5.94 5 9 C3.35 9 1.7 9 0 9 C0 6.03 0 3.06 0 0 Z " fill="#060E0F" transform="translate(314,654)"/>
<path d="M0 0 C0.33 0 0.66 0 1 0 C0.53913252 7.16770219 -0.06724671 14.06482643 -2 21 C-2.66 21.33 -3.32 21.66 -4 22 C-3.7161296 19.45724602 -3.42316578 16.91608446 -3.125 14.375 C-3.04636719 13.66214844 -2.96773438 12.94929688 -2.88671875 12.21484375 C-2.37424854 7.91797815 -1.53115573 4.078793 0 0 Z " fill="#292D2B" transform="translate(325,266)"/>
<path d="M0 0 C2.375 -0.125 2.375 -0.125 5 0 C7 2 7 2 7.1953125 4.6015625 C7.17210937 5.59929688 7.14890625 6.59703125 7.125 7.625 C7.10695313 8.62789062 7.08890625 9.63078125 7.0703125 10.6640625 C7.03550781 11.82035156 7.03550781 11.82035156 7 13 C3.88009102 10.21466571 3.46183818 8.15654359 3 4 C2.01 3.67 1.02 3.34 0 3 C0 2.01 0 1.02 0 0 Z " fill="#AAA8A8" transform="translate(495,840)"/>
<path d="M0 0 C0.66 0 1.32 0 2 0 C3.31626692 3.61973402 4 6.09567131 4 10 C2.0625 9.625 2.0625 9.625 0 9 C-0.33 8.34 -0.66 7.68 -1 7 C-1.99 6.34 -2.98 5.68 -4 5 C-3.01 5 -2.02 5 -1 5 C-0.67 3.35 -0.34 1.7 0 0 Z " fill="#EAE8EF" transform="translate(315,621)"/>
<path d="M0 0 C0.99 0.33 1.98 0.66 3 1 C3 2.32 3 3.64 3 5 C1.8553125 5.2165625 1.8553125 5.2165625 0.6875 5.4375 C-2.08172908 5.9632594 -2.08172908 5.9632594 -5 7 C-5 5.35 -5 3.7 -5 2 C-4.01 1.67 -3.02 1.34 -2 1 C-1.34 1.33 -0.68 1.66 0 2 C0 1.34 0 0.68 0 0 Z " fill="#5D5B57" transform="translate(661,391)"/>
<path d="M0 0 C0.33 0.66 0.66 1.32 1 2 C-0.19614677 4.43659526 -1.43812986 6.73002411 -2.8125 9.0625 C-3.36647461 10.03799805 -3.36647461 10.03799805 -3.93164062 11.03320312 C-6.73305861 15.8665293 -6.73305861 15.8665293 -9 17 C-8.33333333 15 -7.66666667 13 -7 11 C-6.67 9.9275 -6.34 8.855 -6 7.75 C-4.75471953 4.3254787 -2.53050039 2.53050039 0 0 Z " fill="#5F2625" transform="translate(447,747)"/>
<path d="M0 0 C3.96 1.98 7.92 3.96 12 6 C11.34 6.66 10.68 7.32 10 8 C8.02 7.01 6.04 6.02 4 5 C4.33 6.32 4.66 7.64 5 9 C4.34 9 3.68 9 3 9 C2.67 7.35 2.34 5.7 2 4 C1.01 3.67 0.02 3.34 -1 3 C-0.67 2.01 -0.34 1.02 0 0 Z " fill="#2E2F2E" transform="translate(468,230)"/>
<path d="M0 0 C0.33 0 0.66 0 1 0 C1 3.96 1 7.92 1 12 C-1.97 11.505 -1.97 11.505 -5 11 C-4.39816251 8.97954558 -3.72693904 6.97888961 -3 5 C-2.34 4.67 -1.68 4.34 -1 4 C-0.34786708 1.97536745 -0.34786708 1.97536745 0 0 Z " fill="#656360" transform="translate(667,360)"/>
<path d="M0 0 C0.66 0 1.32 0 2 0 C2.36402369 1.43503555 2.71586591 2.87316506 3.0625 4.3125 C3.25972656 5.11300781 3.45695312 5.91351563 3.66015625 6.73828125 C4 9 4 9 3 12 C2.01 12.495 2.01 12.495 1 13 C-0.00496852 9.98509443 -0.10335303 7.95818308 -0.0625 4.8125 C-0.05347656 3.91144531 -0.04445313 3.01039063 -0.03515625 2.08203125 C-0.02355469 1.39496094 -0.01195312 0.70789063 0 0 Z " fill="#0D1112" transform="translate(318,466)"/>
<path d="M0 0 C0.33 0 0.66 0 1 0 C1 5.94 1 11.88 1 18 C0.01 17.01 -0.98 16.02 -2 15 C-2.99 15.33 -3.98 15.66 -5 16 C-4.67 14.35 -4.34 12.7 -4 11 C-2.68 11 -1.36 11 0 11 C0 7.37 0 3.74 0 0 Z " fill="#4C4C4A" transform="translate(669,373)"/>
<path d="M0 0 C0.99 0 1.98 0 3 0 C2.02584598 2.09817789 1.05777917 3.92646288 -0.375 5.75 C-2.68602582 8.94988191 -4.3008775 12.44650523 -6 16 C-6.66 15.67 -7.32 15.34 -8 15 C-6.6310888 11.36485304 -5.0167935 8.04411097 -3.0625 4.6875 C-2.30646484 3.36298828 -2.30646484 3.36298828 -1.53515625 2.01171875 C-1.02855469 1.34785156 -0.52195312 0.68398438 0 0 Z " fill="#2F2E2D" transform="translate(480,689)"/>
<path d="M0 0 C0.99 0 1.98 0 3 0 C3.042721 1.66611905 3.04063832 3.33382885 3 5 C2 6 2 6 0.15234375 6.09765625 C-1.8984375 6.06510417 -3.94921875 6.03255208 -6 6 C-6 5.01 -6 4.02 -6 3 C-4.02 3 -2.04 3 0 3 C0 2.01 0 1.02 0 0 Z " fill="#E4E2EA" transform="translate(292,625)"/>
<path d="M0 0 C0.66 0.33 1.32 0.66 2 1 C2 3.31 2 5.62 2 8 C1.01 8.495 1.01 8.495 0 9 C-0.65555119 11.52733235 -0.65555119 11.52733235 -1 14 C-1.33 14 -1.66 14 -2 14 C-2.05389087 12.04196493 -2.09274217 10.08351091 -2.125 8.125 C-2.14820313 7.03445313 -2.17140625 5.94390625 -2.1953125 4.8203125 C-2 2 -2 2 0 0 Z " fill="#131619" transform="translate(371,515)"/>
<path d="M0 0 C0.94875 0.04125 1.8975 0.0825 2.875 0.125 C3.535 1.445 4.195 2.765 4.875 4.125 C1.905 3.63 1.905 3.63 -1.125 3.125 C-1.455 3.785 -1.785 4.445 -2.125 5.125 C-2.125 4.465 -2.125 3.805 -2.125 3.125 C-2.785 3.125 -3.445 3.125 -4.125 3.125 C-4.455 4.445 -4.785 5.765 -5.125 7.125 C-5.25 4.75 -5.25 4.75 -5.125 2.125 C-3.125 0.125 -3.125 0.125 0 0 Z " fill="#D10604" transform="translate(289.125,652.875)"/>
<path d="M0 0 C1.32 0 2.64 0 4 0 C5.29243536 4.1196377 6.26252625 7.66831683 6 12 C5.34 11.34 4.68 10.68 4 10 C4 9.01 4 8.02 4 7 C2.68 7 1.36 7 0 7 C0 4.69 0 2.38 0 0 Z " fill="#434645" transform="translate(665,423)"/>
<path d="M0 0 C0.33 0.99 0.66 1.98 1 3 C0.01 3.33 -0.98 3.66 -2 4 C-1.34 2.68 -0.68 1.36 0 0 Z M-9 4 C-6.69 4 -4.38 4 -2 4 C-2.99 4.495 -2.99 4.495 -4 5 C-4 5.99 -4 6.98 -4 8 C-4.66 8 -5.32 8 -6 8 C-6 9.65 -6 11.3 -6 13 C-6.33 13 -6.66 13 -7 13 C-7.66 10.03 -8.32 7.06 -9 4 Z " fill="#565551" transform="translate(650,374)"/>
<path d="M0 0 C0.66 0 1.32 0 2 0 C2 2.31 2 4.62 2 7 C1.34 7 0.68 7 0 7 C-0.33 9.64 -0.66 12.28 -1 15 C-1.33 15 -1.66 15 -2 15 C-2.3690205 4.44191344 -2.3690205 4.44191344 0 0 Z " fill="#2D2F2E" transform="translate(339,284)"/>
<path d="M0 0 C0.66 0 1.32 0 2 0 C3.98598493 5.95795479 4.57045059 11.74892565 5 18 C3.03723564 15.05585347 2.28266038 12.94101364 1.375 9.5625 C0.98441406 8.14130859 0.98441406 8.14130859 0.5859375 6.69140625 C0 4 0 4 0 0 Z " fill="#55575A" transform="translate(495,262)"/>
<path d="M0 0 C0.66 0.33 1.32 0.66 2 1 C2 1.66 2 2.32 2 3 C0.58456585 3.19658808 -0.83244031 3.38187546 -2.25 3.5625 C-3.03890625 3.66691406 -3.8278125 3.77132812 -4.640625 3.87890625 C-7.00532874 4.00027349 -8.7511037 3.69633257 -11 3 C-11 2.34 -11 1.68 -11 1 C-7.10835652 -0.29721449 -4.10570774 -0.13033993 0 0 Z " fill="#080C0D" transform="translate(293,668)"/>
<path d="M0 0 C0.33 0.99 0.66 1.98 1 3 C1.66 3 2.32 3 3 3 C3 9.27 3 15.54 3 22 C2.34 22 1.68 22 1 22 C0.67 14.74 0.34 7.48 0 0 Z " fill="#252828" transform="translate(499,296)"/>
<path d="M0 0 C1 2 1 2 0.14453125 5.00390625 C-0.29503906 6.17824219 -0.73460937 7.35257813 -1.1875 8.5625 C-1.61417969 9.73941406 -2.04085938 10.91632812 -2.48046875 12.12890625 C-4 15 -4 15 -6.17578125 15.90234375 C-7.07876953 15.95068359 -7.07876953 15.95068359 -8 16 C-6.57250019 12.20950293 -4.83763458 8.72877544 -2.875 5.1875 C-2.33617187 4.21167969 -1.79734375 3.23585938 -1.2421875 2.23046875 C-0.83226562 1.49441406 -0.42234375 0.75835938 0 0 Z " fill="#A3A1A2" transform="translate(480,692)"/>
<path d="M0 0 C2.66666667 1.33333333 5.33333333 2.66666667 8 4 C5.11788698 4.96070434 3.30149956 5.10581883 0.3125 5.0625 C-0.89986328 5.04896484 -0.89986328 5.04896484 -2.13671875 5.03515625 C-3.05904297 5.01775391 -3.05904297 5.01775391 -4 5 C-4 4.34 -4 3.68 -4 3 C-3.01 2.67 -2.02 2.34 -1 2 C-0.67 1.34 -0.34 0.68 0 0 Z " fill="#07080B" transform="translate(320,629)"/>
<path d="M0 0 C3 2 3 2 4 5 C4.12781786 7.67394964 4.04391871 10.32095857 4 13 C3.34 13 2.68 13 2 13 C1.66127487 11.58461283 1.32925376 10.16762037 1 8.75 C0.814375 7.96109375 0.62875 7.1721875 0.4375 6.359375 C0 4 0 4 0 0 Z " fill="#131515" transform="translate(492,261)"/>
<path d="M0 0 C0.33 0 0.66 0 1 0 C1 5.28 1 10.56 1 16 C0.34 15.01 -0.32 14.02 -1 13 C-1.99 12.34 -2.98 11.68 -4 11 C-3.67 10.34 -3.34 9.68 -3 9 C-2.34 9 -1.68 9 -1 9 C-0.67 6.03 -0.34 3.06 0 0 Z " fill="#2D3133" transform="translate(672,699)"/>
<path d="M0 0 C0.99 0.99 1.98 1.98 3 3 C2.67 3.66 2.34 4.32 2 5 C-0.31 5 -2.62 5 -5 5 C-5.33 3.68 -5.66 2.36 -6 1 C-3.03 1.495 -3.03 1.495 0 2 C0 1.34 0 0.68 0 0 Z " fill="#D70504" transform="translate(290,662)"/>
<path d="M0 0 C1.65 0.33 3.3 0.66 5 1 C4.67 2.32 4.34 3.64 4 5 C4 4.01 4 3.02 4 2 C2.68 2 1.36 2 0 2 C0 2.66 0 3.32 0 4 C0.66 4 1.32 4 2 4 C2.33 5.65 2.66 7.3 3 9 C2.01 9 1.02 9 0 9 C-1.125 6.75 -1.125 6.75 -2 4 C-1.125 1.6875 -1.125 1.6875 0 0 Z " fill="#B70604" transform="translate(300,653)"/>
<path d="M0 0 C0.66 2.31 1.32 4.62 2 7 C0.68 7 -0.64 7 -2 7 C-2.28875 6.38125 -2.5775 5.7625 -2.875 5.125 C-3.93720042 2.86674235 -3.93720042 2.86674235 -6 1 C-3 0 -3 0 0 0 Z " fill="#D6D3DA" transform="translate(305,642)"/>
<path d="M0 0 C1.32 0.33 2.64 0.66 4 1 C4 2.98 4 4.96 4 7 C2.68 7.33 1.36 7.66 0 8 C0 5.36 0 2.72 0 0 Z " fill="#28222A" transform="translate(319,638)"/>
<path d="M0 0 C0.99386719 0.10183594 1.98773438 0.20367187 3.01171875 0.30859375 C3.77097656 0.39238281 4.53023438 0.47617187 5.3125 0.5625 C5.3125 1.2225 5.3125 1.8825 5.3125 2.5625 C0.6925 2.5625 -3.9275 2.5625 -8.6875 2.5625 C-8.6875 1.9025 -8.6875 1.2425 -8.6875 0.5625 C-5.3763987 -0.54120043 -3.44001051 -0.36423641 0 0 Z " fill="#363735" transform="translate(471.6875,355.4375)"/>
<path d="M0 0 C0.99 0.33 1.98 0.66 3 1 C3.6875 3.0625 3.6875 3.0625 4 5 C5.32 5.33 6.64 5.66 8 6 C6.68 6 5.36 6 4 6 C4 6.66 4 7.32 4 8 C3.34 8 2.68 8 2 8 C2 7.34 2 6.68 2 6 C1.34 6 0.68 6 0 6 C0 4.02 0 2.04 0 0 Z " fill="#211E23" transform="translate(299,644)"/>
<path d="M0 0 C0.66 0 1.32 0 2 0 C1.67 1.65 1.34 3.3 1 5 C0.01 5 -0.98 5 -2 5 C-1.34 3.35 -0.68 1.7 0 0 Z M-3 5 C-2.67 5 -2.34 5 -2 5 C-2 7.64 -2 10.28 -2 13 C-1.34 13.33 -0.68 13.66 0 14 C-0.99 15.485 -0.99 15.485 -2 17 C-2.36402369 15.56496445 -2.71586591 14.12683494 -3.0625 12.6875 C-3.25972656 11.88699219 -3.45695312 11.08648437 -3.66015625 10.26171875 C-4 8 -4 8 -3 5 Z " fill="#2B2D2C" transform="translate(349,245)"/>
<path d="M0 0 C-0.99 0.33 -1.98 0.66 -3 1 C-3 1.66 -3 2.32 -3 3 C-4.26607607 3.53229326 -5.53810412 4.05044544 -6.8125 4.5625 C-7.52019531 4.85253906 -8.22789062 5.14257812 -8.95703125 5.44140625 C-11 6 -11 6 -14 5 C-2.97297297 -1.48648649 -2.97297297 -1.48648649 0 0 Z " fill="#282A27" transform="translate(357,231)"/>
<path d="M0 0 C2 3 2 3 2 6 C2.99 5.67 3.98 5.34 5 5 C5 5.66 5 6.32 5 7 C0.66726186 7.92844389 -2.66726186 7.92844389 -7 7 C-7 6.67 -7 6.34 -7 6 C-5.5459375 5.62875 -5.5459375 5.62875 -4.0625 5.25 C-2.5465625 4.63125 -2.5465625 4.63125 -1 4 C-0.03122943 1.96756452 -0.03122943 1.96756452 0 0 Z " fill="#4A060C" transform="translate(294,661)"/>
<path d="M0 0 C2.96052484 3.36423277 3.92289822 6.69159287 5 11 C3.68 11 2.36 11 1 11 C1.33 9.35 1.66 7.7 2 6 C1.34 6 0.68 6 0 6 C-1.125 2.25 -1.125 2.25 0 0 Z " fill="#ECEDF2" transform="translate(335,637)"/>
<path d="M0 0 C1.27875 -0.061875 2.5575 -0.12375 3.875 -0.1875 C4.95394531 -0.23970703 4.95394531 -0.23970703 6.0546875 -0.29296875 C6.69664062 -0.19628906 7.33859375 -0.09960938 8 0 C8.66 0.99 9.32 1.98 10 3 C9.125 5.6875 9.125 5.6875 8 8 C7.79375 7.401875 7.5875 6.80375 7.375 6.1875 C5.49073918 3.18981233 3.18867916 2.38638224 0 1 C0 0.67 0 0.34 0 0 Z " fill="#D3CED7" transform="translate(316,635)"/>
<path d="M0 0 C2.475 0.495 2.475 0.495 5 1 C5 1.66 5 2.32 5 3 C5.66 3 6.32 3 7 3 C7 3.66 7 4.32 7 5 C6.01 5 5.02 5 4 5 C3.67 5.66 3.34 6.32 3 7 C0 2.25 0 2.25 0 0 Z " fill="#DBD8E0" transform="translate(339,635)"/>
<path d="M0 0 C0.99 0.33 1.98 0.66 3 1 C3.33 2.65 3.66 4.3 4 6 C3.01 5.34 2.02 4.68 1 4 C1 5.32 1 6.64 1 8 C0.01 8 -0.98 8 -2 8 C-2.20086443 4.28400809 -2.1519437 3.22791555 0 0 Z " fill="#AFA9B4" transform="translate(334,635)"/>
<path d="M0 0 C1.5 1.375 1.5 1.375 3 3 C3 3.66 3 4.32 3 5 C4.32 5.33 5.64 5.66 7 6 C6.34 6 5.68 6 5 6 C5 6.66 5 7.32 5 8 C3.68 8 2.36 8 1 8 C0.67 5.36 0.34 2.72 0 0 Z " fill="#0B090D" transform="translate(338,626)"/>
<path d="M0 0 C2.32378307 3.4856746 2.63078302 5.86476981 3 10 C2.67 10.99 2.34 11.98 2 13 C-0.44038726 8.11922548 -1.46845421 5.47332932 0 0 Z " fill="#2C302E" transform="translate(476,248)"/>
<path d="M0 0 C0.33 0 0.66 0 1 0 C1.33 2.64 1.66 5.28 2 8 C0.68 8.33 -0.64 8.66 -2 9 C-2.25 3.375 -2.25 3.375 0 0 Z " fill="#373C39" transform="translate(345,254)"/>
<path d="M0 0 C0.33 0 0.66 0 1 0 C1.02689216 1.47906892 1.04634621 2.95827483 1.0625 4.4375 C1.07410156 5.26121094 1.08570313 6.08492187 1.09765625 6.93359375 C1 9 1 9 0 10 C-1.66617115 10.04063832 -3.33388095 10.042721 -5 10 C-4.360625 9.0925 -3.72125 8.185 -3.0625 7.25 C-1.38571047 4.60778619 -0.46310002 3.0101501 0 0 Z " fill="#B2B0B0" transform="translate(500,846)"/>
<path d="M0 0 C0.99 0.99 1.98 1.98 3 3 C2.67 3.99 2.34 4.98 2 6 C1.01 6.33 0.02 6.66 -1 7 C-1.66 6.01 -2.32 5.02 -3 4 C-2.01 2.68 -1.02 1.36 0 0 Z " fill="#595653" transform="translate(665,376)"/>
<path d="M0 0 C0.33 0.99 0.66 1.98 1 3 C3.31 3 5.62 3 8 3 C8 3.66 8 4.32 8 5 C5.03 5 2.06 5 -1 5 C-0.67 3.35 -0.34 1.7 0 0 Z " fill="#FA2703" transform="translate(322,661)"/>
<path d="M0 0 C0.99 0 1.98 0 3 0 C3 0.66 3 1.32 3 2 C2.34 2 1.68 2 1 2 C1 2.99 1 3.98 1 5 C-0.65 5 -2.3 5 -4 5 C-4 4.01 -4 3.02 -4 2 C-2.68 2 -1.36 2 0 2 C0 1.34 0 0.68 0 0 Z " fill="#807A83" transform="translate(291,623)"/>
<path d="M0 0 C3.93846154 3.32307692 3.93846154 3.32307692 4.25 6.75 C4.1675 7.4925 4.085 8.235 4 9 C3.01 8.67 2.02 8.34 1 8 C-0.35439668 5.29120665 -0.06501451 2.99066732 0 0 Z " fill="#484C4D" transform="translate(484,341)"/>
<path d="M0 0 C0.75 1.6875 0.75 1.6875 1 4 C-0.8125 6.75 -0.8125 6.75 -3 9 C-3.66 9 -4.32 9 -5 9 C-4.42906864 5.6885981 -3.45395174 4.24945577 -1 2 C-0.67 1.34 -0.34 0.68 0 0 Z " fill="#363637" transform="translate(410,805)"/>
<path d="M0 0 C0.99 0.33 1.98 0.66 3 1 C3.33 3.97 3.66 6.94 4 10 C3.01 9.67 2.02 9.34 1 9 C0.67 6.03 0.34 3.06 0 0 Z " fill="#2E3030" transform="translate(501,346)"/>
<path d="M0 0 C1.32 0 2.64 0 4 0 C4 1.32 4 2.64 4 4 C2.35 4 0.7 4 -1 4 C-0.67 2.68 -0.34 1.36 0 0 Z " fill="#221E20" transform="translate(421,849)"/>
<path d="M0 0 C0.66 0 1.32 0 2 0 C2 1.98 2 3.96 2 6 C1.01 6.33 0.02 6.66 -1 7 C-1.33 5.35 -1.66 3.7 -2 2 C-1.34 2 -0.68 2 0 2 C0 1.34 0 0.68 0 0 Z " fill="#0A0E0D" transform="translate(333,661)"/>
<path d="M0 0 C2 3 2 3 2 7 C0.68 6.67 -0.64 6.34 -2 6 C-1.49396008 3.83125748 -1.00016187 2.00032373 0 0 Z " fill="#D2CFD7" transform="translate(317,624)"/>
<path d="M0 0 C0.66 0 1.32 0 2 0 C1.7834375 1.051875 1.7834375 1.051875 1.5625 2.125 C0.98521625 5.07556141 0.48304859 8.03270151 0 11 C-0.33 11 -0.66 11 -1 11 C-1.0270043 9.54176788 -1.04639787 8.08339325 -1.0625 6.625 C-1.07410156 5.81289063 -1.08570313 5.00078125 -1.09765625 4.1640625 C-1 2 -1 2 0 0 Z " fill="#19151A" transform="translate(348,638)"/>
<path d="M0 0 C0.99 0 1.98 0 3 0 C2.01 2.97 1.02 5.94 0 9 C-0.33 9 -0.66 9 -1 9 C-0.67 6.03 -0.34 3.06 0 0 Z " fill="#E9E8EE" transform="translate(331,635)"/>
<path d="M0 0 C1.32 0 2.64 0 4 0 C3.67 1.32 3.34 2.64 3 4 C1.68 4 0.36 4 -1 4 C-0.67 2.68 -0.34 1.36 0 0 Z " fill="#E2E1E7" transform="translate(311,617)"/>
<path d="M0 0 C0.66 0 1.32 0 2 0 C2 2.64 2 5.28 2 8 C1.01 8 0.02 8 -1 8 C-0.67 5.36 -0.34 2.72 0 0 Z " fill="#3C403D" transform="translate(327,257)"/>
<path d="M0 0 C1.32 0 2.64 0 4 0 C4.66 1.98 5.32 3.96 6 6 C4.68 5.67 3.36 5.34 2 5 C2 4.01 2 3.02 2 2 C1.34 2 0.68 2 0 2 C0 1.34 0 0.68 0 0 Z " fill="#F22102" transform="translate(300,655)"/>
<path d="M0 0 C0.99 0.33 1.98 0.66 3 1 C3.33 3.31 3.66 5.62 4 8 C3.34 8 2.68 8 2 8 C0.74335022 5.09399739 0 3.20395416 0 0 Z " fill="#5D5D5F" transform="translate(492,252)"/>
</svg>
